<svg version="1.1" id="Layer_1" xmlns="http://www.w3.org/2000/svg" xmlns:xlink="http://www.w3.org/1999/xlink" x="0px" y="0px"
	 width="100%" viewBox="0 0 500 500" enable-background="new 0 0 500 500" xml:space="preserve">
<path fill="#1B86EA" opacity="1.000000" stroke="none" 
	d="
M277.000000,501.000000 
	C184.666687,501.000000 92.833374,501.000000 1.000049,501.000000 
	C1.000033,334.333405 1.000033,167.666794 1.000016,1.000139 
	C167.666565,1.000093 334.333130,1.000093 500.999756,1.000046 
	C500.999847,167.666519 500.999847,334.333038 500.999939,500.999786 
	C426.500000,501.000000 352.000000,501.000000 277.000000,501.000000 
M335.751709,120.559921 
	C335.595947,120.249222 335.348999,120.053635 334.910339,119.513992 
	C334.780853,119.199348 334.551178,119.000381 334.018799,118.255005 
	C329.643005,113.503548 325.718781,108.214592 320.813385,104.093483 
	C299.299835,86.019547 274.408844,82.458420 247.767609,88.613785 
	C232.928696,92.042274 219.096054,97.921249 207.270752,108.998230 
	C206.162979,110.295219 205.055191,111.592209 203.330887,113.187859 
	C201.979645,114.841705 200.423569,116.369720 199.315704,118.173080 
	C196.038086,123.508438 193.295273,129.178360 196.982651,135.295685 
	C200.624878,141.338120 206.773834,140.314102 212.552246,139.875061 
	C212.715469,139.862656 212.875763,139.811996 213.796738,139.793518 
	C217.836899,138.182999 221.877045,136.572479 226.635254,134.806686 
	C229.396667,134.532669 232.158081,134.258652 235.391037,134.553085 
	C236.049103,136.669662 236.707169,138.786255 237.163528,141.753540 
	C236.088120,145.798599 235.012726,149.843674 233.399185,154.288498 
	C229.576477,158.189972 225.753754,162.091446 221.091370,166.082214 
	C215.265717,167.722351 208.992126,168.494690 203.723572,171.214127 
	C196.536758,174.923706 194.056000,183.425613 196.838196,189.976517 
	C199.799728,196.949677 205.697235,199.285049 214.782257,197.071533 
	C215.579987,196.877182 216.362869,196.621918 217.935898,196.266617 
	C219.985367,195.727142 222.034851,195.187653 224.813217,194.866760 
	C230.174881,197.885101 235.536545,200.903442 241.085236,204.667938 
	C244.556625,210.664566 245.073502,216.909348 241.818878,223.040100 
	C239.601120,227.217743 236.704330,231.034912 233.521591,235.329910 
	C231.356934,237.246841 229.192261,239.163773 226.421539,241.367737 
	C223.280884,243.584564 220.140228,245.801392 216.384872,248.295334 
	C212.888947,250.821579 209.393036,253.347839 205.255096,256.097656 
	C202.156311,258.392731 199.057526,260.687836 195.341385,263.250244 
	C192.507309,265.444489 189.673248,267.638763 186.207886,270.066345 
	C183.057663,272.644073 179.907440,275.221802 176.129593,278.023438 
	C173.726837,280.302429 171.324097,282.581390 168.349823,285.227203 
	C166.800537,287.124146 164.877945,288.831085 163.792480,290.964050 
	C162.293900,293.908875 163.149948,295.864471 166.964340,295.122925 
	C170.340576,294.466644 173.705978,293.754761 177.994354,293.088440 
	C185.665314,294.054840 193.336258,295.021240 201.546387,296.417389 
	C207.513885,299.708191 213.481384,302.998993 219.897522,306.793396 
	C221.896317,308.186920 223.895126,309.580475 226.324478,311.510345 
	C232.186600,314.407471 238.048721,317.304596 244.452591,320.652130 
	C247.980225,321.689087 251.507858,322.726074 255.856369,323.952057 
	C262.249939,323.970551 268.643494,323.989075 275.851410,324.014282 
	C281.651276,321.708344 287.451141,319.402405 293.804779,316.872528 
	C293.966431,315.558563 294.706421,313.920166 294.184448,312.989685 
	C292.408264,309.823242 290.186920,306.906525 288.022003,303.197845 
	C287.601410,302.103424 287.180786,301.009033 286.774139,299.152435 
	C285.360596,293.255432 287.341217,288.113068 290.845886,282.824310 
	C292.320465,281.259888 293.795044,279.695465 296.068878,277.999939 
	C305.765167,278.681885 315.461456,279.363861 325.534729,279.985229 
	C325.864838,279.876770 326.194916,279.768311 327.202972,279.200226 
	C331.884460,277.414307 336.671204,275.752472 338.486389,269.392975 
	C338.288025,266.261353 338.089630,263.129761 337.898804,259.171875 
	C337.511383,255.770615 337.123962,252.369370 336.978210,248.292496 
	C337.791412,246.885773 338.343384,245.208359 339.467438,244.123749 
	C342.659210,241.043930 342.011139,238.494476 339.266998,235.423096 
	C346.165985,232.440582 346.162048,232.441284 344.821198,224.846039 
	C344.648865,223.869843 344.543152,222.881897 344.730927,221.245605 
	C346.790802,219.444672 348.850677,217.643738 351.632751,215.793228 
	C353.744965,214.869461 355.912354,214.053299 357.959839,213.003326 
	C366.855743,208.441422 367.556702,202.714584 359.789459,195.229767 
	C357.282501,192.443497 354.775543,189.657242 352.016296,186.217255 
	C350.441864,183.120636 348.867432,180.024017 347.205597,176.082245 
	C346.799530,172.719406 346.393463,169.356567 346.245789,165.235016 
	C346.728180,160.520187 347.210571,155.805344 347.807373,150.475739 
	C347.758453,150.273117 347.709503,150.070511 347.660370,149.226593 
	C347.539246,148.817429 347.418152,148.408264 347.455872,147.606735 
	C347.457428,147.301056 347.337341,147.054657 347.061371,146.082077 
	C346.623566,144.061737 346.185760,142.041397 345.726898,139.295563 
	C342.830688,133.832825 339.934479,128.370087 336.885315,122.356949 
	C336.758789,122.214661 336.632263,122.072372 336.439331,121.621750 
	C336.335480,121.417549 336.170288,121.298332 335.982819,121.099403 
	C335.982819,121.099403 335.824493,121.039520 335.751709,120.559921 
M200.694489,162.072327 
	C203.692307,160.640732 206.700424,159.230164 209.685150,157.771774 
	C212.885406,156.208115 215.574722,154.425568 219.513641,157.338867 
	C222.470261,159.525650 226.362137,157.957748 228.617798,154.673096 
	C230.893005,151.360016 230.470566,148.002625 227.754013,145.111252 
	C224.980652,142.159439 220.909027,141.373428 218.347961,143.978363 
	C214.714508,147.674057 211.443451,146.584885 207.595474,145.466278 
	C203.613510,144.308731 199.482422,143.632889 195.559265,142.319931 
	C193.982986,141.792419 192.837524,140.060715 191.405014,138.999939 
	C189.531357,137.612473 187.555283,135.300201 185.645920,135.322525 
	C183.729446,135.344940 180.862427,137.395676 180.213943,139.203766 
	C179.560120,141.026703 181.007919,143.682220 181.756271,145.898193 
	C182.172089,147.129593 183.614655,148.217438 183.596680,149.354202 
	C183.541580,152.834534 183.838501,156.701126 182.433334,159.678909 
	C180.831070,163.074402 177.972275,167.448013 174.886337,168.192810 
	C170.588303,169.230179 165.147964,171.072784 160.737976,166.804581 
	C160.078781,166.166580 157.290771,166.666809 156.477448,167.551025 
	C155.680969,168.416931 155.542236,170.881378 156.232025,171.841721 
	C156.923279,172.804092 159.052948,173.256165 160.451447,173.089066 
	C164.558990,172.598267 168.590454,171.335052 172.700180,171.032471 
	C177.867996,170.651978 181.343414,174.892487 180.656738,180.019562 
	C180.392075,181.995712 180.220810,183.984558 180.018723,185.968826 
	C179.549301,190.577759 180.008469,195.174957 174.984039,198.401321 
	C171.380249,200.715424 165.865295,201.915298 161.733826,199.703964 
	C160.338486,198.957138 157.905762,198.983917 156.570480,199.747375 
	C155.826935,200.172470 156.366379,202.841492 156.327606,204.499252 
	C158.115631,204.527405 160.209366,205.175079 161.636124,204.471100 
	C166.513916,202.064270 171.363647,202.516876 175.148300,206.250748 
	C175.727127,206.821823 176.482986,207.558746 177.189453,207.595566 
	C180.299103,207.757629 180.639709,209.970383 181.270828,212.304718 
	C183.352905,220.005707 185.647751,227.648865 187.785126,235.335312 
	C188.468506,237.792938 189.399673,240.018570 186.929321,242.586563 
	C185.805405,243.754913 186.141312,247.561966 187.234772,249.255356 
	C188.183258,250.724274 191.477417,251.926559 193.111343,251.380615 
	C195.039307,250.736450 197.810120,247.831497 197.561768,246.352249 
	C196.810165,241.875565 199.667496,240.141846 202.189941,237.891281 
	C206.166000,234.343765 210.230011,230.888351 214.084305,227.213028 
	C216.744553,224.676300 219.009079,222.989426 223.201141,224.681396 
	C227.434204,226.389923 232.030548,223.586502 233.822388,219.460251 
	C235.580704,215.411194 234.105774,210.552246 230.350357,208.022018 
	C226.936676,205.722046 222.027939,206.176300 218.842575,209.145081 
	C217.907730,210.016357 217.097473,211.021332 216.276794,211.914230 
	C207.592224,209.287079 199.274872,206.250778 190.704468,204.363815 
	C185.116974,203.133621 185.242767,197.422424 181.495087,195.047836 
	C183.626526,188.027847 179.299683,179.299469 187.156921,173.755234 
	C187.893600,173.235428 188.657883,172.058395 188.606262,171.236954 
	C188.368774,167.456772 191.194641,166.640320 193.739868,165.450958 
	C195.846298,164.466629 197.923630,163.420044 200.694489,162.072327 
M223.346817,400.142914 
	C222.066574,398.590942 220.786346,397.038940 219.506104,395.486969 
	C219.074173,395.684357 218.642227,395.881744 218.210297,396.079132 
	C218.910339,405.042175 219.610397,414.005219 220.310440,422.968292 
	C220.960938,422.938629 221.611435,422.908936 222.261917,422.879272 
	C221.862961,416.100067 221.464005,409.320862 221.065048,402.541656 
	C221.403854,402.487457 221.742676,402.433228 222.081497,402.379028 
	C225.408234,407.120422 228.734970,411.861816 232.156540,416.738373 
	C235.083786,412.056549 238.169815,407.120758 241.255829,402.184967 
	C241.570435,402.324646 241.885056,402.464355 242.199661,402.604034 
	C242.824295,409.428406 243.448944,416.252808 244.073593,423.077179 
	C244.738327,422.999664 245.403061,422.922150 246.067795,422.844666 
	C245.382401,413.991364 244.697006,405.138062 244.011612,396.284760 
	C243.521194,396.208984 243.030777,396.133179 242.540359,396.057404 
	C239.178421,401.263184 235.816498,406.468964 232.072556,412.266296 
	C229.157379,408.207520 226.465164,404.459167 223.346817,400.142914 
M298.303619,346.963165 
	C295.268860,344.433990 295.585236,346.772797 295.719482,348.760223 
	C296.167603,355.395630 296.598877,362.032593 297.127411,368.661743 
	C297.245331,370.140411 297.733582,371.589569 298.051331,373.052307 
	C298.539337,372.996460 299.027313,372.940582 299.515320,372.884735 
	C299.140625,366.363831 298.765930,359.842926 298.391266,353.322021 
	C298.815552,353.198059 299.239838,353.074066 299.664124,352.950104 
	C302.874603,357.481171 306.085083,362.012238 309.397675,366.687439 
	C312.245026,362.181549 315.265717,357.401398 318.286377,352.621216 
	C318.661652,352.762756 319.036926,352.904266 319.412201,353.045776 
	C320.045990,359.693451 320.679779,366.341125 321.313538,372.988800 
	C321.958038,372.912537 322.602539,372.836243 323.247070,372.759949 
	C322.588165,363.939667 321.929291,355.119385 321.270386,346.299103 
	C320.779785,346.221008 320.289154,346.142883 319.798553,346.064789 
	C316.415588,351.288788 313.032654,356.512817 309.272400,362.319458 
	C305.656525,357.212402 302.226135,352.367310 298.303619,346.963165 
M287.955261,353.453491 
	C288.048615,355.778778 288.087494,358.107910 288.251190,360.428223 
	C288.403198,362.582184 288.652008,364.731384 288.925446,366.874084 
	C289.186890,368.923004 289.534912,370.960876 289.844879,373.003632 
	C290.394928,372.909332 290.944977,372.815033 291.494995,372.720734 
	C290.862335,363.910645 290.229706,355.100586 289.597046,346.290497 
	C289.066345,346.233215 288.535675,346.175903 288.004974,346.118591 
	C284.623413,351.334747 281.241882,356.550873 277.583801,362.193573 
	C273.261688,356.362610 269.206116,350.891296 265.150574,345.419983 
	C264.675995,345.618774 264.201385,345.817566 263.726807,346.016388 
	C264.439514,354.991302 265.152191,363.966248 265.864868,372.941193 
	C266.481506,372.920868 267.098175,372.900543 267.714813,372.880219 
	C267.398376,366.371460 267.081970,359.862701 266.765533,353.353943 
	C267.163391,353.237762 267.561249,353.121582 267.959106,353.005432 
	C271.171051,357.535126 274.382965,362.064850 277.760651,366.828339 
	C279.378632,364.067474 280.969513,360.987427 282.917694,358.152985 
	C284.289703,356.156860 286.147247,354.494476 287.955261,353.453491 
M163.743042,368.790955 
	C164.042633,370.191681 164.342209,371.592407 164.641785,372.993134 
	C165.105759,372.905518 165.569748,372.817902 166.033722,372.730286 
	C165.640259,366.093536 165.246796,359.456787 164.853348,352.820068 
	C165.188766,352.705750 165.524185,352.591461 165.859604,352.477142 
	C169.170303,357.174011 172.481003,361.870880 175.910477,366.736237 
	C178.790695,362.107086 181.869812,357.158234 184.948929,352.209412 
	C186.258026,356.013123 186.503571,359.437775 186.833496,362.854279 
	C187.161453,366.250488 187.574203,369.638519 187.949783,373.030121 
	C188.569504,372.930481 189.189224,372.830811 189.808945,372.731171 
	C189.127121,363.903809 188.445312,355.076477 187.763489,346.249146 
	C187.273911,346.195190 186.784332,346.141266 186.294754,346.087311 
	C182.913239,351.260468 179.531738,356.433594 175.821854,362.109100 
	C171.374374,356.164215 167.333160,350.762390 163.291931,345.360565 
	C162.860275,345.615021 162.428604,345.869507 161.996948,346.123962 
	C162.539581,353.384186 163.082199,360.644440 163.743042,368.790955 
M281.962891,397.181519 
	C277.975067,396.774017 273.987244,396.366547 269.577240,395.915894 
	C270.179443,404.547913 270.641663,412.161926 271.305511,419.758362 
	C271.422272,421.094360 272.025024,422.950775 273.017181,423.549347 
	C277.188263,426.065735 285.982605,423.254364 288.523682,418.879639 
	C293.028351,411.124390 290.546478,402.058136 281.962891,397.181519 
M367.441101,356.403290 
	C364.176300,347.538544 357.204803,344.337402 346.854858,347.150452 
	C347.527710,355.826172 348.204407,364.551056 348.867157,373.096558 
	C360.273499,375.743103 366.142242,372.536835 367.633484,363.139465 
	C367.940460,361.205017 367.673431,359.179443 367.441101,356.403290 
M214.247101,352.498077 
	C213.473663,351.420624 212.805969,350.244843 211.909729,349.281616 
	C205.890854,342.813141 197.985687,344.255554 195.204178,352.642761 
	C194.035294,356.167389 193.812912,360.139893 193.861618,363.899719 
	C193.919815,368.392517 196.715912,371.182678 201.021973,372.401001 
	C205.250931,373.597504 209.011948,372.781158 211.890076,369.393036 
	C215.979675,364.578796 217.335754,359.191528 214.247101,352.498077 
M211.260513,401.713196 
	C211.409653,403.626892 211.558792,405.540558 211.720993,407.621826 
	C207.134628,407.621826 203.081528,407.621826 198.903885,407.621826 
	C198.375992,403.673065 197.884094,399.993469 197.392181,396.313843 
	C196.799484,396.401398 196.206802,396.488922 195.614120,396.576477 
	C196.238693,405.378418 196.863266,414.180389 197.487839,422.982361 
	C198.070847,422.960541 198.653854,422.938721 199.236862,422.916901 
	C199.236862,418.814484 199.236862,414.712067 199.236862,410.418518 
	C203.612869,410.418518 207.636154,410.418518 211.507202,410.418518 
	C212.154434,414.973389 212.731110,419.031616 213.307770,423.089844 
	C213.907730,423.005493 214.507706,422.921112 215.107666,422.836761 
	C214.399094,414.042725 213.690521,405.248657 212.981949,396.454590 
	C212.377426,396.498291 211.772903,396.541992 211.168381,396.585663 
	C211.168381,397.997589 211.168381,399.409515 211.260513,401.713196 
M220.265930,371.765381 
	C220.954239,371.543396 222.245361,371.308777 222.241013,371.101318 
	C222.168900,367.657532 221.934250,364.217163 221.713654,360.389313 
	C226.224136,360.389313 230.235031,360.389313 234.357925,360.389313 
	C234.927979,364.878418 235.442780,368.932495 235.957596,372.986572 
	C236.598511,372.897369 237.239410,372.808167 237.880325,372.718964 
	C237.151276,363.982086 236.422226,355.245178 235.693176,346.508301 
	C235.153824,346.556549 234.614456,346.604797 234.075104,346.653015 
	C234.075104,350.247070 234.075104,353.841156 234.075104,357.678711 
	C229.804810,357.678711 225.737793,357.678711 221.627106,357.678711 
	C221.118149,353.763824 220.634247,350.041718 220.150345,346.319641 
	C219.563995,346.386993 218.977646,346.454346 218.391296,346.521729 
	C218.969345,354.670959 219.547379,362.820221 220.265930,371.765381 
M173.396820,419.564301 
	C173.018265,420.820251 172.639725,422.076172 172.261169,423.332123 
	C172.723663,423.522034 173.186142,423.711945 173.648636,423.901886 
	C174.810989,421.485748 176.224487,419.153778 177.069550,416.631348 
	C178.039810,413.735260 179.794098,412.816284 182.680008,413.034485 
	C185.525574,413.249603 188.328613,412.973267 189.423264,416.670471 
	C190.166138,419.179504 191.541977,421.501190 192.634735,423.906647 
	C193.148285,423.677673 193.661819,423.448669 194.175369,423.219666 
	C190.990387,414.308960 187.805389,405.398254 184.444382,395.995117 
	C178.836273,401.363281 180.743362,410.106354 172.482620,412.605743 
	C176.932510,414.480042 174.339401,416.779297 173.396820,419.564301 
M251.004684,418.402985 
	C251.754807,420.019958 252.384216,422.953796 253.275055,423.035431 
	C258.237427,423.490295 263.263184,423.253876 268.267242,423.253876 
	C268.281769,422.598999 268.296295,421.944122 268.310822,421.289246 
	C263.445160,421.289246 258.579468,421.289246 253.312164,421.289246 
	C253.312164,417.291901 253.312164,414.250092 253.312164,411.325165 
	C255.865662,410.854645 258.138428,410.435852 260.411224,410.017059 
	C260.356110,409.604095 260.300995,409.191101 260.245850,408.778137 
	C257.910248,408.778137 255.574631,408.778137 252.657104,408.778137 
	C252.411514,405.235016 252.189819,402.036713 251.903366,397.904236 
	C257.459839,397.904236 262.358215,397.904236 267.256622,397.904236 
	C267.232025,397.388855 267.207458,396.873474 267.182861,396.358093 
	C261.424377,396.358093 255.665894,396.358093 249.461716,396.358093 
	C249.981293,403.699066 250.471191,410.620819 251.004684,418.402985 
M342.821503,348.109314 
	C343.366882,347.880676 343.912231,347.652069 344.457611,347.423431 
	C343.755005,346.927460 343.062500,346.019135 342.348236,346.001678 
	C337.270111,345.877533 332.187561,345.935516 326.625793,345.935516 
	C327.357117,355.619263 328.014404,364.322113 328.640350,372.610229 
	C334.852966,372.610229 340.256836,372.610229 345.660736,372.610229 
	C345.646423,372.135223 345.632111,371.660187 345.617798,371.185181 
	C340.792358,371.185181 335.966888,371.185181 330.829376,371.185181 
	C330.486755,367.435883 330.209686,364.404388 329.946075,361.519836 
	C332.973450,360.878357 335.337189,360.377472 337.700928,359.876587 
	C337.634216,359.489380 337.567535,359.102173 337.500824,358.714966 
	C335.124115,358.714966 332.747406,358.714966 330.045288,358.714966 
	C329.723572,355.328827 329.416626,352.098083 329.033203,348.062531 
	C333.737976,348.062531 337.853333,348.062531 342.821503,348.109314 
M244.347855,367.858704 
	C245.342087,364.514008 247.043060,362.744537 251.074661,362.935120 
	C254.964203,363.118896 256.695007,364.803772 257.779938,368.161316 
	C258.418060,370.136108 259.536285,371.955780 260.438599,373.845184 
	C260.916321,373.620117 261.394012,373.395020 261.871735,373.169922 
	C258.739746,364.307220 255.607742,355.444519 252.351349,346.229828 
	C246.373688,350.853790 248.804398,360.087830 240.468887,362.391998 
	C246.682129,366.337982 238.354874,369.736450 241.049988,374.394501 
	C242.211884,372.143585 243.137634,370.350159 244.347855,367.858704 
M173.643951,148.930298 
	C169.467453,146.225998 165.657852,146.319443 164.430862,149.790878 
	C163.709991,151.830368 164.182693,155.248444 165.544250,156.773987 
	C166.698563,158.067322 170.311935,158.434418 172.105759,157.613388 
	C175.413895,156.099258 175.891296,152.882172 173.643951,148.930298 
M315.373383,404.199341 
	C315.999878,405.076996 316.436829,406.347412 317.288544,406.758514 
	C319.818573,407.979736 322.511871,408.862640 325.527710,410.026978 
	C321.403290,412.680145 318.081055,414.817322 314.758820,416.954468 
	C315.047150,417.409729 315.335510,417.865021 315.623840,418.320312 
	C320.373230,415.828400 325.122620,413.336487 329.872040,410.844574 
	C329.872528,410.365601 329.873047,409.886658 329.873535,409.407684 
	C325.274628,407.652710 320.675720,405.897736 315.373383,404.199341 
M141.267166,355.801971 
	C138.409470,357.181091 135.551758,358.560211 131.731537,360.403839 
	C137.663391,363.458405 142.328186,365.860535 146.992981,368.262634 
	C147.269577,367.782898 147.546173,367.303162 147.822769,366.823425 
	C144.370102,364.668457 140.917450,362.513489 136.915604,360.015778 
	C141.023575,358.374603 144.568008,356.958588 148.112427,355.542572 
	C147.977448,355.082489 147.842468,354.622375 147.707489,354.162262 
	C145.797241,354.615723 143.886993,355.069153 141.267166,355.801971 
M308.068451,408.460297 
	C306.890137,413.207275 305.711823,417.954285 304.533508,422.701263 
	C305.159515,422.833771 305.785553,422.966278 306.411560,423.098785 
	C308.775909,414.269257 311.140228,405.439728 313.504547,396.610199 
	C312.909882,396.441376 312.315216,396.272522 311.720551,396.103699 
	C310.584625,399.964661 309.448700,403.825653 308.068451,408.460297 
M166.701614,230.770340 
	C168.157776,232.396927 169.377762,234.488144 171.191956,235.410339 
	C171.871628,235.755829 174.979370,233.484421 175.104187,232.220856 
	C175.264084,230.602020 173.465607,227.328293 172.625549,227.365326 
	C170.657547,227.452148 168.757812,229.086578 166.701614,230.770340 
M176.284058,116.192551 
	C175.588806,118.166367 174.409424,120.141991 174.416809,122.113182 
	C174.420135,123.005508 176.828033,124.655045 178.059982,124.579208 
	C179.540726,124.488045 181.445663,123.244247 182.257538,121.935402 
	C184.196823,118.809113 181.792770,116.228050 176.284058,116.192551 
M139.862320,183.427780 
	C136.914047,184.570084 136.142700,186.991425 137.385651,189.455017 
	C138.019592,190.711548 140.323425,191.929688 141.715240,191.772552 
	C143.094818,191.616791 145.105469,189.882263 145.383026,188.539200 
	C146.087311,185.131348 144.027069,183.349335 139.862320,183.427780 
z"/>
<path fill="#F2F8FD" opacity="1.000000" stroke="none" 
	d="
M200.354187,162.236679 
	C197.923630,163.420044 195.846298,164.466629 193.739868,165.450958 
	C191.194641,166.640320 188.368774,167.456772 188.606262,171.236954 
	C188.657883,172.058395 187.893600,173.235428 187.156921,173.755234 
	C179.299683,179.299469 183.626526,188.027847 181.495087,195.047836 
	C185.242767,197.422424 185.116974,203.133621 190.704468,204.363815 
	C199.274872,206.250778 207.592224,209.287079 216.276794,211.914230 
	C217.097473,211.021332 217.907730,210.016357 218.842575,209.145081 
	C222.027939,206.176300 226.936676,205.722046 230.350357,208.022018 
	C234.105774,210.552246 235.580704,215.411194 233.822388,219.460251 
	C232.030548,223.586502 227.434204,226.389923 223.201141,224.681396 
	C219.009079,222.989426 216.744553,224.676300 214.084305,227.213028 
	C210.230011,230.888351 206.166000,234.343765 202.189941,237.891281 
	C199.667496,240.141846 196.810165,241.875565 197.561768,246.352249 
	C197.810120,247.831497 195.039307,250.736450 193.111343,251.380615 
	C191.477417,251.926559 188.183258,250.724274 187.234772,249.255356 
	C186.141312,247.561966 185.805405,243.754913 186.929321,242.586563 
	C189.399673,240.018570 188.468506,237.792938 187.785126,235.335312 
	C185.647751,227.648865 183.352905,220.005707 181.270828,212.304718 
	C180.639709,209.970383 180.299103,207.757629 177.189453,207.595566 
	C176.482986,207.558746 175.727127,206.821823 175.148300,206.250748 
	C171.363647,202.516876 166.513916,202.064270 161.636124,204.471100 
	C160.209366,205.175079 158.115631,204.527405 156.327606,204.499252 
	C156.366379,202.841492 155.826935,200.172470 156.570480,199.747375 
	C157.905762,198.983917 160.338486,198.957138 161.733826,199.703964 
	C165.865295,201.915298 171.380249,200.715424 174.984039,198.401321 
	C180.008469,195.174957 179.549301,190.577759 180.018723,185.968826 
	C180.220810,183.984558 180.392075,181.995712 180.656738,180.019562 
	C181.343414,174.892487 177.867996,170.651978 172.700180,171.032471 
	C168.590454,171.335052 164.558990,172.598267 160.451447,173.089066 
	C159.052948,173.256165 156.923279,172.804092 156.232025,171.841721 
	C155.542236,170.881378 155.680969,168.416931 156.477448,167.551025 
	C157.290771,166.666809 160.078781,166.166580 160.737976,166.804581 
	C165.147964,171.072784 170.588303,169.230179 174.886337,168.192810 
	C177.972275,167.448013 180.831070,163.074402 182.433334,159.678909 
	C183.838501,156.701126 183.541580,152.834534 183.596680,149.354202 
	C183.614655,148.217438 182.172089,147.129593 181.756271,145.898193 
	C181.007919,143.682220 179.560120,141.026703 180.213943,139.203766 
	C180.862427,137.395676 183.729446,135.344940 185.645920,135.322525 
	C187.555283,135.300201 189.531357,137.612473 191.405014,138.999939 
	C192.837524,140.060715 193.982986,141.792419 195.559265,142.319931 
	C199.482422,143.632889 203.613510,144.308731 207.595474,145.466278 
	C211.443451,146.584885 214.714508,147.674057 218.347961,143.978363 
	C220.909027,141.373428 224.980652,142.159439 227.754013,145.111252 
	C230.470566,148.002625 230.893005,151.360016 228.617798,154.673096 
	C226.362137,157.957748 222.470261,159.525650 219.513641,157.338867 
	C215.574722,154.425568 212.885406,156.208115 209.685150,157.771774 
	C206.700424,159.230164 203.692307,160.640732 200.354187,162.236679 
M213.178085,213.269852 
	C204.905029,210.804672 196.642776,208.302368 188.354553,205.889297 
	C183.921249,204.598587 181.999603,206.441284 183.197983,210.929901 
	C185.468552,219.434357 187.833511,227.914749 190.267044,236.374115 
	C191.518219,240.723419 194.589752,241.654861 197.975494,238.697891 
	C203.737305,233.665787 209.422226,228.543945 215.071335,223.385223 
	C217.694183,220.990036 217.068512,216.247559 213.178085,213.269852 
M185.126541,156.758224 
	C185.033325,158.421494 184.738937,160.103470 184.891357,161.743912 
	C185.157944,164.613144 186.891800,166.121567 189.638596,164.840805 
	C198.057602,160.915253 206.364578,156.749496 215.649109,152.221664 
	C213.909088,150.789154 212.923538,149.391647 211.642075,149.023102 
	C205.739716,147.325592 199.772751,145.836136 193.782745,144.475510 
	C192.727844,144.235916 191.428650,144.891373 190.283371,145.260880 
	C184.864487,147.009140 186.084946,151.933563 185.126541,156.758224 
z"/>
<path fill="#E2E4F8" opacity="1.000000" stroke="none" 
	d="
M207.883499,108.754089 
	C219.096054,97.921249 232.928696,92.042274 247.767609,88.613785 
	C274.408844,82.458420 299.299835,86.019547 320.813385,104.093483 
	C325.718781,108.214592 329.643005,113.503548 333.748108,118.540466 
	C325.165131,114.922745 316.554016,112.389160 307.318542,111.445694 
	C296.338593,110.323990 287.609375,103.968613 279.162872,97.428856 
	C271.955750,91.848709 264.064331,91.372818 256.193420,95.051529 
	C249.169540,98.334366 242.597931,102.589149 235.846298,106.449249 
	C226.876984,111.577255 217.621964,113.049812 207.883499,108.754089 
z"/>
<path fill="#ECEDFA" opacity="1.000000" stroke="none" 
	d="
M207.577118,108.876160 
	C217.621964,113.049812 226.876984,111.577255 235.846298,106.449249 
	C242.597931,102.589149 249.169540,98.334366 256.193420,95.051529 
	C264.064331,91.372818 271.955750,91.848709 279.162872,97.428856 
	C287.609375,103.968613 296.338593,110.323990 307.318542,111.445694 
	C316.554016,112.389160 325.165131,114.922745 333.849335,118.871506 
	C334.551178,119.000381 334.780853,119.199348 335.062927,119.945076 
	C335.380524,120.632118 335.583527,120.853241 335.824493,121.039520 
	C335.824493,121.039520 335.982819,121.099403 336.033386,121.311188 
	C336.194885,121.689445 336.335449,121.825142 336.505707,121.930077 
	C336.632263,122.072372 336.758789,122.214661 336.890747,122.977051 
	C336.956390,130.629578 340.758850,135.645111 345.747955,140.021057 
	C346.185760,142.041397 346.623566,144.061737 347.036682,146.671951 
	C347.009888,147.545135 347.104889,147.790894 347.297058,147.999115 
	C347.418152,148.408264 347.539246,148.817429 347.352356,149.467239 
	C345.066040,147.109863 343.087708,144.511841 341.014648,141.577057 
	C334.973358,128.231537 325.537170,120.959206 310.542358,121.929848 
	C298.259369,122.724953 288.283112,118.096344 280.918945,108.000862 
	C279.707458,106.340034 277.686493,105.269691 275.787170,103.681137 
	C271.332947,102.546921 267.131165,101.658035 262.528503,100.803528 
	C258.747711,101.917770 255.367828,102.997635 251.638443,104.138588 
	C244.188400,107.499397 237.087860,110.799110 229.581360,114.133041 
	C225.779358,114.483345 222.383316,114.799416 218.560669,115.055054 
	C214.438782,114.617599 210.743484,114.240585 206.778656,113.673309 
	C205.655212,113.285095 204.801300,113.087151 203.947403,112.889198 
	C205.055191,111.592209 206.162979,110.295219 207.577118,108.876160 
z"/>
<path fill="#F4F4FC" opacity="1.000000" stroke="none" 
	d="
M237.365234,140.902832 
	C236.707169,138.786255 236.049103,136.669662 235.173279,134.031006 
	C234.955521,133.508911 235.018661,133.034988 235.366180,132.903427 
	C243.139053,131.166183 250.564423,129.560516 258.439941,127.986908 
	C263.264496,128.367737 267.638824,128.716492 272.324585,129.237579 
	C277.121582,131.585281 281.607208,133.760620 286.260620,136.222931 
	C287.599609,137.032349 288.770844,137.554794 289.938232,138.053680 
	C289.934387,138.030151 289.925018,138.085205 290.007324,138.418152 
	C295.375275,148.850479 300.660889,158.949875 305.987946,169.433884 
	C308.032806,176.881332 310.036255,183.944153 312.057495,191.393967 
	C315.046326,199.524643 318.017334,207.268326 321.123810,215.323883 
	C324.137604,220.872406 328.558746,223.294189 334.533356,223.166031 
	C336.262329,223.128967 338.003479,223.660049 339.346375,223.990906 
	C335.353058,224.261230 331.752411,224.471344 327.887939,224.480652 
	C323.782166,220.842346 319.940247,217.404861 315.968140,213.641296 
	C313.831726,209.214920 311.825500,205.114624 309.726685,200.669800 
	C308.119354,196.542068 306.604584,192.758835 305.054199,188.596710 
	C300.206543,174.014709 295.333496,159.821365 285.899536,147.829147 
	C280.859039,141.421799 274.426392,137.312836 265.544067,136.949158 
	C256.374054,136.270950 248.346100,138.395676 240.629944,142.961823 
	C239.353867,142.310303 238.359543,141.606567 237.365234,140.902832 
z"/>
<path fill="#C2C5EE" opacity="1.000000" stroke="none" 
	d="
M286.092834,135.935974 
	C281.607208,133.760620 277.121582,131.585281 272.295380,128.863693 
	C271.371552,126.971642 270.664429,125.664902 270.225555,124.273544 
	C267.757812,116.450012 265.354614,108.606102 262.929413,100.769150 
	C267.131165,101.658035 271.332947,102.546921 275.784424,104.088417 
	C280.406219,132.262131 312.361938,152.652557 341.109375,141.913818 
	C343.087708,144.511841 345.066040,147.109863 347.352478,149.787888 
	C347.709503,150.070511 347.758453,150.273117 347.524841,151.023727 
	C344.680084,152.672821 342.197906,154.046249 339.541473,154.826675 
	C329.397705,157.806702 319.181824,156.641617 308.746460,154.752869 
	C304.103333,147.007645 297.932892,141.506744 289.925018,138.085205 
	C289.925018,138.085205 289.934387,138.030151 289.770081,137.764648 
	C288.434784,136.978088 287.263794,136.457031 286.092834,135.935974 
z"/>
<path fill="#686ED3" opacity="1.000000" stroke="none" 
	d="
M205.897125,255.874100 
	C209.393036,253.347839 212.888947,250.821579 216.768677,248.491791 
	C218.358688,249.959106 219.392242,251.477142 220.799576,252.459976 
	C228.885757,258.107086 230.818848,257.421265 234.333832,248.012299 
	C235.099594,247.971237 235.537216,247.948318 236.218475,248.174423 
	C243.116852,251.723404 249.643219,255.326218 256.470154,258.219971 
	C261.254547,260.247955 266.449127,261.308380 271.731049,262.975647 
	C277.254730,266.701935 282.536682,270.212219 287.739471,273.836121 
	C288.939880,274.672272 289.869324,275.897461 290.579956,276.796814 
	C279.470764,275.300995 268.705078,273.951965 257.746368,272.285156 
	C250.999542,268.791016 244.417435,265.671478 237.898682,262.424744 
	C228.484070,257.735718 228.503677,257.696350 221.760864,266.034241 
	C221.516327,266.043610 221.027740,266.072327 220.716660,265.913147 
	C215.569427,262.460693 210.733276,259.167389 205.897125,255.874100 
z"/>
<path fill="#FBFBFE" opacity="1.000000" stroke="none" 
	d="
M257.939392,272.602966 
	C268.705078,273.951965 279.470764,275.300995 290.950043,276.876007 
	C292.865631,277.445007 294.067627,277.788025 295.269623,278.131042 
	C293.795044,279.695465 292.320465,281.259888 290.139801,282.971802 
	C283.307922,282.398651 277.182098,281.677979 270.593109,280.914551 
	C264.095337,281.774719 258.060760,282.677643 251.721069,283.708801 
	C250.920914,284.218048 250.425873,284.599091 249.962280,284.980530 
	C249.993744,284.980927 249.963379,284.925812 249.602554,284.926819 
	C245.458282,287.749420 241.674820,290.571014 237.587769,293.572205 
	C235.862381,295.505402 234.440582,297.259003 232.801117,299.273071 
	C230.353607,303.347015 228.123764,307.160492 225.893921,310.973999 
	C223.895126,309.580475 221.896317,308.186920 219.864044,306.174683 
	C221.651855,301.730377 223.473129,297.904755 225.567856,293.904358 
	C227.600632,291.224976 229.359955,288.720398 231.423386,286.068542 
	C235.082092,283.110291 238.436691,280.299316 242.116669,277.381653 
	C247.607834,275.717651 252.773605,274.160309 257.939392,272.602966 
z"/>
<path fill="#ABAFE7" opacity="1.000000" stroke="none" 
	d="
M252.026184,283.580566 
	C258.060760,282.677643 264.095337,281.774719 270.404297,281.205627 
	C268.781250,286.176605 265.965698,290.671265 265.218384,295.486847 
	C264.279816,301.534851 269.750122,305.717560 275.736725,304.175201 
	C279.525635,303.199066 283.093292,301.364288 286.760193,299.914612 
	C287.180786,301.009033 287.601410,302.103424 287.899841,303.839783 
	C285.515015,306.959137 283.252319,309.436523 280.633484,312.005127 
	C275.844055,313.437500 271.410736,314.778717 266.615234,316.069763 
	C264.838959,315.663788 263.424866,315.307953 261.929199,314.621277 
	C260.412476,312.299652 258.883759,310.368927 257.560699,308.306274 
	C254.306503,303.232849 251.146896,298.098755 247.984772,292.610748 
	C248.668015,289.796906 249.315689,287.361359 249.963379,284.925812 
	C249.963379,284.925812 249.993744,284.980927 250.283585,284.921570 
	C251.057678,284.434998 251.541931,284.007782 252.026184,283.580566 
z"/>
<path fill="#A2A6E4" opacity="1.000000" stroke="none" 
	d="
M328.151794,224.681458 
	C331.752411,224.471344 335.353058,224.261230 339.669189,223.906311 
	C341.725311,223.140793 343.065948,222.520096 344.406555,221.899399 
	C344.543152,222.881897 344.648865,223.869843 344.821198,224.846039 
	C346.162048,232.441284 346.165985,232.440582 338.680573,235.748871 
	C333.142334,237.196625 328.203033,238.377777 323.235687,239.426071 
	C316.476929,240.852417 310.128174,240.409119 304.850342,234.669434 
	C303.797974,230.902481 302.907867,227.459351 302.447388,224.015778 
	C307.947449,224.591461 313.006531,225.431870 318.092285,225.649948 
	C321.425476,225.792877 324.797272,225.035583 328.151794,224.681458 
z"/>
<path fill="#ABAFE7" opacity="1.000000" stroke="none" 
	d="
M305.012543,234.993256 
	C310.128174,240.409119 316.476929,240.852417 323.235687,239.426071 
	C328.203033,238.377777 333.142334,237.196625 338.471069,236.047913 
	C342.011139,238.494476 342.659210,241.043930 339.467438,244.123749 
	C338.343384,245.208359 337.791412,246.885773 336.407501,248.637329 
	C323.565063,248.325272 311.293365,247.668396 298.841248,246.728973 
	C297.786438,245.474106 297.054077,244.302155 296.014191,243.562424 
	C290.048645,239.318771 284.010101,235.177704 278.281067,230.811401 
	C282.882416,231.534714 287.173676,232.602448 291.522766,233.319382 
	C295.989929,234.055801 300.513611,234.449554 305.012543,234.993256 
z"/>
<path fill="#DBDDF5" opacity="1.000000" stroke="none" 
	d="
M240.898224,203.921768 
	C235.536545,200.903442 230.174881,197.885101 224.819473,194.602783 
	C234.236053,192.992813 243.098557,194.182449 251.149658,200.273193 
	C253.371109,204.321808 255.788254,207.932739 257.346466,211.882507 
	C259.277771,216.777985 260.497284,221.954239 262.038635,227.418915 
	C263.329315,231.272369 264.605682,234.716110 265.886078,238.552597 
	C266.836426,241.318329 267.782776,243.691330 268.753418,246.440826 
	C269.570160,248.879089 270.362549,250.940826 270.726379,253.004272 
	C268.586212,252.993622 266.874603,252.981277 264.960938,252.705582 
	C263.857697,250.955841 262.956543,249.469452 262.002686,247.617325 
	C259.978485,242.166016 258.006958,237.080444 256.025146,231.606354 
	C253.604218,224.938873 251.628876,218.439926 248.611084,212.467743 
	C246.941483,209.163620 243.526459,206.741486 240.898224,203.921768 
z"/>
<path fill="#A0A4E4" opacity="1.000000" stroke="none" 
	d="
M360.125916,195.791153 
	C367.556702,202.714584 366.855743,208.441422 357.959839,213.003326 
	C355.912354,214.053299 353.744965,214.869461 350.952637,215.636475 
	C343.992218,216.126907 337.844727,215.815369 331.866455,212.672455 
	C330.104431,209.615402 328.526611,206.840118 327.273712,203.844559 
	C330.856323,203.079926 334.169800,202.755753 337.360535,201.947281 
	C344.979767,200.016724 352.541168,197.857849 360.125916,195.791153 
z"/>
<path fill="#CDCFF0" opacity="1.000000" stroke="none" 
	d="
M286.767151,299.533508 
	C283.093292,301.364288 279.525635,303.199066 275.736725,304.175201 
	C269.750122,305.717560 264.279816,301.534851 265.218384,295.486847 
	C265.965698,290.671265 268.781250,286.176605 270.867493,281.248413 
	C277.182098,281.677979 283.307922,282.398651 289.878052,283.156250 
	C287.341217,288.113068 285.360596,293.255432 286.767151,299.533508 
z"/>
<path fill="#A2A6E4" opacity="1.000000" stroke="none" 
	d="
M299.021637,247.011505 
	C311.293365,247.668396 323.565063,248.325272 336.286682,248.975128 
	C337.123962,252.369370 337.511383,255.770615 337.455078,259.585571 
	C329.593933,259.999695 322.174835,259.907898 314.760040,260.046478 
	C311.833649,260.101166 308.916870,260.669312 305.741333,260.836090 
	C304.667572,259.775055 303.848145,258.881653 302.946960,257.632751 
	C301.584015,253.855362 300.302826,250.433426 299.021637,247.011505 
z"/>
<path fill="#BCBFEC" opacity="1.000000" stroke="none" 
	d="
M308.984619,154.999252 
	C319.181824,156.641617 329.397705,157.806702 339.541473,154.826675 
	C342.197906,154.046249 344.680084,152.672821 347.467651,151.331116 
	C347.210571,155.805344 346.728180,160.520187 345.691711,165.618240 
	C336.493011,166.676163 327.846069,167.323975 319.206604,168.059128 
	C318.108429,168.152573 317.049133,168.702713 315.734436,168.785934 
	C313.326202,164.020157 311.155396,159.509705 308.984619,154.999252 
z"/>
<path fill="#2A32C1" opacity="1.000000" stroke="none" 
	d="
M225.294403,294.079163 
	C223.473129,297.904755 221.651855,301.730377 219.639725,305.922913 
	C213.481384,302.998993 207.513885,299.708191 201.168854,295.880768 
	C198.849533,293.657837 196.993774,291.857391 194.945267,290.312561 
	C192.045914,288.126129 189.004288,286.128326 186.420776,284.031799 
	C190.877533,282.705444 194.936966,281.397156 199.329163,280.089233 
	C200.105530,280.089722 200.549179,280.089874 201.181915,280.361664 
	C209.345474,285.115265 217.319946,289.597229 225.294403,294.079163 
z"/>
<path fill="#ECEDFA" opacity="1.000000" stroke="none" 
	d="
M217.152649,196.394958 
	C216.362869,196.621918 215.579987,196.877182 214.782257,197.071533 
	C205.697235,199.285049 199.799728,196.949677 196.838196,189.976517 
	C194.056000,183.425613 196.536758,174.923706 203.723572,171.214127 
	C208.992126,168.494690 215.265717,167.722351 221.906494,166.146606 
	C229.116455,167.870728 235.511307,169.530457 242.111008,171.449341 
	C249.708054,176.173248 256.292358,181.507553 260.537354,188.977539 
	C259.453796,188.985596 258.730560,188.988052 257.729156,188.810211 
	C256.128235,187.377182 254.706512,186.212769 253.498444,184.857834 
	C243.767609,173.944138 231.431808,169.497314 216.642288,170.046783 
	C212.031097,171.334305 207.753525,172.424515 203.653275,173.981628 
	C199.859253,175.422440 199.503510,178.817444 200.173706,182.250061 
	C200.877640,185.855545 201.783829,189.503250 206.866119,189.881805 
	C210.393616,190.538834 213.631500,190.997116 216.897827,191.949158 
	C217.001740,193.760269 217.077194,195.077621 217.152649,196.394958 
z"/>
<path fill="#7378D6" opacity="1.000000" stroke="none" 
	d="
M262.010803,314.952148 
	C263.424866,315.307953 264.838959,315.663788 266.703613,316.390930 
	C269.781799,319.177338 272.409454,321.592438 275.037079,324.007568 
	C268.643494,323.989075 262.249939,323.970551 255.350922,323.547485 
	C253.475403,321.504150 252.095718,319.873352 250.736969,318.225281 
	C244.673187,310.870300 239.636780,302.982147 237.891373,293.392578 
	C241.674820,290.571014 245.458282,287.749420 249.602554,284.926819 
	C249.315689,287.361359 248.668015,289.796906 247.767731,292.949036 
	C245.539017,304.707092 251.153854,312.952362 262.010803,314.952148 
z"/>
<path fill="#A9ACE6" opacity="1.000000" stroke="none" 
	d="
M359.957703,195.510468 
	C352.541168,197.857849 344.979767,200.016724 337.360535,201.947281 
	C334.169800,202.755753 330.856323,203.079926 327.036438,203.580353 
	C325.312836,199.694183 324.151459,195.851944 323.338379,191.791443 
	C325.638702,191.380905 327.612000,191.310822 329.538940,190.974823 
	C337.123413,189.652283 344.693298,188.246124 352.268616,186.870987 
	C354.775543,189.657242 357.282501,192.443497 359.957703,195.510468 
z"/>
<path fill="#ABAFE7" opacity="1.000000" stroke="none" 
	d="
M303.028717,257.988281 
	C303.848145,258.881653 304.667572,259.775055 305.994415,261.077850 
	C310.047760,262.672485 313.519104,264.224121 317.155579,264.964844 
	C324.177521,266.395050 331.700958,265.658325 338.011139,270.028717 
	C336.671204,275.752472 331.884460,277.414307 326.851501,279.038452 
	C321.031311,276.281433 315.562561,273.686218 309.845367,270.841553 
	C304.065979,267.050140 298.535065,263.508179 292.855957,259.705750 
	C292.110168,258.641632 291.512573,257.837952 291.322388,257.057739 
	C295.496094,257.383545 299.262421,257.685913 303.028717,257.988281 
z"/>
<path fill="#B6BAEA" opacity="1.000000" stroke="none" 
	d="
M315.971832,169.041275 
	C317.049133,168.702713 318.108429,168.152573 319.206604,168.059128 
	C327.846069,167.323975 336.493011,166.676163 345.562531,165.997589 
	C346.393463,169.356567 346.799530,172.719406 346.826416,176.545670 
	C337.601624,178.010422 328.755951,179.011734 319.734558,179.858917 
	C319.337219,179.481613 319.141571,179.237610 318.835449,178.779327 
	C318.493774,178.342255 318.260498,178.129364 317.994751,177.706818 
	C317.990326,177.466461 317.965942,176.986267 317.946259,176.611389 
	C317.274994,173.838089 316.623413,171.439682 315.971832,169.041275 
z"/>
<path fill="#7D84DA" opacity="1.000000" stroke="none" 
	d="
M256.035431,231.994873 
	C258.006958,237.080444 259.978485,242.166016 261.645020,247.549774 
	C256.454437,245.512558 251.544800,243.225983 246.688980,240.830322 
	C239.393402,237.231003 238.579193,237.567413 236.373779,245.500458 
	C236.155640,246.285110 236.103836,247.115967 235.974823,247.925385 
	C235.537216,247.948318 235.099594,247.971237 234.145905,247.733459 
	C231.429077,245.342072 229.228348,243.211380 227.027618,241.080688 
	C229.192261,239.163773 231.356934,237.246841 234.159180,235.191711 
	C236.307495,235.469101 237.818237,235.884674 239.574966,236.367905 
	C240.798065,232.899567 241.918762,229.721603 243.126984,226.295486 
	C247.737015,228.330917 251.886215,230.162903 256.035431,231.994873 
z"/>
<path fill="#B3B6E9" opacity="1.000000" stroke="none" 
	d="
M319.910339,180.013046 
	C328.755951,179.011734 337.601624,178.010422 346.870117,176.968246 
	C348.867432,180.024017 350.441864,183.120636 352.142456,186.544128 
	C344.693298,188.246124 337.123413,189.652283 329.538940,190.974823 
	C327.612000,191.310822 325.638702,191.380905 323.153076,191.642761 
	C322.384674,191.497513 322.176697,191.259247 321.970703,190.602539 
	C321.267395,186.809357 320.588867,183.411194 319.910339,180.013046 
z"/>
<path fill="#CDCFF0" opacity="1.000000" stroke="none" 
	d="
M265.162994,252.968933 
	C266.874603,252.981277 268.586212,252.993622 270.941467,253.227432 
	C273.215607,254.998184 274.846130,256.547455 276.591522,258.446320 
	C280.052277,261.605072 283.398132,264.414276 286.994995,267.457306 
	C294.235413,270.392181 301.224854,273.093170 308.604919,275.867615 
	C313.152252,276.627533 317.331787,277.204315 321.452271,278.064178 
	C322.767975,278.338715 323.927032,279.364044 325.157745,280.045837 
	C315.461456,279.363861 305.765167,278.681885 295.669250,278.065491 
	C294.067627,277.788025 292.865631,277.445007 291.293549,277.022797 
	C289.869324,275.897461 288.939880,274.672272 287.739471,273.836121 
	C282.536682,270.212219 277.254730,266.701935 271.573547,262.663605 
	C269.151306,259.107574 267.157166,256.038239 265.162994,252.968933 
z"/>
<path fill="#E1EFFC" opacity="1.000000" stroke="none" 
	d="
M223.559875,400.426849 
	C226.465164,404.459167 229.157379,408.207520 232.072556,412.266296 
	C235.816498,406.468964 239.178421,401.263184 242.540359,396.057404 
	C243.030777,396.133179 243.521194,396.208984 244.011612,396.284760 
	C244.697006,405.138062 245.382401,413.991364 246.067795,422.844666 
	C245.403061,422.922150 244.738327,422.999664 244.073593,423.077179 
	C243.448944,416.252808 242.824295,409.428406 242.199661,402.604034 
	C241.885056,402.464355 241.570435,402.324646 241.255829,402.184967 
	C238.169815,407.120758 235.083786,412.056549 232.156540,416.738373 
	C228.734970,411.861816 225.408234,407.120422 222.081497,402.379028 
	C221.742676,402.433228 221.403854,402.487457 221.065048,402.541656 
	C221.464005,409.320862 221.862961,416.100067 222.261917,422.879272 
	C221.611435,422.908936 220.960938,422.938629 220.310440,422.968292 
	C219.610397,414.005219 218.910339,405.042175 218.210297,396.079132 
	C218.642227,395.881744 219.074173,395.684357 219.506104,395.486969 
	C220.786346,397.038940 222.066574,398.590942 223.559875,400.426849 
z"/>
<path fill="#E3F0FC" opacity="1.000000" stroke="none" 
	d="
M298.549683,347.242706 
	C302.226135,352.367310 305.656525,357.212402 309.272400,362.319458 
	C313.032654,356.512817 316.415588,351.288788 319.798553,346.064789 
	C320.289154,346.142883 320.779785,346.221008 321.270386,346.299103 
	C321.929291,355.119385 322.588165,363.939667 323.247070,372.759949 
	C322.602539,372.836243 321.958038,372.912537 321.313538,372.988800 
	C320.679779,366.341125 320.045990,359.693451 319.412201,353.045776 
	C319.036926,352.904266 318.661652,352.762756 318.286377,352.621216 
	C315.265717,357.401398 312.245026,362.181549 309.397675,366.687439 
	C306.085083,362.012238 302.874603,357.481171 299.664124,352.950104 
	C299.239838,353.074066 298.815552,353.198059 298.391266,353.322021 
	C298.765930,359.842926 299.140625,366.363831 299.515320,372.884735 
	C299.027313,372.940582 298.539337,372.996460 298.051331,373.052307 
	C297.733582,371.589569 297.245331,370.140411 297.127411,368.661743 
	C296.598877,362.032593 296.167603,355.395630 295.719482,348.760223 
	C295.585236,346.772797 295.268860,344.433990 298.549683,347.242706 
z"/>
<path fill="#E3F0FC" opacity="1.000000" stroke="none" 
	d="
M287.871643,353.068298 
	C286.147247,354.494476 284.289703,356.156860 282.917694,358.152985 
	C280.969513,360.987427 279.378632,364.067474 277.760651,366.828339 
	C274.382965,362.064850 271.171051,357.535126 267.959106,353.005432 
	C267.561249,353.121582 267.163391,353.237762 266.765533,353.353943 
	C267.081970,359.862701 267.398376,366.371460 267.714813,372.880219 
	C267.098175,372.900543 266.481506,372.920868 265.864868,372.941193 
	C265.152191,363.966248 264.439514,354.991302 263.726807,346.016388 
	C264.201385,345.817566 264.675995,345.618774 265.150574,345.419983 
	C269.206116,350.891296 273.261688,356.362610 277.583801,362.193573 
	C281.241882,356.550873 284.623413,351.334747 288.004974,346.118591 
	C288.535675,346.175903 289.066345,346.233215 289.597046,346.290497 
	C290.229706,355.100586 290.862335,363.910645 291.494995,372.720734 
	C290.944977,372.815033 290.394928,372.909332 289.844879,373.003632 
	C289.534912,370.960876 289.186890,368.923004 288.925446,366.874084 
	C288.652008,364.731384 288.403198,362.582184 288.251190,360.428223 
	C288.087494,358.107910 288.048615,355.778778 287.871643,353.068298 
z"/>
<path fill="#E1EFFC" opacity="1.000000" stroke="none" 
	d="
M163.683929,368.347809 
	C163.082199,360.644440 162.539581,353.384186 161.996948,346.123962 
	C162.428604,345.869507 162.860275,345.615021 163.291931,345.360565 
	C167.333160,350.762390 171.374374,356.164215 175.821854,362.109100 
	C179.531738,356.433594 182.913239,351.260468 186.294754,346.087311 
	C186.784332,346.141266 187.273911,346.195190 187.763489,346.249146 
	C188.445312,355.076477 189.127121,363.903809 189.808945,372.731171 
	C189.189224,372.830811 188.569504,372.930481 187.949783,373.030121 
	C187.574203,369.638519 187.161453,366.250488 186.833496,362.854279 
	C186.503571,359.437775 186.258026,356.013123 184.948929,352.209412 
	C181.869812,357.158234 178.790695,362.107086 175.910477,366.736237 
	C172.481003,361.870880 169.170303,357.174011 165.859604,352.477142 
	C165.524185,352.591461 165.188766,352.705750 164.853348,352.820068 
	C165.246796,359.456787 165.640259,366.093536 166.033722,372.730286 
	C165.569748,372.817902 165.105759,372.905518 164.641785,372.993134 
	C164.342209,371.592407 164.042633,370.191681 163.683929,368.347809 
z"/>
<path fill="#3039C3" opacity="1.000000" stroke="none" 
	d="
M186.023468,284.049896 
	C189.004288,286.128326 192.045914,288.126129 194.945267,290.312561 
	C196.993774,291.857391 198.849533,293.657837 200.899277,295.665894 
	C193.336258,295.021240 185.665314,294.054840 177.347275,292.790802 
	C174.107239,289.948914 171.514297,287.404633 168.921341,284.860382 
	C171.324097,282.581390 173.726837,280.302429 176.749725,278.110199 
	C180.254395,280.147949 183.138931,282.098938 186.023468,284.049896 
z"/>
<path fill="#888FDD" opacity="1.000000" stroke="none" 
	d="
M256.025146,231.606354 
	C251.886215,230.162903 247.737015,228.330917 243.126984,226.295486 
	C241.918762,229.721603 240.798065,232.899567 239.574966,236.367905 
	C237.818237,235.884674 236.307495,235.469101 234.453949,235.033386 
	C236.704330,231.034912 239.601120,227.217743 241.818878,223.040100 
	C245.073502,216.909348 244.556625,210.664566 240.991730,204.294861 
	C243.526459,206.741486 246.941483,209.163620 248.611084,212.467743 
	C251.628876,218.439926 253.604218,224.938873 256.025146,231.606354 
z"/>
<path fill="#A9ACE6" opacity="1.000000" stroke="none" 
	d="
M235.018661,133.034988 
	C235.018661,133.034988 234.955521,133.508911 234.937500,133.746780 
	C232.158081,134.258652 229.396667,134.532669 225.956879,134.766327 
	C223.181427,128.189133 221.084351,121.652321 218.987274,115.115494 
	C222.383316,114.799416 225.779358,114.483345 229.665436,114.498718 
	C231.776520,120.898445 233.397598,126.966721 235.018661,133.034988 
z"/>
<path fill="#595FCE" opacity="1.000000" stroke="none" 
	d="
M205.576111,255.985870 
	C210.733276,259.167389 215.569427,262.460693 220.528809,266.184570 
	C217.769745,269.079529 214.887436,271.543884 211.751190,274.015381 
	C211.327988,274.028809 211.158737,274.035095 210.756424,273.801270 
	C205.668488,270.035095 200.813614,266.509003 195.958740,262.982941 
	C199.057526,260.687836 202.156311,258.392731 205.576111,255.985870 
z"/>
<path fill="#4B51CA" opacity="1.000000" stroke="none" 
	d="
M195.650055,263.116577 
	C200.813614,266.509003 205.668488,270.035095 210.514160,274.030884 
	C207.334229,276.363739 204.163528,278.226898 200.992828,280.090027 
	C200.549179,280.089874 200.105530,280.089722 199.102173,279.838013 
	C194.641373,276.335327 190.740280,273.084167 186.839188,269.833008 
	C189.673248,267.638763 192.507309,265.444489 195.650055,263.116577 
z"/>
<path fill="#DCEDFC" opacity="1.000000" stroke="none" 
	d="
M282.318909,397.347839 
	C290.546478,402.058136 293.028351,411.124390 288.523682,418.879639 
	C285.982605,423.254364 277.188263,426.065735 273.017181,423.549347 
	C272.025024,422.950775 271.422272,421.094360 271.305511,419.758362 
	C270.641663,412.161926 270.179443,404.547913 269.577240,395.915894 
	C273.987244,396.366547 277.975067,396.774017 282.318909,397.347839 
M287.589233,405.518860 
	C283.739197,399.015411 278.760345,397.060608 272.166626,399.569641 
	C272.558228,405.646851 272.826843,411.782257 273.447113,417.881927 
	C273.580719,419.196136 274.744598,421.163025 275.839874,421.496674 
	C282.049957,423.388611 287.258972,419.778717 287.964447,413.252502 
	C288.211548,410.966766 287.914825,408.622192 287.589233,405.518860 
z"/>
<path fill="#DCEDFC" opacity="1.000000" stroke="none" 
	d="
M367.556030,356.799591 
	C367.673431,359.179443 367.940460,361.205017 367.633484,363.139465 
	C366.142242,372.536835 360.273499,375.743103 348.867157,373.096558 
	C348.204407,364.551056 347.527710,355.826172 346.854858,347.150452 
	C357.204803,344.337402 364.176300,347.538544 367.556030,356.799591 
M349.788727,353.681976 
	C350.167633,359.558258 350.546509,365.434540 350.942688,371.578583 
	C355.974121,371.579559 360.609467,372.763794 363.397797,368.270752 
	C366.066895,363.969879 366.459930,359.184204 364.256805,354.499908 
	C362.172699,350.068634 358.115662,348.766266 353.613251,348.393677 
	C350.399261,348.127747 348.887939,349.398193 349.788727,353.681976 
z"/>
<path fill="#BCBFEC" opacity="1.000000" stroke="none" 
	d="
M332.050629,212.954208 
	C337.844727,215.815369 343.992218,216.126907 350.591553,215.661255 
	C348.850677,217.643738 346.790802,219.444672 344.568726,221.572510 
	C343.065948,222.520096 341.725311,223.140793 340.061890,223.846100 
	C338.003479,223.660049 336.262329,223.128967 334.533356,223.166031 
	C328.558746,223.294189 324.137604,220.872406 321.353394,215.029831 
	C323.105865,213.965866 324.739807,213.325500 326.429199,213.098923 
	C328.276245,212.851181 330.174622,212.986084 332.050629,212.954208 
z"/>
<path fill="#A2A6E4" opacity="1.000000" stroke="none" 
	d="
M218.560669,115.055061 
	C221.084351,121.652321 223.181427,128.189133 225.597870,134.843964 
	C221.877045,136.572479 217.836899,138.182999 213.407257,139.394470 
	C212.986435,137.948639 212.955078,136.901886 213.121185,135.576721 
	C219.509323,126.586838 217.100800,120.273697 207.025024,118.410591 
	C207.027496,116.620468 207.037857,115.242012 207.048203,113.863564 
	C210.743484,114.240585 214.438782,114.617599 218.560669,115.055061 
z"/>
<path fill="#686ED3" opacity="1.000000" stroke="none" 
	d="
M237.587769,293.572205 
	C239.636780,302.982147 244.673187,310.870300 250.736969,318.225281 
	C252.095718,319.873352 253.475403,321.504150 254.940475,323.453003 
	C251.507858,322.726074 247.980225,321.689087 244.074677,320.094666 
	C238.970825,314.307068 235.268677,308.589386 234.613724,301.301788 
	C234.541428,300.497467 233.572083,299.773712 233.018768,299.012604 
	C234.440582,297.259003 235.862381,295.505402 237.587769,293.572205 
z"/>
<path fill="#E1EFFC" opacity="1.000000" stroke="none" 
	d="
M214.444122,352.835510 
	C217.335754,359.191528 215.979675,364.578796 211.890076,369.393036 
	C209.011948,372.781158 205.250931,373.597504 201.021973,372.401001 
	C196.715912,371.182678 193.919815,368.392517 193.861618,363.899719 
	C193.812912,360.139893 194.035294,356.167389 195.204178,352.642761 
	C197.985687,344.255554 205.890854,342.813141 211.909729,349.281616 
	C212.805969,350.244843 213.473663,351.420624 214.444122,352.835510 
M201.089157,370.072388 
	C207.728409,371.263794 211.339905,368.983826 213.252136,362.393829 
	C214.829224,356.958740 211.866425,349.780823 206.876007,348.353210 
	C204.768448,347.750305 201.669022,348.104248 199.895233,349.310089 
	C194.298508,353.114746 194.742264,365.768677 201.089157,370.072388 
z"/>
<path fill="#DFE8FE" opacity="1.000000" stroke="none" 
	d="
M217.544281,196.330780 
	C217.077194,195.077621 217.001740,193.760269 217.112518,191.767227 
	C218.196243,190.377106 219.093735,189.662689 220.119263,189.262756 
	C221.421921,189.807831 222.700684,190.462769 223.755203,190.203949 
	C235.541718,187.311264 246.063309,189.240356 254.964966,198.238770 
	C255.047729,198.655090 255.078369,198.822083 254.775436,199.124054 
	C253.282669,199.501297 252.123489,199.743576 250.964310,199.985840 
	C243.098557,194.182449 234.236053,192.992813 224.455017,194.493500 
	C222.034851,195.187653 219.985367,195.727142 217.544281,196.330780 
z"/>
<path fill="#E1EFFC" opacity="1.000000" stroke="none" 
	d="
M211.214447,401.267334 
	C211.168381,399.409515 211.168381,397.997589 211.168381,396.585663 
	C211.772903,396.541992 212.377426,396.498291 212.981949,396.454590 
	C213.690521,405.248657 214.399094,414.042725 215.107666,422.836761 
	C214.507706,422.921112 213.907730,423.005493 213.307770,423.089844 
	C212.731110,419.031616 212.154434,414.973389 211.507202,410.418518 
	C207.636154,410.418518 203.612869,410.418518 199.236862,410.418518 
	C199.236862,414.712067 199.236862,418.814484 199.236862,422.916901 
	C198.653854,422.938721 198.070847,422.960541 197.487839,422.982361 
	C196.863266,414.180389 196.238693,405.378418 195.614120,396.576477 
	C196.206802,396.488922 196.799484,396.401398 197.392181,396.313843 
	C197.884094,399.993469 198.375992,403.673065 198.903885,407.621826 
	C203.081528,407.621826 207.134628,407.621826 211.720993,407.621826 
	C211.558792,405.540558 211.409653,403.626892 211.214447,401.267334 
z"/>
<path fill="#A0A4E4" opacity="1.000000" stroke="none" 
	d="
M338.248779,269.710846 
	C331.700958,265.658325 324.177521,266.395050 317.155579,264.964844 
	C313.519104,264.224121 310.047760,262.672485 306.248779,261.245453 
	C308.916870,260.669312 311.833649,260.101166 314.760040,260.046478 
	C322.174835,259.907898 329.593933,259.999695 337.451294,259.998688 
	C338.089630,263.129761 338.288025,266.261353 338.248779,269.710846 
z"/>
<path fill="#E3F0FC" opacity="1.000000" stroke="none" 
	d="
M220.195679,371.367432 
	C219.547379,362.820221 218.969345,354.670959 218.391296,346.521729 
	C218.977646,346.454346 219.563995,346.386993 220.150345,346.319641 
	C220.634247,350.041718 221.118149,353.763824 221.627106,357.678711 
	C225.737793,357.678711 229.804810,357.678711 234.075104,357.678711 
	C234.075104,353.841156 234.075104,350.247070 234.075104,346.653015 
	C234.614456,346.604797 235.153824,346.556549 235.693176,346.508301 
	C236.422226,355.245178 237.151276,363.982086 237.880325,372.718964 
	C237.239410,372.808167 236.598511,372.897369 235.957596,372.986572 
	C235.442780,368.932495 234.927979,364.878418 234.357925,360.389313 
	C230.235031,360.389313 226.224136,360.389313 221.713654,360.389313 
	C221.934250,364.217163 222.168900,367.657532 222.241013,371.101318 
	C222.245361,371.308777 220.954239,371.543396 220.195679,371.367432 
z"/>
<path fill="#E1EFFC" opacity="1.000000" stroke="none" 
	d="
M173.571411,419.236420 
	C174.339401,416.779297 176.932510,414.480042 172.482620,412.605743 
	C180.743362,410.106354 178.836273,401.363281 184.444382,395.995117 
	C187.805389,405.398254 190.990387,414.308960 194.175369,423.219666 
	C193.661819,423.448669 193.148285,423.677673 192.634735,423.906647 
	C191.541977,421.501190 190.166138,419.179504 189.423264,416.670471 
	C188.328613,412.973267 185.525574,413.249603 182.680008,413.034485 
	C179.794098,412.816284 178.039810,413.735260 177.069550,416.631348 
	C176.224487,419.153778 174.810989,421.485748 173.648636,423.901886 
	C173.186142,423.711945 172.723663,423.522034 172.261169,423.332123 
	C172.639725,422.076172 173.018265,420.820251 173.571411,419.236420 
M180.268387,410.602234 
	C182.457077,410.707336 184.645767,410.812408 187.577896,410.953217 
	C186.209732,407.238739 185.135895,404.323364 183.633118,400.243408 
	C182.124954,404.302399 181.100922,407.058411 180.268387,410.602234 
z"/>
<path fill="#E3F0FC" opacity="1.000000" stroke="none" 
	d="
M250.982880,417.972778 
	C250.471191,410.620819 249.981293,403.699066 249.461716,396.358093 
	C255.665894,396.358093 261.424377,396.358093 267.182861,396.358093 
	C267.207458,396.873474 267.232025,397.388855 267.256622,397.904236 
	C262.358215,397.904236 257.459839,397.904236 251.903366,397.904236 
	C252.189819,402.036713 252.411514,405.235016 252.657104,408.778137 
	C255.574631,408.778137 257.910248,408.778137 260.245850,408.778137 
	C260.300995,409.191101 260.356110,409.604095 260.411224,410.017059 
	C258.138428,410.435852 255.865662,410.854645 253.312164,411.325165 
	C253.312164,414.250092 253.312164,417.291901 253.312164,421.289246 
	C258.579468,421.289246 263.445160,421.289246 268.310822,421.289246 
	C268.296295,421.944122 268.281769,422.598999 268.267242,423.253876 
	C263.263184,423.253876 258.237427,423.490295 253.275055,423.035431 
	C252.384216,422.953796 251.754807,420.019958 250.982880,417.972778 
z"/>
<path fill="#959CE2" opacity="1.000000" stroke="none" 
	d="
M212.923706,135.855118 
	C212.955078,136.901886 212.986435,137.948639 213.027618,139.387299 
	C212.875763,139.811996 212.715469,139.862656 212.552246,139.875061 
	C206.773834,140.314102 200.624878,141.338120 196.982651,135.295685 
	C193.295273,129.178360 196.038086,123.508438 199.315704,118.173080 
	C200.423569,116.369720 201.979645,114.841705 203.639145,113.038528 
	C204.801300,113.087151 205.655212,113.285095 206.778656,113.673309 
	C207.037857,115.242012 207.027496,116.620468 206.706329,118.577805 
	C198.195068,122.140640 198.612793,129.761520 202.842056,134.238297 
	C205.783829,137.352234 209.370361,136.516953 212.923706,135.855118 
z"/>
<path fill="#E3F0FC" opacity="1.000000" stroke="none" 
	d="
M342.395081,348.085938 
	C337.853333,348.062531 333.737976,348.062531 329.033203,348.062531 
	C329.416626,352.098083 329.723572,355.328827 330.045288,358.714966 
	C332.747406,358.714966 335.124115,358.714966 337.500824,358.714966 
	C337.567535,359.102173 337.634216,359.489380 337.700928,359.876587 
	C335.337189,360.377472 332.973450,360.878357 329.946075,361.519836 
	C330.209686,364.404388 330.486755,367.435883 330.829376,371.185181 
	C335.966888,371.185181 340.792358,371.185181 345.617798,371.185181 
	C345.632111,371.660187 345.646423,372.135223 345.660736,372.610229 
	C340.256836,372.610229 334.852966,372.610229 328.640350,372.610229 
	C328.014404,364.322113 327.357117,355.619263 326.625793,345.935516 
	C332.187561,345.935516 337.270111,345.877533 342.348236,346.001678 
	C343.062500,346.019135 343.755005,346.927460 344.457611,347.423431 
	C343.912231,347.652069 343.366882,347.880676 342.395081,348.085938 
z"/>
<path fill="#E1EFFC" opacity="1.000000" stroke="none" 
	d="
M244.205627,368.207703 
	C243.137634,370.350159 242.211884,372.143585 241.049988,374.394501 
	C238.354874,369.736450 246.682129,366.337982 240.468887,362.391998 
	C248.804398,360.087830 246.373688,350.853790 252.351349,346.229828 
	C255.607742,355.444519 258.739746,364.307220 261.871735,373.169922 
	C261.394012,373.395020 260.916321,373.620117 260.438599,373.845184 
	C259.536285,371.955780 258.418060,370.136108 257.779938,368.161316 
	C256.695007,364.803772 254.964203,363.118896 251.074661,362.935120 
	C247.043060,362.744537 245.342087,364.514008 244.205627,368.207703 
M250.643311,352.482117 
	C249.625000,355.125244 248.606674,357.768341 247.513779,360.605042 
	C250.437256,360.605042 252.585815,360.605042 255.767365,360.605042 
	C253.919403,357.209778 252.459641,354.527710 250.643311,352.482117 
z"/>
<path fill="#A0A4E4" opacity="1.000000" stroke="none" 
	d="
M241.906158,171.190170 
	C235.511307,169.530457 229.116455,167.870728 222.326324,166.101959 
	C225.753754,162.091446 229.576477,158.189972 233.848877,154.381424 
	C237.190369,157.653748 240.082169,160.833145 243.014725,164.264771 
	C243.082657,164.685165 243.109848,164.853317 243.120850,165.346359 
	C243.125961,166.104004 243.147232,166.536774 243.132965,167.343231 
	C242.700333,168.874680 242.303238,170.032425 241.906158,171.190170 
z"/>
<path fill="#3B42C5" opacity="1.000000" stroke="none" 
	d="
M186.523529,269.949677 
	C190.740280,273.084167 194.641373,276.335327 198.769440,279.837708 
	C194.936966,281.397156 190.877533,282.705444 186.420776,284.031799 
	C183.138931,282.098938 180.254395,280.147949 177.063538,277.998230 
	C179.907440,275.221802 183.057663,272.644073 186.523529,269.949677 
z"/>
<path fill="#7D84DA" opacity="1.000000" stroke="none" 
	d="
M275.444244,324.010925 
	C272.409454,321.592438 269.781799,319.177338 267.065796,316.441040 
	C271.410736,314.778717 275.844055,313.437500 280.756714,312.335327 
	C285.241058,314.081726 289.246063,315.589111 293.251038,317.096497 
	C287.451141,319.402405 281.651276,321.708344 275.444244,324.010925 
z"/>
<path fill="#A9ACE6" opacity="1.000000" stroke="none" 
	d="
M242.973984,164.012527 
	C240.082169,160.833145 237.190369,157.653748 234.117950,154.181549 
	C235.012726,149.843674 236.088120,145.798599 237.264374,141.328186 
	C238.359543,141.606567 239.353867,142.310303 240.870575,143.209229 
	C243.270187,146.271957 245.147385,149.139496 246.866150,152.326477 
	C245.463135,156.434784 244.218567,160.223663 242.973984,164.012527 
z"/>
<path fill="#7378D6" opacity="1.000000" stroke="none" 
	d="
M226.724579,241.224213 
	C229.228348,243.211380 231.429077,245.342072 233.817749,247.751587 
	C230.818848,257.421265 228.885757,258.107086 220.799576,252.459976 
	C219.392242,251.477142 218.358688,249.959106 217.076035,248.353241 
	C220.140228,245.801392 223.280884,243.584564 226.724579,241.224213 
z"/>
<path fill="#1A24BD" opacity="1.000000" stroke="none" 
	d="
M232.801117,299.273071 
	C233.572083,299.773712 234.541428,300.497467 234.613724,301.301788 
	C235.268677,308.589386 238.970825,314.307068 243.803802,319.869446 
	C238.048721,317.304596 232.186600,314.407471 226.109192,311.242188 
	C228.123764,307.160492 230.353607,303.347015 232.801117,299.273071 
z"/>
<path fill="#F2F8FD" opacity="1.000000" stroke="none" 
	d="
M173.872162,149.253494 
	C175.891296,152.882172 175.413895,156.099258 172.105759,157.613388 
	C170.311935,158.434418 166.698563,158.067322 165.544250,156.773987 
	C164.182693,155.248444 163.709991,151.830368 164.430862,149.790878 
	C165.657852,146.319443 169.467453,146.225998 173.872162,149.253494 
z"/>
<path fill="#888FDD" opacity="1.000000" stroke="none" 
	d="
M293.527893,316.984497 
	C289.246063,315.589111 285.241058,314.081726 281.112854,312.244141 
	C283.252319,309.436523 285.515015,306.959137 287.956604,304.188110 
	C290.186920,306.906525 292.408264,309.823242 294.184448,312.989685 
	C294.706421,313.920166 293.966431,315.558563 293.527893,316.984497 
z"/>
<path fill="#1A24BD" opacity="1.000000" stroke="none" 
	d="
M168.635590,285.043793 
	C171.514297,287.404633 174.107239,289.948914 176.888184,292.780273 
	C173.705978,293.754761 170.340576,294.466644 166.964340,295.122925 
	C163.149948,295.864471 162.293900,293.908875 163.792480,290.964050 
	C164.877945,288.831085 166.800537,287.124146 168.635590,285.043793 
z"/>
<path fill="#DCEDFC" opacity="1.000000" stroke="none" 
	d="
M315.725098,404.171051 
	C320.675720,405.897736 325.274628,407.652710 329.873535,409.407684 
	C329.873047,409.886658 329.872528,410.365601 329.872040,410.844574 
	C325.122620,413.336487 320.373230,415.828400 315.623840,418.320312 
	C315.335510,417.865021 315.047150,417.409729 314.758820,416.954468 
	C318.081055,414.817322 321.403290,412.680145 325.527710,410.026978 
	C322.511871,408.862640 319.818573,407.979736 317.288544,406.758514 
	C316.436829,406.347412 315.999878,405.076996 315.725098,404.171051 
z"/>
<path fill="#E1EFFC" opacity="1.000000" stroke="none" 
	d="
M141.621964,355.662292 
	C143.886993,355.069153 145.797241,354.615723 147.707489,354.162262 
	C147.842468,354.622375 147.977448,355.082489 148.112427,355.542572 
	C144.568008,356.958588 141.023575,358.374603 136.915604,360.015778 
	C140.917450,362.513489 144.370102,364.668457 147.822769,366.823425 
	C147.546173,367.303162 147.269577,367.782898 146.992981,368.262634 
	C142.328186,365.860535 137.663391,363.458405 131.731537,360.403839 
	C135.551758,358.560211 138.409470,357.181091 141.621964,355.662292 
z"/>
<path fill="#DCEDFC" opacity="1.000000" stroke="none" 
	d="
M308.190613,408.073486 
	C309.448700,403.825653 310.584625,399.964661 311.720551,396.103699 
	C312.315216,396.272522 312.909882,396.441376 313.504547,396.610199 
	C311.140228,405.439728 308.775909,414.269257 306.411560,423.098785 
	C305.785553,422.966278 305.159515,422.833771 304.533508,422.701263 
	C305.711823,417.954285 306.890137,413.207275 308.190613,408.073486 
z"/>
<path fill="#F2F8FD" opacity="1.000000" stroke="none" 
	d="
M166.766022,230.432404 
	C168.757812,229.086578 170.657547,227.452148 172.625549,227.365326 
	C173.465607,227.328293 175.264084,230.602020 175.104187,232.220856 
	C174.979370,233.484421 171.871628,235.755829 171.191956,235.410339 
	C169.377762,234.488144 168.157776,232.396927 166.766022,230.432404 
z"/>
<path fill="#F2F8FD" opacity="1.000000" stroke="none" 
	d="
M176.617249,116.071037 
	C181.792770,116.228050 184.196823,118.809113 182.257538,121.935402 
	C181.445663,123.244247 179.540726,124.488045 178.059982,124.579208 
	C176.828033,124.655045 174.420135,123.005508 174.416809,122.113182 
	C174.409424,120.141991 175.588806,118.166367 176.617249,116.071037 
z"/>
<path fill="#F2F8FD" opacity="1.000000" stroke="none" 
	d="
M140.229309,183.312546 
	C144.027069,183.349335 146.087311,185.131348 145.383026,188.539200 
	C145.105469,189.882263 143.094818,191.616791 141.715240,191.772552 
	C140.323425,191.929688 138.019592,190.711548 137.385651,189.455017 
	C136.142700,186.991425 136.914047,184.570084 140.229309,183.312546 
z"/>
<path fill="#2088EA" opacity="1.000000" stroke="none" 
	d="
M325.346252,280.015533 
	C323.927032,279.364044 322.767975,278.338715 321.452271,278.064178 
	C317.331787,277.204315 313.152252,276.627533 308.581909,275.539886 
	C308.810120,273.789459 309.451965,272.440247 310.093811,271.091003 
	C315.562561,273.686218 321.031311,276.281433 326.512543,279.268250 
	C326.194916,279.768311 325.864838,279.876770 325.346252,280.015533 
z"/>
<path fill="#E2E4F8" opacity="1.000000" stroke="none" 
	d="
M345.737427,139.658310 
	C340.758850,135.645111 336.956390,130.629578 336.967224,123.252251 
	C339.934479,128.370087 342.830688,133.832825 345.737427,139.658310 
z"/>
<path fill="#E2E4F8" opacity="1.000000" stroke="none" 
	d="
M336.472534,121.775909 
	C336.335449,121.825142 336.194885,121.689445 336.013855,121.393539 
	C336.170288,121.298332 336.335480,121.417549 336.472534,121.775909 
z"/>
<path fill="#BCBFEC" opacity="1.000000" stroke="none" 
	d="
M347.376465,147.802917 
	C347.104889,147.790894 347.009888,147.545135 347.053833,147.064667 
	C347.337341,147.054657 347.457428,147.301056 347.376465,147.802917 
z"/>
<path fill="#E2E4F8" opacity="1.000000" stroke="none" 
	d="
M335.788086,120.799721 
	C335.583527,120.853241 335.380524,120.632118 335.113159,120.174660 
	C335.348999,120.053635 335.595947,120.249222 335.788086,120.799721 
z"/>
<path fill="#2088EA" opacity="1.000000" stroke="none" 
	d="
M213.551208,213.438263 
	C217.068512,216.247559 217.694183,220.990036 215.071335,223.385223 
	C209.422226,228.543945 203.737305,233.665787 197.975494,238.697891 
	C194.589752,241.654861 191.518219,240.723419 190.267044,236.374115 
	C187.833511,227.914749 185.468552,219.434357 183.197983,210.929901 
	C181.999603,206.441284 183.921249,204.598587 188.354553,205.889297 
	C196.642776,208.302368 204.905029,210.804672 213.551208,213.438263 
z"/>
<path fill="#2088EA" opacity="1.000000" stroke="none" 
	d="
M185.190933,156.316849 
	C186.084946,151.933563 184.864487,147.009140 190.283371,145.260880 
	C191.428650,144.891373 192.727844,144.235916 193.782745,144.475510 
	C199.772751,145.836136 205.739716,147.325592 211.642075,149.023102 
	C212.923538,149.391647 213.909088,150.789154 215.649109,152.221664 
	C206.364578,156.749496 198.057602,160.915253 189.638596,164.840805 
	C186.891800,166.121567 185.157944,164.613144 184.891357,161.743912 
	C184.738937,160.103470 185.033325,158.421494 185.190933,156.316849 
z"/>
<path fill="#C7CAEF" opacity="1.000000" stroke="none" 
	d="
M341.014648,141.577057 
	C312.361938,152.652557 280.406219,132.262131 276.036865,104.333740 
	C277.686493,105.269691 279.707458,106.340034 280.918945,108.000862 
	C288.283112,118.096344 298.259369,122.724953 310.542358,121.929848 
	C325.537170,120.959206 334.973358,128.231537 341.014648,141.577057 
z"/>
<path fill="#B3B6E9" opacity="1.000000" stroke="none" 
	d="
M235.366180,132.903427 
	C233.397598,126.966721 231.776520,120.898445 230.071381,114.464500 
	C237.087860,110.799110 244.188400,107.499397 251.642776,104.549225 
	C252.314529,106.860306 252.456985,108.870331 252.983185,110.774284 
	C254.572052,116.523247 256.309967,122.231010 257.989777,127.954834 
	C250.564423,129.560516 243.139053,131.166183 235.366180,132.903427 
z"/>
<path fill="#BCBFEC" opacity="1.000000" stroke="none" 
	d="
M258.439941,127.986908 
	C256.309967,122.231010 254.572052,116.523247 252.983185,110.774284 
	C252.456985,108.870331 252.314529,106.860306 251.992279,104.488144 
	C255.367828,102.997635 258.747711,101.917770 262.528503,100.803528 
	C265.354614,108.606102 267.757812,116.450012 270.225555,124.273544 
	C270.664429,125.664902 271.371552,126.971642 271.984009,128.691345 
	C267.638824,128.716492 263.264496,128.367737 258.439941,127.986908 
z"/>
<path fill="#BCBFEC" opacity="1.000000" stroke="none" 
	d="
M243.014725,164.264771 
	C244.218567,160.223663 245.463135,156.434784 247.149887,152.144333 
	C251.055344,150.090149 254.518616,148.537552 258.161407,147.269012 
	C269.944580,162.048035 288.720825,174.652115 296.571106,172.865875 
	C290.750641,163.401337 283.305054,155.794907 273.969452,149.632538 
	C272.485382,147.205582 270.960999,145.179291 269.584290,143.057205 
	C268.307831,141.089645 267.189209,139.019714 266.001068,136.994858 
	C274.426392,137.312836 280.859039,141.421799 285.899536,147.829147 
	C295.333496,159.821365 300.206543,174.014709 304.652222,188.575256 
	C303.471619,188.773544 302.612122,188.731506 301.849915,188.437363 
	C292.892303,184.980286 283.949310,181.485428 274.792786,177.705292 
	C272.301514,172.143738 270.680389,166.445953 267.586731,161.710114 
	C262.695007,154.221802 251.760284,154.439697 246.366501,161.461502 
	C245.393768,162.727844 244.218689,163.838791 243.137024,165.021469 
	C243.109848,164.853317 243.082657,164.685165 243.014725,164.264771 
z"/>
<path fill="#B6BAEA" opacity="1.000000" stroke="none" 
	d="
M275.002441,178.000534 
	C283.949310,181.485428 292.892303,184.980286 301.849915,188.437363 
	C302.612122,188.731506 303.471619,188.773544 304.687866,188.954163 
	C306.604584,192.758835 308.119354,196.542068 309.306396,200.666229 
	C306.852692,200.798676 304.631256,200.915253 302.617493,200.324326 
	C294.710297,198.004044 286.868500,195.460876 278.805359,192.771698 
	C278.075256,191.694138 277.542236,190.845352 276.927917,189.611145 
	C276.231873,185.484009 275.617157,181.742264 275.002441,178.000534 
z"/>
<path fill="#B3B6E9" opacity="1.000000" stroke="none" 
	d="
M279.002441,193.000473 
	C286.868500,195.460876 294.710297,198.004044 302.617493,200.324326 
	C304.631256,200.915253 306.852692,200.798676 309.398987,201.010742 
	C311.825500,205.114624 313.831726,209.214920 315.532532,213.645782 
	C310.150970,213.317398 305.074890,212.658432 299.788757,211.810425 
	C299.054932,211.080994 298.531128,210.540588 297.826416,209.715729 
	C295.095306,207.605133 292.567841,205.746170 289.989746,203.960281 
	C285.664856,200.964401 280.509369,198.816360 279.002441,193.000473 
z"/>
<path fill="#B3B6E9" opacity="1.000000" stroke="none" 
	d="
M265.544067,136.949158 
	C267.189209,139.019714 268.307831,141.089645 269.584290,143.057205 
	C270.960999,145.179291 272.485382,147.205582 273.645142,149.474686 
	C268.386078,147.852814 263.661072,144.694885 257.981873,146.984940 
	C254.518616,148.537552 251.055344,150.090149 247.308334,151.824890 
	C245.147385,149.139496 243.270187,146.271957 241.152344,143.157013 
	C248.346100,138.395676 256.374054,136.270950 265.544067,136.949158 
z"/>
<path fill="#D4D6F3" opacity="1.000000" stroke="none" 
	d="
M315.734436,168.785934 
	C316.623413,171.439682 317.274994,173.838089 317.587524,176.575409 
	C316.164246,175.621460 314.704163,174.489319 314.069305,173.004395 
	C312.440979,169.195602 310.016754,167.577332 305.946533,169.049255 
	C300.660889,158.949875 295.375275,148.850479 290.007324,138.418152 
	C297.932892,141.506744 304.103333,147.007645 308.746460,154.752869 
	C311.155396,159.509705 313.326202,164.020157 315.734436,168.785934 
z"/>
<path fill="#C5C7EE" opacity="1.000000" stroke="none" 
	d="
M331.866455,212.672455 
	C330.174622,212.986084 328.276245,212.851181 326.429199,213.098923 
	C324.739807,213.325500 323.105865,213.965866 321.217926,214.717957 
	C318.017334,207.268326 315.046326,199.524643 312.507446,191.391968 
	C315.958221,191.001160 318.976868,190.999359 321.995514,190.997559 
	C322.176697,191.259247 322.384674,191.497513 322.804779,191.861053 
	C324.151459,195.851944 325.312836,199.694183 326.711487,203.800629 
	C328.526611,206.840118 330.104431,209.615402 331.866455,212.672455 
z"/>
<path fill="#ABAFE7" opacity="1.000000" stroke="none" 
	d="
M299.998779,211.999481 
	C305.074890,212.658432 310.150970,213.317398 315.662689,213.971863 
	C319.940247,217.404861 323.782166,220.842346 327.887939,224.480652 
	C324.797272,225.035583 321.425476,225.792877 318.092285,225.649948 
	C313.006531,225.431870 307.947449,224.591461 302.439819,223.760574 
	C301.998901,223.335800 301.995178,223.165756 301.991455,222.582260 
	C301.327240,218.779022 300.663025,215.389236 299.998779,211.999481 
z"/>
<path fill="#CDCFF0" opacity="1.000000" stroke="none" 
	d="
M321.970703,190.602539 
	C318.976868,190.999359 315.958221,191.001160 312.489624,191.004974 
	C310.036255,183.944153 308.032806,176.881332 305.987946,169.433884 
	C310.016754,167.577332 312.440979,169.195602 314.069305,173.004395 
	C314.704163,174.489319 316.164246,175.621460 317.607178,176.950287 
	C317.965942,176.986267 317.990326,177.466461 318.134338,177.899307 
	C318.481049,178.576492 318.712250,178.790039 318.971893,178.972778 
	C319.141571,179.237610 319.337219,179.481613 319.734589,179.858917 
	C320.588867,183.411194 321.267395,186.809357 321.970703,190.602539 
z"/>
<path fill="#D4D6F3" opacity="1.000000" stroke="none" 
	d="
M286.260620,136.222931 
	C287.263794,136.457031 288.434784,136.978088 289.773895,137.788177 
	C288.770844,137.554794 287.599609,137.032349 286.260620,136.222931 
z"/>
<path fill="#7378D6" opacity="1.000000" stroke="none" 
	d="
M264.960938,252.705582 
	C267.157166,256.038239 269.151306,259.107574 271.302979,262.488892 
	C266.449127,261.308380 261.254547,260.247955 256.470154,258.219971 
	C249.643219,255.326218 243.116852,251.723404 236.218475,248.174408 
	C236.103836,247.115967 236.155640,246.285110 236.373779,245.500458 
	C238.579193,237.567413 239.393402,237.231003 246.688980,240.830322 
	C251.544800,243.225983 256.454437,245.512558 261.697693,247.915497 
	C262.956543,249.469452 263.857697,250.955841 264.960938,252.705582 
z"/>
<path fill="#595FCE" opacity="1.000000" stroke="none" 
	d="
M257.746368,272.285156 
	C252.773605,274.160309 247.607834,275.717651 241.750549,277.166321 
	C234.707855,273.380066 228.356628,269.702454 222.005417,266.024872 
	C228.503677,257.696350 228.484070,257.735718 237.898682,262.424744 
	C244.417435,265.671478 250.999542,268.791016 257.746368,272.285156 
z"/>
<path fill="#4B51CA" opacity="1.000000" stroke="none" 
	d="
M221.760864,266.034241 
	C228.356628,269.702454 234.707855,273.380066 241.425171,277.273010 
	C238.436691,280.299316 235.082092,283.110291 231.230850,285.771942 
	C224.491196,281.751160 218.248169,277.879700 212.005142,274.008240 
	C214.887436,271.543884 217.769745,269.079529 220.839890,266.343750 
	C221.027740,266.072327 221.516327,266.043610 221.760864,266.034241 
z"/>
<path fill="#3B42C5" opacity="1.000000" stroke="none" 
	d="
M211.751190,274.015381 
	C218.248169,277.879700 224.491196,281.751160 230.926743,285.919220 
	C229.359955,288.720398 227.600632,291.224976 225.567871,293.904358 
	C217.319946,289.597229 209.345474,285.115265 201.181915,280.361694 
	C204.163528,278.226898 207.334229,276.363739 210.747223,274.270966 
	C211.158737,274.035095 211.327988,274.028809 211.751190,274.015381 
z"/>
<path fill="#7378D6" opacity="1.000000" stroke="none" 
	d="
M251.721069,283.708801 
	C251.541931,284.007782 251.057678,284.434998 250.252136,284.921173 
	C250.425873,284.599091 250.920914,284.218048 251.721069,283.708801 
z"/>
<path fill="#A0A4E4" opacity="1.000000" stroke="none" 
	d="
M261.929199,314.621277 
	C251.153854,312.952362 245.539017,304.707092 247.732193,293.327332 
	C251.146896,298.098755 254.306503,303.232849 257.560699,308.306274 
	C258.883759,310.368927 260.412476,312.299652 261.929199,314.621277 
z"/>
<path fill="#B3B6E9" opacity="1.000000" stroke="none" 
	d="
M301.991455,222.995728 
	C301.995178,223.165756 301.998901,223.335800 302.010193,223.761047 
	C302.907867,227.459351 303.797974,230.902481 304.850342,234.669434 
	C300.513611,234.449554 295.989929,234.055801 291.522766,233.319382 
	C287.173676,232.602448 282.882416,231.534714 277.967346,230.809189 
	C276.950592,230.993805 276.532257,230.990204 276.001312,230.614166 
	C274.903351,225.497238 273.917969,220.752747 273.320862,216.033051 
	C275.760803,216.685043 277.785461,217.426804 279.869110,217.918762 
	C287.232300,219.657288 294.615723,221.310303 301.991455,222.995728 
z"/>
<path fill="#B6BAEA" opacity="1.000000" stroke="none" 
	d="
M276.113892,230.986603 
	C276.532257,230.990204 276.950592,230.993805 277.682648,230.999603 
	C284.010101,235.177704 290.048645,239.318771 296.014191,243.562424 
	C297.054077,244.302155 297.786438,245.474106 298.841248,246.728973 
	C300.302826,250.433426 301.584015,253.855362 302.946960,257.632782 
	C299.262421,257.685913 295.496094,257.383545 291.049500,256.881805 
	C288.570648,254.786636 286.772095,252.890854 284.805756,250.708130 
	C282.427216,247.038498 280.216431,243.655792 278.006897,239.850281 
	C277.376678,236.613831 276.745300,233.800217 276.113892,230.986603 
z"/>
<path fill="#AEC5FF" opacity="1.000000" stroke="none" 
	d="
M255.109024,198.989090 
	C255.078369,198.822083 255.047729,198.655090 255.216919,198.006134 
	C256.601685,195.371689 257.786621,193.219177 259.147400,191.350967 
	C262.890686,199.085297 266.458130,206.535324 270.086151,214.370132 
	C270.740082,218.181564 271.333435,221.608231 271.614258,225.139252 
	C267.271790,228.616119 263.489136,232.092346 265.882050,238.159851 
	C264.605682,234.716110 263.329315,231.272369 262.238770,227.110382 
	C261.902771,216.746094 260.976654,207.208008 255.109024,198.989090 
z"/>
<path fill="#8EAEFF" opacity="1.000000" stroke="none" 
	d="
M278.005676,240.273087 
	C280.216431,243.655792 282.427216,247.038498 284.479187,250.791672 
	C281.705811,253.473679 279.091217,255.785217 276.476624,258.096741 
	C274.846130,256.547455 273.215607,254.998184 271.370056,253.225739 
	C270.362549,250.940826 269.570160,248.879089 269.115906,246.359955 
	C271.669922,243.486435 273.885803,241.070312 276.337067,238.861755 
	C277.050201,239.470581 277.527954,239.871841 278.005676,240.273087 
z"/>
<path fill="#9EBAFF" opacity="1.000000" stroke="none" 
	d="
M276.101685,238.654205 
	C273.885803,241.070312 271.669922,243.486435 269.091553,245.983429 
	C267.782776,243.691330 266.836426,241.318329 265.886078,238.552597 
	C263.489136,232.092346 267.271790,228.616119 271.772278,225.469513 
	C273.529114,230.014999 274.815399,234.334610 276.101685,238.654205 
z"/>
<path fill="#CFDDFF" opacity="1.000000" stroke="none" 
	d="
M254.775436,199.124054 
	C260.976654,207.208008 261.902771,216.746094 262.224426,226.700668 
	C260.497284,221.954239 259.277771,216.777985 257.346466,211.882507 
	C255.788254,207.932739 253.371109,204.321808 251.149658,200.273193 
	C252.123489,199.743576 253.282669,199.501297 254.775436,199.124054 
z"/>
<path fill="#CFDDFF" opacity="1.000000" stroke="none" 
	d="
M258.971558,191.066666 
	C257.786621,193.219177 256.601685,195.371689 255.164780,197.756836 
	C246.063309,189.240356 235.541718,187.311264 223.755203,190.203949 
	C222.700684,190.462769 221.421921,189.807831 220.229126,188.925552 
	C222.693619,182.063248 221.696716,179.273819 215.842438,175.016968 
	C216.419754,173.159531 216.736496,171.606323 217.053253,170.053116 
	C231.431808,169.497314 243.767609,173.944138 253.498444,184.857834 
	C254.706512,186.212769 256.128235,187.377182 257.850769,189.068939 
	C258.490875,190.027542 258.731232,190.547104 258.971558,191.066666 
z"/>
<path fill="#BCBFEC" opacity="1.000000" stroke="none" 
	d="
M278.805359,192.771698 
	C280.509369,198.816360 285.664856,200.964401 289.989746,203.960281 
	C292.567841,205.746170 295.095306,207.605133 297.537231,209.906036 
	C294.558990,209.847839 291.573853,209.651337 288.841583,208.716064 
	C281.842621,206.320282 274.956116,203.595993 267.848938,200.702087 
	C265.414764,196.591385 263.156250,192.781662 260.897705,188.971939 
	C256.292358,181.507553 249.708054,176.173248 242.111023,171.449341 
	C242.303238,170.032425 242.700333,168.874680 243.445892,167.434525 
	C245.206680,168.279434 246.604462,169.425522 248.033707,170.530930 
	C255.872589,176.593613 263.654541,182.733826 271.624603,188.619156 
	C273.005524,189.638855 275.193848,189.565201 277.009216,189.996552 
	C277.542236,190.845352 278.075256,191.694138 278.805359,192.771698 
z"/>
<path fill="#DFE8FE" opacity="1.000000" stroke="none" 
	d="
M216.642288,170.046783 
	C216.736496,171.606323 216.419754,173.159531 215.467209,174.962341 
	C210.800842,174.649780 207.621338,175.999481 205.450729,179.481461 
	C203.159119,183.157516 204.342926,186.487076 206.576492,189.683044 
	C201.783829,189.503250 200.877640,185.855545 200.173706,182.250061 
	C199.503510,178.817444 199.859253,175.422440 203.653275,173.981628 
	C207.753525,172.424515 212.031097,171.334305 216.642288,170.046783 
z"/>
<path fill="#888FDD" opacity="1.000000" stroke="none" 
	d="
M206.866119,189.881805 
	C204.342926,186.487076 203.159119,183.157516 205.450729,179.481461 
	C207.621338,175.999481 210.800842,174.649780 215.206635,175.266571 
	C221.696716,179.273819 222.693619,182.063248 220.101105,188.611053 
	C219.093735,189.662689 218.196243,190.377106 217.084061,191.273468 
	C213.631500,190.997116 210.393616,190.538834 206.866119,189.881805 
M215.434616,178.104538 
	C212.001373,176.695602 209.094604,177.505478 207.552521,180.832214 
	C206.224838,183.696442 206.430023,186.695343 209.440323,188.738968 
	C212.349030,190.713654 215.329803,190.432434 217.452850,187.839828 
	C220.190826,184.496277 219.669708,181.133804 215.434616,178.104538 
z"/>
<path fill="#DFE8FE" opacity="1.000000" stroke="none" 
	d="
M260.537354,188.977539 
	C263.156250,192.781662 265.414764,196.591385 267.862061,201.090668 
	C269.161530,205.860901 270.272247,209.941605 271.043640,214.010651 
	C270.478088,213.994461 270.251831,213.989914 270.025574,213.985367 
	C266.458130,206.535324 262.890686,199.085297 259.147400,191.350967 
	C258.731232,190.547104 258.490875,190.027542 258.128906,189.249252 
	C258.730560,188.988052 259.453796,188.985596 260.537354,188.977539 
z"/>
<path fill="#618DFE" opacity="1.000000" stroke="none" 
	d="
M309.845367,270.841553 
	C309.451965,272.440247 308.810120,273.789459 308.191284,275.466431 
	C301.224854,273.093170 294.235413,270.392181 287.207214,267.165222 
	C289.113678,264.414917 291.058899,262.190582 293.004120,259.966217 
	C298.535065,263.508179 304.065979,267.050140 309.845367,270.841553 
z"/>
<path fill="#779EFE" opacity="1.000000" stroke="none" 
	d="
M292.855957,259.705750 
	C291.058899,262.190582 289.113678,264.414917 286.956207,266.931335 
	C283.398132,264.414276 280.052277,261.605072 276.591522,258.446320 
	C279.091217,255.785217 281.705811,253.473679 284.646973,251.078613 
	C286.772095,252.890854 288.570648,254.786636 290.642090,256.858337 
	C291.512573,257.837952 292.110168,258.641632 292.855957,259.705750 
z"/>
<path fill="#D4D6F3" opacity="1.000000" stroke="none" 
	d="
M318.835449,178.779327 
	C318.712250,178.790039 318.481049,178.576492 318.138733,178.139679 
	C318.260498,178.129364 318.493774,178.342255 318.835449,178.779327 
z"/>
<path fill="#2088EA" opacity="1.000000" stroke="none" 
	d="
M287.727844,405.911682 
	C287.914825,408.622192 288.211548,410.966766 287.964447,413.252502 
	C287.258972,419.778717 282.049957,423.388611 275.839874,421.496674 
	C274.744598,421.163025 273.580719,419.196136 273.447113,417.881927 
	C272.826843,411.782257 272.558228,405.646851 272.166626,399.569641 
	C278.760345,397.060608 283.739197,399.015411 287.727844,405.911682 
z"/>
<path fill="#2088EA" opacity="1.000000" stroke="none" 
	d="
M349.748749,353.217102 
	C348.887939,349.398193 350.399261,348.127747 353.613251,348.393677 
	C358.115662,348.766266 362.172699,350.068634 364.256805,354.499908 
	C366.459930,359.184204 366.066895,363.969879 363.397797,368.270752 
	C360.609467,372.763794 355.974121,371.579559 350.942688,371.578583 
	C350.546509,365.434540 350.167633,359.558258 349.748749,353.217102 
z"/>
<path fill="#686ED3" opacity="1.000000" stroke="none" 
	d="
M213.121185,135.576721 
	C209.370361,136.516953 205.783829,137.352234 202.842056,134.238297 
	C198.612793,129.761520 198.195068,122.140640 206.714218,118.989487 
	C217.100800,120.273697 219.509323,126.586838 213.121185,135.576721 
M202.263031,125.102348 
	C201.867477,131.691818 205.611008,135.723663 210.187958,133.241486 
	C212.165573,132.168991 214.215256,129.359711 214.309937,127.252991 
	C214.391541,125.437698 212.114197,122.870155 210.220428,121.759842 
	C207.183319,119.979172 204.510956,121.663322 202.263031,125.102348 
z"/>
<path fill="#2088EA" opacity="1.000000" stroke="none" 
	d="
M200.681396,369.958252 
	C194.742264,365.768677 194.298508,353.114746 199.895233,349.310089 
	C201.669022,348.104248 204.768448,347.750305 206.876007,348.353210 
	C211.866425,349.780823 214.829224,356.958740 213.252136,362.393829 
	C211.339905,368.983826 207.728409,371.263794 200.681396,369.958252 
z"/>
<path fill="#2088EA" opacity="1.000000" stroke="none" 
	d="
M180.172638,410.208313 
	C181.100922,407.058411 182.124954,404.302399 183.633118,400.243408 
	C185.135895,404.323364 186.209732,407.238739 187.577896,410.953217 
	C184.645767,410.812408 182.457077,410.707336 180.172638,410.208313 
z"/>
<path fill="#2088EA" opacity="1.000000" stroke="none" 
	d="
M250.821594,352.163879 
	C252.459641,354.527710 253.919403,357.209778 255.767365,360.605042 
	C252.585815,360.605042 250.437256,360.605042 247.513779,360.605042 
	C248.606674,357.768341 249.625000,355.125244 250.821594,352.163879 
z"/>
<path fill="#C5C7EE" opacity="1.000000" stroke="none" 
	d="
M276.927917,189.611145 
	C275.193848,189.565201 273.005524,189.638855 271.624603,188.619156 
	C263.654541,182.733826 255.872589,176.593613 248.033707,170.530930 
	C246.604462,169.425522 245.206680,168.279434 243.481445,167.060822 
	C243.147232,166.536774 243.125961,166.104004 243.120850,165.346359 
	C244.218689,163.838791 245.393768,162.727844 246.366501,161.461502 
	C251.760284,154.439697 262.695007,154.221802 267.586731,161.710114 
	C270.680389,166.445953 272.301514,172.143738 274.792786,177.705292 
	C275.617157,181.742264 276.231873,185.484009 276.927917,189.611145 
z"/>
<path fill="#C2C5EE" opacity="1.000000" stroke="none" 
	d="
M258.161407,147.269012 
	C263.661072,144.694885 268.386078,147.852814 273.669250,149.833572 
	C283.305054,155.794907 290.750641,163.401337 296.571106,172.865875 
	C288.720825,174.652115 269.944580,162.048035 258.161407,147.269012 
z"/>
<path fill="#B6BAEA" opacity="1.000000" stroke="none" 
	d="
M271.382935,214.022293 
	C270.272247,209.941605 269.161530,205.860901 268.037720,201.391632 
	C274.956116,203.595993 281.842621,206.320282 288.841583,208.716064 
	C291.573853,209.651337 294.558990,209.847839 297.718140,210.190521 
	C298.531128,210.540588 299.054932,211.080994 299.788757,211.810425 
	C300.663025,215.389236 301.327240,218.779022 301.991455,222.582245 
	C294.615723,221.310303 287.232300,219.657288 279.869110,217.918762 
	C277.785461,217.426804 275.760803,216.685043 273.136047,215.855774 
	C272.169678,215.109879 271.776306,214.566086 271.382935,214.022293 
z"/>
<path fill="#CFDDFF" opacity="1.000000" stroke="none" 
	d="
M271.043640,214.010651 
	C271.776306,214.566086 272.169678,215.109879 272.747803,215.830963 
	C273.917969,220.752747 274.903351,225.497238 276.001343,230.614166 
	C276.745300,233.800217 277.376678,236.613831 278.006897,239.850281 
	C277.527954,239.871841 277.050201,239.470581 276.337097,238.861771 
	C274.815399,234.334610 273.529114,230.014999 272.084808,225.365143 
	C271.333435,221.608231 270.740082,218.181564 270.086151,214.370132 
	C270.251831,213.989914 270.478088,213.994461 271.043640,214.010651 
z"/>
<path fill="#1B86EA" opacity="1.000000" stroke="none" 
	d="
M215.773117,178.273956 
	C219.669708,181.133804 220.190826,184.496277 217.452850,187.839828 
	C215.329803,190.432434 212.349030,190.713654 209.440323,188.738968 
	C206.430023,186.695343 206.224838,183.696442 207.552521,180.832214 
	C209.094604,177.505478 212.001373,176.695602 215.773117,178.273956 
z"/>
<path fill="#1B86EA" opacity="1.000000" stroke="none" 
	d="
M202.422424,124.743958 
	C204.510956,121.663322 207.183319,119.979172 210.220428,121.759842 
	C212.114197,122.870155 214.391541,125.437698 214.309937,127.252991 
	C214.215256,129.359711 212.165573,132.168991 210.187958,133.241486 
	C205.611008,135.723663 201.867477,131.691818 202.422424,124.743958 
z"/>
</svg>