<?xml version="1.0" standalone="no"?>
<!DOCTYPE svg PUBLIC "-//W3C//DTD SVG 20010904//EN"
 "http://www.w3.org/TR/2001/REC-SVG-20010904/DTD/svg10.dtd">
<svg version="1.0" xmlns="http://www.w3.org/2000/svg"
 width="500.000000pt" height="500.000000pt" viewBox="0 0 500.000000 500.000000"
 preserveAspectRatio="xMidYMid meet">

<g transform="translate(0.000000,500.000000) scale(0.100000,-0.100000)"
fill="#000000" stroke="none">
<path d="M2597 4158 c-80 -198 -217 -564 -214 -572 6 -17 19 13 127 294 56
146 105 271 107 278 3 6 1 12 -5 12 -5 0 -12 -6 -15 -12z"/>
<path d="M2236 3979 c-64 -50 -116 -95 -116 -100 0 -9 211 -180 231 -187 5 -2
9 1 9 6 0 5 -47 46 -105 92 -58 45 -105 85 -105 88 0 4 47 44 105 90 89 71
120 102 101 102 -2 0 -56 -41 -120 -91z"/>
<path d="M2646 4062 c-3 -6 44 -49 104 -97 l111 -87 -108 -84 c-101 -80 -126
-104 -106 -104 6 0 221 165 241 185 2 2 -43 40 -100 86 -57 45 -110 89 -120
96 -9 9 -18 10 -22 5z"/>
<path d="M900 3195 l0 -225 40 0 40 0 0 182 c0 100 3 178 8 174 4 -4 27 -85
52 -179 l45 -172 42 -3 c41 -3 42 -2 52 35 5 21 27 103 48 183 l38 145 3 -182
2 -183 40 0 40 0 0 225 0 226 -62 -3 -63 -3 -41 -150 c-22 -82 -44 -163 -49
-180 -6 -26 -12 -12 -45 110 -21 77 -43 159 -49 183 l-12 42 -64 0 -65 0 0
-225z"/>
<path d="M1770 3196 l0 -226 45 0 45 0 0 125 0 125 44 0 c66 0 76 -20 76 -147
l0 -103 40 0 40 0 0 120 c0 171 -23 204 -139 205 l-56 0 -5 60 -5 60 -42 3
-43 3 0 -225z"/>
<path d="M4037 3413 c-4 -3 -7 -31 -7 -62 l0 -56 -58 0 c-75 -1 -120 -26 -150
-85 -41 -79 -15 -178 57 -223 41 -25 143 -29 204 -8 l37 13 0 214 0 214 -38 0
c-21 0 -42 -3 -45 -7z m-7 -283 l0 -90 -45 0 c-62 0 -95 32 -95 90 0 58 33 90
95 90 l45 0 0 -90z"/>
<path d="M1508 3290 c-69 -21 -118 -88 -118 -162 0 -46 37 -114 73 -136 133
-81 297 22 272 170 -16 96 -127 158 -227 128z m117 -95 c56 -55 18 -155 -59
-155 -53 0 -88 35 -90 89 -1 35 4 47 27 67 38 32 90 32 122 -1z"/>
<path d="M2187 3290 c-45 -8 -45 -9 -57 -49 l-9 -32 46 7 c78 12 107 9 127
-12 32 -32 20 -42 -58 -46 -94 -4 -129 -26 -134 -83 -7 -83 37 -111 170 -109
47 1 93 4 102 7 13 5 16 27 16 130 0 146 -10 167 -84 186 -49 12 -63 12 -119
1z m121 -222 l3 -38 -50 0 c-47 0 -81 17 -81 40 0 20 46 41 85 38 38 -3 40 -4
43 -40z"/>
<path d="M2500 3293 c-77 -12 -70 4 -70 -168 l0 -155 45 0 45 0 0 126 0 125
42 -3 c58 -4 68 -27 68 -150 l0 -98 40 0 40 0 0 113 c0 125 5 137 57 137 45 0
53 -21 53 -144 l0 -106 40 0 40 0 0 130 c0 129 0 130 -29 162 -27 31 -34 33
-94 33 -48 0 -70 -5 -84 -17 -18 -17 -21 -17 -58 2 -37 19 -76 23 -135 13z"/>
<path d="M2995 3292 l-40 -7 -3 -157 -3 -158 41 0 40 0 0 125 0 125 39 0 c64
0 71 -15 71 -141 l0 -109 40 0 40 0 0 106 c0 123 8 144 53 144 52 0 57 -12 57
-137 l0 -113 46 0 46 0 -4 128 c-4 148 -15 175 -75 191 -55 16 -84 13 -128 -9
-36 -18 -40 -19 -57 -3 -20 18 -98 25 -163 15z"/>
<path d="M3554 3289 c-18 -5 -46 -25 -62 -44 -70 -79 -49 -215 41 -262 41 -21
139 -21 190 1 l38 16 -18 30 c-14 24 -22 30 -38 24 -11 -4 -41 -9 -67 -11 -40
-4 -51 -1 -73 21 -14 14 -25 30 -25 36 0 6 42 10 115 10 l115 0 0 32 c0 55
-36 114 -84 137 -45 22 -81 25 -132 10z m104 -75 c12 -8 22 -24 22 -35 0 -17
-7 -19 -70 -19 -79 0 -90 13 -44 49 32 25 61 27 92 5z"/>
<path d="M2109 2763 c-65 -168 -69 -183 -49 -183 13 0 22 9 26 25 5 22 11 25
54 25 43 0 49 -3 54 -25 4 -16 13 -25 26 -25 11 0 20 1 20 3 0 1 -17 47 -38
102 -31 81 -42 101 -60 103 -16 3 -25 -4 -33 -25z m44 -40 c2 -10 8 -26 12
-35 6 -15 2 -18 -23 -18 -30 0 -30 0 -19 35 11 38 22 45 30 18z"/>
<path d="M2250 2685 c0 -98 1 -105 20 -105 18 0 20 7 20 60 0 62 6 69 44 54
12 -5 16 -20 16 -60 0 -47 2 -54 20 -54 18 0 20 7 20 55 0 65 -22 95 -70 95
-27 0 -30 3 -30 30 0 23 -4 30 -20 30 -19 0 -20 -7 -20 -105z"/>
<path d="M2910 2760 c0 -27 -3 -30 -30 -30 -33 0 -69 -30 -71 -57 -4 -61 22
-93 76 -93 64 0 65 2 65 111 0 92 -1 99 -20 99 -16 0 -20 -7 -20 -30z m0 -105
c0 -38 -3 -45 -19 -45 -23 0 -51 25 -51 45 0 20 28 45 51 45 16 0 19 -7 19
-45z"/>
<path d="M2410 2655 c0 -68 2 -75 20 -75 18 0 20 7 20 60 0 43 4 60 13 60 25
0 37 -24 37 -72 0 -36 4 -48 15 -48 11 0 15 12 15 49 0 31 5 53 15 61 26 21
45 -5 45 -61 0 -37 4 -49 15 -49 12 0 15 14 15 63 0 36 -5 68 -12 75 -15 15
-70 16 -85 1 -8 -8 -13 -8 -17 0 -4 6 -27 11 -52 11 l-44 0 0 -75z"/>
<path d="M2662 2707 c-47 -50 -12 -127 59 -127 19 0 40 4 48 9 22 14 3 31 -29
24 -29 -5 -60 9 -60 28 0 5 25 9 55 9 62 0 68 10 34 54 -27 34 -77 36 -107 3z
m78 -22 c11 -13 7 -15 -25 -15 -32 0 -36 2 -25 15 7 8 18 15 25 15 7 0 18 -7
25 -15z"/>
</g>
</svg>
