<?xml version="1.0" standalone="no"?>
<!DOCTYPE svg PUBLIC "-//W3C//DTD SVG 20010904//EN"
 "http://www.w3.org/TR/2001/REC-SVG-20010904/DTD/svg10.dtd">
<svg version="1.0" xmlns="http://www.w3.org/2000/svg"
 width="500.000000pt" height="500.000000pt" viewBox="0 0 500.000000 500.000000"
 preserveAspectRatio="xMidYMid meet">

<g transform="translate(0.000000,500.000000) scale(0.100000,-0.100000)"
fill="#000000" stroke="none">
<path d="M0 2500 l0 -2500 2500 0 2500 0 0 2500 0 2500 -2500 0 -2500 0 0
-2500z m2868 1634 c47 -9 118 -35 181 -65 91 -44 116 -63 196 -142 93 -93 155
-183 198 -289 20 -48 22 -68 19 -217 -2 -155 -1 -167 22 -216 13 -29 53 -86
89 -128 87 -99 91 -117 40 -165 -21 -21 -59 -44 -82 -52 -85 -28 -107 -65 -81
-136 13 -33 1 -50 -41 -59 -28 -6 -29 -8 -15 -24 22 -24 20 -34 -10 -78 -22
-33 -25 -45 -20 -88 18 -140 18 -159 -4 -193 -43 -69 -162 -95 -315 -69 l-90
16 -34 -32 c-43 -41 -61 -84 -61 -144 0 -52 29 -124 62 -160 11 -12 18 -29 15
-37 -7 -19 -87 -60 -146 -76 -42 -11 -45 -10 -100 26 -31 21 -78 46 -104 55
-100 34 -150 117 -128 213 7 31 8 53 2 59 -21 21 -129 -84 -181 -177 -18 -31
-34 -56 -37 -56 -3 0 -18 9 -33 20 -28 20 -29 21 -14 57 27 63 93 160 140 203
106 97 246 128 434 96 52 -9 104 -19 115 -22 11 -3 -11 12 -50 33 -81 43 -172
130 -199 191 -17 38 -28 46 -131 97 -62 30 -115 55 -118 55 -3 0 -10 -14 -16
-30 -5 -17 -29 -60 -52 -96 -39 -60 -43 -63 -63 -51 -12 7 -38 23 -58 36 -21
12 -38 26 -38 29 0 4 17 18 37 32 21 14 68 54 105 89 152 143 168 291 41 371
-74 47 -104 54 -164 36 -148 -44 -237 6 -227 129 3 33 13 64 28 85 28 40 109
78 182 87 47 6 59 12 104 58 29 28 61 70 73 93 27 53 28 131 3 162 -21 26 -19
26 -137 -24 -66 -28 -165 -35 -209 -15 -14 7 -32 27 -41 46 -23 49 -11 102 39
176 92 134 279 242 507 292 88 19 272 19 367 -1z m-1056 -298 c12 -17 9 -51
-4 -64 -30 -30 -95 7 -81 47 14 38 64 49 85 17z m-218 -163 c8 -20 -19 -44
-40 -36 -14 5 -19 35 -7 46 12 13 41 7 47 -10z m298 -30 c9 -10 17 -25 20 -33
3 -9 45 -24 114 -41 106 -27 109 -27 129 -10 11 10 30 22 42 25 26 8 78 -16
87 -39 12 -32 6 -75 -14 -95 -24 -24 -91 -27 -109 -6 -10 12 -33 4 -144 -50
-112 -54 -132 -68 -135 -89 -2 -13 -16 -34 -31 -45 -26 -18 -29 -26 -36 -111
-6 -84 -5 -93 14 -113 12 -12 21 -29 21 -37 0 -9 48 -28 153 -60 l152 -45 18
22 c37 48 124 38 152 -17 22 -41 18 -74 -12 -109 -25 -31 -29 -32 -85 -28
l-58 4 -100 -89 c-85 -76 -100 -94 -100 -120 0 -55 -50 -84 -100 -57 -28 15
-34 59 -13 89 19 26 19 27 -25 184 -37 129 -48 157 -63 157 -10 0 -26 12 -36
26 -15 24 -20 26 -66 20 -27 -4 -57 -12 -68 -19 -36 -22 -76 25 -49 58 16 19
44 19 60 0 8 -9 30 -15 60 -15 40 0 50 4 64 25 9 14 23 25 30 25 10 0 16 27
23 98 9 91 8 99 -11 124 -19 24 -27 27 -87 27 -48 1 -70 -3 -79 -14 -28 -34
-87 6 -64 43 15 24 55 28 67 7 8 -15 19 -16 73 -10 53 5 69 12 94 37 26 25 31
40 38 103 7 64 6 74 -10 84 -26 16 -33 57 -14 86 20 30 75 35 98 8z m-164
-115 c7 -7 12 -25 12 -42 0 -59 -59 -87 -100 -46 -24 24 -26 57 -3 82 18 20
73 24 91 6z m-255 -92 c8 -20 -8 -38 -29 -34 -22 4 -31 37 -13 48 15 10 36 3
42 -14z m-35 -268 c16 -16 15 -53 -2 -67 -8 -7 -27 -11 -42 -9 -53 6 -50 88 4
88 15 0 33 -5 40 -12z m47 -363 c0 -22 -31 -33 -47 -17 -17 17 -1 44 24 40 15
-2 23 -10 23 -23z m245 -73 c43 -35 4 -94 -50 -77 -32 10 -38 55 -10 77 12 10
26 18 30 18 4 0 18 -8 30 -18z m-46 -1252 c31 -44 60 -80 64 -80 4 0 27 34 52
75 25 41 50 75 57 75 13 0 19 -40 29 -182 4 -70 3 -98 -5 -98 -16 0 -19 13
-28 123 l-8 99 -45 -76 c-44 -74 -70 -95 -70 -57 0 10 -7 24 -15 31 -8 6 -28
33 -45 58 l-32 47 8 -95 c4 -52 7 -101 8 -108 2 -31 -22 -21 -27 10 -13 75
-19 258 -9 258 6 0 36 -36 66 -80z m396 65 c86 -44 94 -181 14 -244 -63 -50
-160 -8 -171 74 -7 55 13 123 47 157 32 31 66 36 110 13z m615 -54 c68 -102
68 -101 108 -39 19 30 39 64 46 76 23 44 39 26 45 -50 11 -135 11 -197 1 -198
-13 -1 -24 59 -25 145 l0 70 -20 -25 c-11 -14 -32 -49 -47 -77 -26 -49 -53
-70 -53 -40 0 10 -66 107 -87 127 -3 3 -2 -43 2 -102 5 -75 4 -108 -4 -108
-15 0 -20 27 -29 160 -12 159 -7 164 63 61z m305 17 c48 -70 90 -123 90 -112
0 18 91 149 103 149 20 0 41 -265 21 -272 -13 -4 -24 50 -24 127 0 90 -12 92
-59 11 -39 -65 -61 -88 -61 -60 0 6 -21 39 -46 73 l-47 61 7 -102 c4 -65 2
-104 -4 -108 -15 -9 -19 9 -29 145 -12 163 -7 171 49 88z m418 46 c38 -10 27
-34 -12 -27 -19 3 -54 3 -78 -1 l-43 -6 3 -45 c4 -45 4 -45 43 -45 28 0 39 -4
39 -15 0 -11 -11 -15 -41 -15 -41 0 -41 0 -35 -31 3 -17 6 -40 6 -50 0 -17 5
-18 40 -13 46 8 113 -3 108 -17 -2 -6 -42 -11 -88 -12 l-85 -2 -7 65 c-3 36
-8 97 -11 137 l-4 72 41 4 c75 7 101 7 124 1z m-1218 -33 c0 -16 3 -41 6 -57
5 -28 7 -29 66 -29 l60 0 -5 58 c-4 44 -2 57 8 57 15 0 21 -34 31 -184 5 -80
4 -98 -7 -94 -8 3 -15 15 -17 29 -1 13 -5 43 -8 67 l-5 42 -47 0 c-68 0 -75
-8 -70 -73 2 -33 -1 -57 -7 -58 -13 -1 -21 49 -28 174 -5 81 -4 97 8 97 10 0
15 -10 15 -29z m364 -104 c51 -147 51 -147 33 -147 -7 0 -21 22 -31 49 -15 43
-21 49 -52 54 -50 8 -59 2 -82 -54 -12 -27 -26 -49 -31 -49 -16 0 -13 26 5 62
15 29 15 32 0 40 -20 11 -12 28 15 28 10 0 19 5 19 10 0 19 59 140 68 140 5 0
30 -60 56 -133z m1033 116 c47 -22 73 -66 73 -126 0 -94 -42 -137 -132 -137
-32 0 -58 1 -59 3 -5 10 -25 264 -22 270 8 13 105 7 140 -10z m-2119 -75 c-2
-6 -22 -16 -45 -23 -68 -20 -69 -25 -14 -56 28 -16 51 -36 51 -44 0 -8 -2 -15
-4 -15 -8 0 -156 82 -156 86 0 3 28 18 63 34 64 31 112 39 105 18z m738 -435
c16 -21 42 -57 58 -80 17 -23 34 -43 37 -43 3 0 27 34 53 75 49 77 61 87 70
58 11 -40 18 -263 8 -263 -14 0 -22 25 -23 78 0 26 -4 69 -7 96 l-7 49 -44
-77 c-24 -42 -50 -76 -58 -76 -7 0 -13 6 -11 13 2 7 -19 42 -46 77 -42 56 -48
61 -43 35 11 -56 12 -180 2 -183 -14 -4 -21 43 -29 171 -4 67 -3 107 3 107 6
0 22 -17 37 -37z m432 31 c44 -12 15 -27 -55 -28 -39 -1 -74 -4 -78 -7 -3 -4
-3 -25 1 -48 6 -40 8 -41 45 -41 28 0 39 -4 39 -15 0 -11 -11 -15 -40 -15 -43
0 -46 -6 -34 -69 6 -29 8 -31 45 -25 46 8 112 -3 107 -17 -2 -6 -41 -11 -88
-12 l-85 -2 -6 50 c-4 28 -9 89 -12 137 l-6 87 37 4 c65 7 106 7 130 1z m-794
-46 c51 -138 76 -213 76 -226 0 -27 -23 -5 -40 38 -13 33 -24 46 -46 52 -49
14 -68 3 -89 -52 -11 -27 -25 -50 -32 -50 -17 0 -16 10 3 56 11 26 13 39 5 42
-19 6 -12 32 8 32 12 0 23 9 27 23 15 50 54 127 63 127 5 0 16 -19 25 -42z
m122 -16 l6 -58 59 0 59 1 0 58 c0 54 13 77 24 40 11 -42 18 -263 8 -263 -11
0 -20 35 -24 100 -3 33 -5 35 -42 38 -22 2 -50 1 -62 -2 -22 -6 -24 -11 -21
-64 3 -74 -16 -84 -24 -12 -16 136 -17 220 -4 220 10 0 16 -19 21 -58z m853
40 c61 -33 84 -101 61 -184 -16 -58 -52 -79 -124 -76 l-61 3 -6 60 c-4 33 -9
95 -12 138 l-5 77 56 0 c36 0 70 -7 91 -18z m297 1 c-3 -10 -17 -63 -31 -118
-31 -121 -42 -148 -55 -140 -11 7 -9 19 25 140 12 44 25 92 29 108 4 15 13 27
22 27 10 0 14 -6 10 -17z m105 -89 c33 -15 59 -32 59 -39 0 -7 -15 -18 -32
-26 -18 -7 -50 -23 -71 -37 -22 -13 -41 -21 -44 -18 -13 12 9 37 54 60 33 16
43 26 33 30 -8 3 -33 12 -54 19 -22 8 -42 19 -44 25 -6 20 37 13 99 -14z"/>
<path d="M2035 3808 c-55 -32 -61 -92 -14 -132 38 -33 73 -33 104 -1 24 24 29
39 25 80 -4 45 -74 78 -115 53z"/>
<path d="M2076 3214 c-36 -36 -6 -104 46 -104 25 0 58 36 58 63 0 49 -70 76
-104 41z"/>
<path d="M3010 2305 c-18 -19 -20 -26 -9 -30 42 -15 138 -35 192 -40 l62 -6
-60 24 c-33 14 -83 36 -112 50 l-50 26 -23 -24z"/>
<path d="M1900 3560 c0 -6 -11 -15 -25 -20 -18 -7 -25 -17 -25 -37 0 -16 -3
-51 -6 -79 -6 -46 -4 -53 14 -58 28 -9 274 113 270 133 -2 9 -36 23 -93 37
-50 13 -100 26 -112 29 -13 3 -23 1 -23 -5z"/>
<path d="M1829 2944 c-9 -11 -2 -49 31 -166 23 -84 43 -154 44 -154 0 -1 11
-5 23 -8 18 -6 41 9 125 85 57 51 103 93 104 93 1 1 -1 17 -3 38 -5 33 -9 37
-46 47 -23 6 -92 26 -154 45 -95 28 -114 32 -124 20z"/>
<path d="M2001 1517 c-48 -24 -66 -135 -30 -181 16 -20 29 -26 59 -26 93 0
125 139 46 202 -25 21 -43 22 -75 5z"/>
<path d="M2487 1454 c-9 -26 -15 -49 -13 -51 2 -3 17 -3 33 -1 l30 3 -16 48
-16 48 -18 -47z"/>
<path d="M3490 1471 c0 -26 3 -76 6 -110 l7 -61 47 0 c58 0 80 21 87 84 10 85
-33 136 -112 136 l-35 0 0 -49z"/>
<path d="M1812 963 c-5 -16 -13 -36 -17 -45 -6 -15 -1 -18 30 -18 39 0 39 0
14 68 -11 29 -15 28 -27 -5z"/>
<path d="M2721 923 c4 -54 7 -104 8 -110 1 -14 66 -18 96 -7 24 10 45 58 45
105 0 33 -6 47 -34 75 -28 28 -41 34 -77 34 l-44 0 6 -97z"/>
</g>
</svg>
