<?xml version="1.0" standalone="no"?>
<!DOCTYPE svg PUBLIC "-//W3C//DTD SVG 20010904//EN"
 "http://www.w3.org/TR/2001/REC-SVG-20010904/DTD/svg10.dtd">
<svg version="1.0" xmlns="http://www.w3.org/2000/svg"
 width="500.000000pt" height="500.000000pt" viewBox="0 0 500.000000 500.000000"
 preserveAspectRatio="xMidYMid meet">

<g transform="translate(0.000000,500.000000) scale(0.100000,-0.100000)"
fill="#000000" stroke="none">
<path d="M2591 4073 c-13 -3 -25 -13 -28 -23 -3 -10 -22 -25 -42 -33 -21 -9
-79 -43 -131 -76 -107 -69 -170 -87 -265 -76 -114 13 -106 15 -142 -45 -42
-69 -45 -134 -9 -177 23 -26 29 -28 103 -28 67 0 87 5 147 33 37 17 76 32 86
32 26 0 42 -25 51 -78 10 -63 -22 -131 -94 -199 l-53 -50 65 -12 c101 -19 167
-55 252 -140 110 -109 153 -201 204 -431 14 -63 42 -149 61 -190 31 -66 32
-71 10 -45 -14 17 -30 43 -37 58 l-12 28 -38 -37 -38 -37 -11 29 c-6 16 -13
36 -16 44 -3 8 -19 82 -35 164 -33 165 -52 217 -95 260 -65 64 -181 92 -280
67 -25 -7 -48 -10 -50 -8 -2 2 1 18 7 36 34 96 -98 164 -152 78 -14 -23 -19
-43 -15 -71 l4 -39 -20 21 c-14 13 -23 39 -27 78 l-7 59 -18 -47 c-32 -82 -1
-157 74 -179 32 -10 52 -8 114 6 89 21 126 14 195 -35 63 -46 83 -84 79 -150
-8 -120 -73 -198 -288 -345 -326 -222 -520 -385 -520 -435 0 -21 3 -22 48 -16
131 18 218 18 278 2 69 -20 168 -72 240 -126 70 -53 206 -124 284 -150 85 -27
202 -36 281 -21 63 13 148 47 183 73 18 14 17 17 -18 62 -81 106 -78 225 7
305 25 23 27 23 99 10 118 -20 215 -16 272 11 27 13 57 37 68 54 20 32 20 35
2 194 -6 46 -3 57 21 92 26 38 27 41 11 58 -22 26 -21 29 20 42 35 12 36 13
29 49 -11 52 -10 88 4 104 6 8 38 24 70 36 76 28 121 68 121 110 0 24 -15 47
-69 107 -104 114 -116 144 -115 287 1 104 -1 117 -15 112 -9 -4 -47 -14 -86
-22 -67 -14 -196 -13 -252 3 -22 6 -22 5 7 -47 32 -61 95 -243 104 -304 4 -22
-9 12 -29 75 -89 287 -208 439 -403 511 -62 23 -65 26 -98 92 -33 64 -64 161
-64 199 0 14 8 18 35 18 52 0 107 -32 160 -94 74 -86 121 -106 272 -116 189
-14 227 -40 327 -222 20 -38 41 -68 46 -68 24 0 -15 136 -65 226 -55 98 -119
134 -283 158 -123 19 -182 42 -284 113 -114 79 -153 92 -237 76z m-471 -256
c8 -7 22 -21 30 -32 10 -13 3 -10 -18 8 -40 32 -79 35 -118 6 l-29 -21 28 26
c31 28 81 34 107 13z m0 -39 c11 -12 20 -31 20 -43 0 -28 -35 -65 -63 -65 -39
0 -67 27 -67 65 0 59 69 87 110 43z m38 -555 c31 -28 35 -56 11 -86 -25 -33
-70 -36 -99 -7 -26 26 -25 51 1 84 24 30 58 34 87 9z m1090 -238 c0 -5 -6 4
-13 20 -8 17 -14 37 -14 45 0 8 7 -1 14 -20 7 -19 13 -39 13 -45z"/>
<path d="M1740 3835 c-7 -8 -10 -25 -6 -39 8 -32 42 -40 67 -15 23 23 24 33 3
53 -20 20 -48 20 -64 1z"/>
<path d="M1550 3675 c-10 -11 -10 -19 -2 -27 15 -15 44 -2 40 19 -4 23 -22 27
-38 8z"/>
<path d="M1812 3644 c-28 -19 -29 -61 -1 -90 18 -19 19 -29 13 -99 -6 -67 -10
-78 -30 -87 -13 -6 -26 -19 -29 -30 -5 -15 -17 -18 -76 -18 -49 0 -75 5 -85
15 -19 19 -29 19 -48 -1 -12 -12 -13 -20 -6 -35 11 -20 60 -27 60 -9 0 6 31
10 73 10 63 0 75 -3 95 -25 22 -22 22 -29 16 -114 -6 -86 -9 -93 -41 -126 -30
-31 -40 -35 -84 -35 -31 0 -56 6 -65 15 -11 11 -20 12 -34 5 -25 -14 -32 -37
-14 -55 19 -19 29 -19 48 0 9 10 34 15 70 15 45 0 56 -3 61 -19 3 -11 18 -24
33 -29 25 -9 30 -22 70 -166 40 -144 42 -157 27 -172 -25 -25 -16 -75 17 -93
25 -14 29 -14 55 6 21 15 28 29 27 51 -2 28 11 42 106 126 104 92 108 95 137
84 62 -23 123 18 123 84 0 81 -92 119 -151 62 l-27 -25 -148 45 c-82 25 -150
50 -152 56 -2 6 -15 23 -28 39 -22 27 -23 31 -14 120 9 84 13 96 40 121 17 15
30 37 30 47 0 15 30 34 131 83 l130 62 34 -17 c28 -16 37 -17 63 -6 42 18 58
60 38 99 -25 49 -69 56 -112 19 l-27 -24 -111 28 c-61 15 -112 33 -114 38 -8
24 -45 61 -61 61 -9 0 -27 -7 -39 -16z m207 -98 c56 -14 105 -27 111 -31 29
-18 2 -40 -127 -101 -128 -60 -137 -63 -154 -48 -11 10 -17 26 -14 38 2 12 7
46 10 76 5 46 10 58 33 72 35 21 26 22 141 -6z m-21 -630 c79 -24 145 -46 146
-48 2 -1 6 -19 10 -40 7 -36 6 -37 -100 -131 -144 -128 -139 -130 -197 76 -42
148 -44 162 -29 174 9 7 19 12 22 12 3 1 69 -19 148 -43z"/>
<path d="M1646 3524 c-19 -18 -21 -65 -4 -82 17 -17 64 -15 82 4 22 21 20 50
-4 74 -24 24 -53 26 -74 4z"/>
<path d="M1424 3439 c-10 -17 23 -46 37 -32 7 7 9 19 6 27 -7 18 -33 21 -43 5z"/>
<path d="M1378 3169 c-22 -12 -23 -52 -3 -69 8 -7 25 -10 39 -6 32 8 40 42 15
67 -22 22 -27 22 -51 8z"/>
<path d="M1443 2814 c-3 -8 -1 -20 5 -26 15 -15 43 8 35 28 -7 19 -32 18 -40
-2z"/>
<path d="M1672 2728 c-34 -34 6 -90 48 -68 35 19 20 80 -20 80 -9 0 -21 -5
-28 -12z"/>
<path d="M930 1335 l0 -185 40 0 40 0 1 118 1 117 41 -87 c57 -119 71 -119
129 0 l43 87 3 -117 3 -118 39 0 40 0 0 185 0 185 -44 0 -43 0 -49 -105 c-26
-58 -52 -105 -56 -105 -5 0 -31 47 -58 105 l-49 105 -40 0 -41 0 0 -185z"/>
<path d="M1388 1509 c-16 -9 -18 -28 -18 -169 0 -198 -7 -190 160 -190 166 0
160 -7 160 184 0 195 8 186 -161 186 -68 0 -132 -5 -141 -11z m217 -174 l0
-110 -75 0 -75 0 -3 113 -3 113 78 -3 78 -3 0 -110z"/>
<path d="M1750 1335 l0 -185 40 0 40 0 0 75 0 75 80 0 80 0 0 -75 0 -75 40 0
40 0 0 185 0 185 -40 0 -40 0 0 -75 0 -75 -80 0 -80 0 0 75 0 75 -40 0 -40 0
0 -185z"/>
<path d="M2220 1496 c-5 -14 -30 -91 -56 -173 -26 -81 -49 -154 -52 -160 -3
-9 9 -13 40 -13 42 0 46 2 54 33 l10 32 84 0 84 0 10 -32 c8 -31 12 -33 54
-33 31 0 43 4 40 13 -3 6 -31 90 -62 185 l-58 172 -69 0 c-64 0 -70 -2 -79
-24z m108 -114 c12 -38 22 -74 22 -80 0 -8 -19 -12 -54 -12 l-54 0 26 80 c14
44 29 80 32 80 3 0 16 -31 28 -68z"/>
<path d="M2530 1335 l0 -185 40 0 40 0 1 118 1 117 41 -87 c57 -119 71 -119
129 0 l43 87 3 -117 3 -118 39 0 40 0 0 185 0 185 -44 0 -43 0 -49 -105 c-26
-58 -52 -105 -56 -105 -5 0 -31 47 -58 105 l-49 105 -40 0 -41 0 0 -185z"/>
<path d="M2970 1335 l0 -185 40 0 40 0 1 118 1 117 41 -87 c57 -119 71 -119
129 0 l43 87 3 -117 3 -118 39 0 40 0 0 185 0 185 -44 0 -43 0 -49 -105 c-26
-58 -52 -105 -56 -105 -5 0 -31 47 -58 105 l-49 105 -40 0 -41 0 0 -185z"/>
<path d="M3400 1335 l0 -185 150 0 150 0 0 35 0 35 -105 0 -105 0 0 40 0 40
80 0 80 0 0 35 0 35 -80 0 -80 0 0 40 0 40 105 0 105 0 0 35 0 35 -150 0 -150
0 0 -185z"/>
<path d="M3750 1335 l0 -185 119 0 c125 0 175 11 191 40 6 10 10 79 10 154 0
133 0 135 -26 155 -24 19 -40 21 -160 21 l-134 0 0 -185z m238 11 c2 -64 -1
-103 -9 -112 -8 -10 -34 -14 -80 -14 l-69 0 0 115 0 116 78 -3 77 -3 3 -99z"/>
<path d="M1600 679 c-30 -94 -57 -178 -58 -186 -3 -11 6 -14 39 -11 39 3 44 6
53 36 l9 32 83 0 82 0 12 -35 c11 -33 14 -35 55 -35 l43 0 -61 185 -62 185
-70 0 -70 0 -55 -171z m159 22 c11 -36 21 -69 21 -73 0 -4 -25 -8 -56 -8 -41
0 -55 3 -52 13 3 6 15 43 28 80 12 38 26 65 30 60 4 -4 17 -37 29 -72z"/>
<path d="M1950 665 l0 -185 45 0 45 0 0 75 0 75 80 0 80 0 0 -75 0 -75 40 0
40 0 0 185 0 185 -40 0 -39 0 -3 -72 -3 -73 -77 -3 -78 -3 0 76 0 75 -45 0
-45 0 0 -185z"/>
<path d="M2340 665 l0 -185 40 0 40 0 1 118 1 117 41 -87 c57 -119 71 -119
129 0 l43 87 3 -117 3 -118 39 0 40 0 0 185 0 185 -44 0 -43 0 -49 -105 c-26
-58 -52 -105 -56 -105 -5 0 -31 47 -58 105 l-49 105 -40 0 -41 0 0 -185z"/>
<path d="M2770 665 l0 -185 150 0 150 0 0 35 0 35 -105 0 -105 0 0 40 0 40 80
0 80 0 0 35 0 35 -80 0 -80 0 0 40 0 40 105 0 105 0 0 35 0 35 -150 0 -150 0
0 -185z"/>
<path d="M3120 665 l0 -185 119 0 c125 0 175 11 191 40 6 10 10 79 10 154 0
133 0 135 -26 155 -24 19 -40 21 -160 21 l-134 0 0 -185z m238 11 c2 -64 -1
-103 -9 -112 -8 -10 -34 -14 -80 -14 l-69 0 0 115 0 116 78 -3 77 -3 3 -99z"/>
</g>
</svg>
