<svg width="440" height="305" viewBox="0 0 440 305" fill="none" xmlns="http://www.w3.org/2000/svg">
    <path class="Hexagon"
          d="M105.315 189.455L108.904 105.548L216.006 65.2337L319.514 108.826L315.925 192.733L208.824 233.047L105.315 189.455Z"
          stroke="black" stroke-width="4"/>
    <path class="Hexagon"
          d="M335.321 115.483L331.732 199.39L224.63 239.704L121.122 196.112L124.711 112.204L231.812 71.8904L335.321 115.483Z"
          stroke="black" stroke-width="4"/>
    <path class="letter"
          d="M193.196 119.886V121.886H195.196V119.886H193.196ZM179.54 119.886V117.886H177.54V119.886H179.54ZM179.54 156.918V158.918H181.54V156.918H179.54ZM168.571 156.918H166.571V158.918H168.571V156.918ZM168.571 119.886H170.571V117.886H168.571V119.886ZM155.165 119.886H153.165V121.886H155.165V119.886ZM155.165 111.418V109.418H153.165V111.418H155.165ZM193.196 111.418H195.196V109.418H193.196V111.418ZM193.196 117.886H179.54V121.886H193.196V117.886ZM177.54 119.886V156.918H181.54V119.886H177.54ZM179.54 154.918H168.571V158.918H179.54V154.918ZM170.571 156.918V119.886H166.571V156.918H170.571ZM168.571 117.886H155.165V121.886H168.571V117.886ZM157.165 119.886V111.418H153.165V119.886H157.165ZM155.165 113.418H193.196V109.418H155.165V113.418ZM191.196 111.418V119.886H195.196V111.418H191.196Z"
          fill="black"/>
    <path class="letter"
          d="M224.816 179.665V181.665H226.816V179.665H224.816ZM213.879 179.665H211.879V181.665H213.879V179.665ZM213.879 134.165V132.165H211.879V134.165H213.879ZM224.816 134.165H226.816V132.165H224.816V134.165ZM224.816 177.665H213.879V181.665H224.816V177.665ZM215.879 179.665V134.165H211.879V179.665H215.879ZM213.879 136.165H224.816V132.165H213.879V136.165ZM222.816 134.165V179.665H226.816V134.165H222.816Z"
          fill="black"/>
    <path class="letter"
          d="M284.723 187.007L286.721 187.099L286.817 185.007H284.723V187.007ZM282.161 195.413L283.84 196.499L283.844 196.492L282.161 195.413ZM275.567 201.038L274.715 199.228L274.71 199.231L275.567 201.038ZM248.942 166.757L247.129 165.912L247.127 165.917L248.942 166.757ZM255.661 159.007L256.716 160.705L256.725 160.7L255.661 159.007ZM279.098 160.632L277.786 162.141L277.791 162.145L279.098 160.632ZM284.817 172.632V174.632H287.005L286.809 172.453L284.817 172.632ZM273.879 172.632L271.88 172.692L271.939 174.632H273.879V172.632ZM257.786 177.694L255.786 177.666L255.786 177.68V177.694H257.786ZM259.598 191.319L257.868 192.322L257.872 192.329L257.876 192.335L259.598 191.319ZM273.817 187.007V185.007H271.88L271.818 186.942L273.817 187.007ZM282.725 186.915C282.594 189.764 281.832 192.219 280.477 194.333L283.844 196.492C285.614 193.731 286.561 190.582 286.721 187.099L282.725 186.915ZM280.481 194.327C279.139 196.402 277.241 198.039 274.715 199.228L276.419 202.847C279.559 201.37 282.057 199.257 283.84 196.499L280.481 194.327ZM274.71 199.231C272.206 200.418 269.288 201.038 265.911 201.038V205.038C269.783 205.038 273.303 204.325 276.424 202.845L274.71 199.231ZM265.911 201.038C260.41 201.038 256.284 199.269 253.285 195.871L250.286 198.517C254.162 202.91 259.453 205.038 265.911 205.038V201.038ZM253.285 195.871C250.272 192.456 248.629 187.491 248.629 180.694H244.629C244.629 188.106 246.424 194.141 250.286 198.517L253.285 195.871ZM248.629 180.694V178.444H244.629V180.694H248.629ZM248.629 178.444C248.629 174.215 249.36 170.616 250.757 167.596L247.127 165.917C245.44 169.564 244.629 173.757 244.629 178.444H248.629ZM250.755 167.601C252.167 164.571 254.155 162.297 256.716 160.705L254.605 157.308C251.333 159.341 248.842 162.234 247.129 165.912L250.755 167.601ZM256.725 160.7C259.288 159.089 262.285 158.257 265.786 158.257V154.257C261.62 154.257 257.867 155.257 254.596 157.313L256.725 160.7ZM265.786 158.257C270.945 158.257 274.878 159.612 277.786 162.141L280.411 159.122C276.61 155.818 271.668 154.257 265.786 154.257V158.257ZM277.791 162.145C280.691 164.649 282.405 168.136 282.825 172.81L286.809 172.453C286.312 166.919 284.214 162.406 280.405 159.118L277.791 162.145ZM284.817 170.632H273.879V174.632H284.817V170.632ZM275.879 172.571C275.788 169.554 275.021 166.923 273.14 165.191L270.431 168.134C271.175 168.819 271.804 170.168 271.88 172.692L275.879 172.571ZM273.14 165.191C271.31 163.506 268.727 162.85 265.786 162.85V166.85C268.219 166.85 269.637 167.403 270.431 168.134L273.14 165.191ZM265.786 162.85C262.476 162.85 259.778 164.14 258.088 166.856L261.484 168.97C262.335 167.602 263.637 166.85 265.786 166.85V162.85ZM258.088 166.856C256.521 169.374 255.85 173.089 255.786 177.666L259.785 177.722C259.847 173.341 260.509 170.535 261.484 168.97L258.088 166.856ZM255.786 177.694V180.913H259.786V177.694H255.786ZM255.786 180.913C255.786 185.828 256.379 189.755 257.868 192.322L261.328 190.316C260.401 188.716 259.786 185.706 259.786 180.913H255.786ZM257.876 192.335C259.552 195.177 262.415 196.444 265.911 196.444V192.444C263.448 192.444 262.103 191.628 261.321 190.303L257.876 192.335ZM265.911 196.444C268.721 196.444 271.196 195.783 273.022 194.156L270.362 191.169C269.521 191.918 268.142 192.444 265.911 192.444V196.444ZM273.022 194.156C274.919 192.467 275.723 189.955 275.816 187.071L271.818 186.942C271.744 189.225 271.132 190.484 270.362 191.169L273.022 194.156ZM273.817 189.007H284.723V185.007H273.817V189.007Z"
          fill="black"/>
    <path d="M68.092 277.201C68.092 274.393 68.924 271.611 70.588 268.855C68.664 267.633 67.702 265.826 67.702 263.434C67.702 260.548 68.976 257.987 71.524 255.751C74.384 253.229 78.076 251.968 82.6 251.968C84.68 251.968 86.916 252.267 89.308 252.865C89.854 252.995 92.181 254.009 96.289 255.907C100.397 257.779 103.348 258.715 105.142 258.715C106.338 258.715 107.235 258.377 107.833 257.701C108.145 257.363 108.301 256.999 108.301 256.609C108.301 256.219 108.132 255.868 107.794 255.556C107.612 255.296 107.521 255.127 107.521 255.049C107.521 254.971 107.586 254.932 107.716 254.932C107.872 254.932 108.119 255.166 108.457 255.634C108.821 256.076 109.003 256.609 109.003 257.233C109.003 257.831 108.587 258.416 107.755 258.988C106.949 259.534 105.922 259.807 104.674 259.807C102.724 259.807 99.695 258.871 95.587 256.999C91.479 255.101 88.892 254.048 87.826 253.84C86.786 253.632 85.59 253.528 84.238 253.528C78.856 253.528 74.618 255.27 71.524 258.754C71.16 259.144 70.731 259.937 70.237 261.133C69.743 262.303 69.496 263.434 69.496 264.526C69.496 266.034 70.029 267.204 71.095 268.036C72.447 266.06 74.046 264.487 75.892 263.317C77.738 262.147 79.61 261.562 81.508 261.562C83.848 261.562 85.018 262.472 85.018 264.292C85.018 266.476 83.731 268.855 81.157 271.429C78.609 273.977 76.243 275.251 74.059 275.251C72.655 275.251 71.953 274.653 71.953 273.457C71.953 273.041 72.057 272.677 72.265 272.365C72.499 272.053 72.772 271.936 73.084 272.014L73.006 272.911C73.006 273.301 73.604 273.496 74.8 273.496C76.568 273.496 78.427 272.586 80.377 270.766C82.353 268.946 83.549 267.165 83.965 265.423C84.069 265.033 84.121 264.682 84.121 264.37C84.121 263.2 83.367 262.615 81.859 262.615C80.377 262.615 78.83 263.187 77.218 264.331C75.632 265.475 74.137 266.983 72.733 268.855C72.837 268.907 73.24 269.011 73.942 269.167L76.282 269.245C77.426 269.297 77.998 269.427 77.998 269.635C77.998 269.999 77.452 270.181 76.36 270.181C76.282 270.181 76.204 270.181 76.126 270.181C74.54 270.181 73.24 269.986 72.226 269.596C70.224 272.664 69.223 275.485 69.223 278.059C69.223 281.387 70.51 283.051 73.084 283.051C75.996 283.051 79.025 281.023 82.171 276.967L89.815 265.579C92.675 261.419 95.158 259.287 97.264 259.183L98.746 259.534C99.214 259.794 99.448 260.184 99.448 260.704C99.448 261.224 99.318 261.484 99.058 261.484L97.81 261.289C96.016 261.289 93.715 263.226 90.907 267.1L83.146 277.942C79.818 281.816 76.633 283.753 73.591 283.753C71.511 283.753 70.068 283.194 69.262 282.076C68.482 280.958 68.092 279.333 68.092 277.201Z"
          fill="black"/>
    <path d="M102.027 279.658C100.493 279.658 99.7262 278.761 99.7262 276.967C99.7262 275.953 100.077 274.835 100.779 273.613C101.507 272.365 102.391 270.909 103.431 269.245C100.103 270.909 97.0872 273.366 94.3832 276.616C92.8752 278.878 91.9912 280.009 91.7312 280.009C90.9772 280.009 90.6002 279.788 90.6002 279.346C90.6002 279.112 90.7562 278.696 91.0682 278.098C93.5902 273.6 95.5012 270.311 96.8012 268.231C99.8952 263.265 102.079 260.574 103.353 260.158C103.405 260.132 103.457 260.119 103.509 260.119C103.847 260.119 104.081 260.392 104.211 260.938C104.133 261.484 102.781 263.46 100.155 266.866C97.4252 270.324 95.8782 272.586 95.5142 273.652C96.4762 272.95 98.1532 271.767 100.545 270.103C103.119 268.309 104.822 267.412 105.654 267.412C106.486 267.412 106.902 267.737 106.902 268.387C106.902 268.491 106.889 268.569 106.863 268.621C106.863 268.647 105.966 269.869 104.172 272.287C102.378 274.705 101.481 276.486 101.481 277.63C101.481 278.228 101.702 278.527 102.144 278.527C103.548 278.475 105.654 276.785 108.462 273.457C108.696 273.223 108.865 273.106 108.969 273.106C109.099 273.106 109.164 273.184 109.164 273.34C109.164 273.86 107.877 275.264 105.303 277.552C103.691 278.956 102.599 279.658 102.027 279.658Z"
          fill="black"/>
    <path d="M115.91 263.902C116.3 263.902 116.664 264.032 117.002 264.292C117.366 264.526 117.548 264.812 117.548 265.15C117.548 265.488 117.379 265.787 117.041 266.047C116.729 266.281 116.378 266.398 115.988 266.398C115.598 266.398 115.234 266.255 114.896 265.969C114.584 265.683 114.428 265.358 114.428 264.994C114.428 264.266 114.922 263.902 115.91 263.902ZM108.851 280.243C107.525 280.243 106.862 279.385 106.862 277.669C106.862 276.265 107.629 274.328 109.163 271.858C110.697 269.362 111.932 268.101 112.868 268.075C113.128 268.075 113.414 268.179 113.726 268.387C114.064 268.595 114.233 268.803 114.233 269.011C114.103 269.193 113.947 269.401 113.765 269.635C113.583 269.843 113.388 270.077 113.18 270.337C112.972 270.597 112.686 270.974 112.322 271.468C111.958 271.936 111.607 272.391 111.269 272.833C109.319 275.355 108.344 277.097 108.344 278.059C108.344 278.995 108.669 279.463 109.319 279.463C109.865 279.463 110.606 279.164 111.542 278.566C113.726 277.214 115.455 275.732 116.729 274.12C117.197 273.522 117.509 273.223 117.665 273.223C117.847 273.223 117.938 273.327 117.938 273.535C117.938 273.743 117.639 274.159 117.041 274.783C116.443 275.407 115.962 275.901 115.598 276.265C115.26 276.629 115.026 276.876 114.896 277.006C114.766 277.11 114.519 277.331 114.155 277.669C113.817 277.981 113.557 278.202 113.375 278.332C113.193 278.462 112.933 278.657 112.595 278.917C112.257 279.177 111.958 279.372 111.698 279.502C111.438 279.606 111.139 279.736 110.801 279.892C110.255 280.126 109.605 280.243 108.851 280.243Z"
          fill="black"/>
    <path d="M118.234 280.321C117.948 280.321 117.688 280.282 117.454 280.204C115.79 279.736 114.958 278.8 114.958 277.396C114.958 275.576 116.102 273.47 118.39 271.078C120.678 268.686 122.732 267.49 124.552 267.49C125.15 267.49 125.631 267.659 125.995 267.997C126.385 268.309 126.58 268.699 126.58 269.167C126.58 270.623 125.475 272.014 123.265 273.34C121.081 274.666 119.3 275.329 117.922 275.329C117.714 275.329 117.532 275.303 117.376 275.251C116.986 275.953 116.791 276.694 116.791 277.474C116.791 278.826 117.428 279.502 118.702 279.502C120.002 279.502 121.679 278.631 123.733 276.889C125.319 275.615 126.671 274.263 127.789 272.833C128.023 272.521 128.218 272.365 128.374 272.365C128.556 272.365 128.647 272.443 128.647 272.599C128.647 272.755 128.543 272.976 128.335 273.262C126.931 275.108 125.241 276.746 123.265 278.176C121.289 279.606 119.612 280.321 118.234 280.321ZM125.605 269.089C125.605 268.777 125.267 268.621 124.591 268.621C123.941 268.621 123.005 269.128 121.783 270.142C120.145 271.494 118.871 272.911 117.961 274.393C118.117 274.445 118.286 274.471 118.468 274.471C119.456 274.471 120.769 273.951 122.407 272.911C124.071 271.845 125.111 270.688 125.527 269.44C125.579 269.31 125.605 269.193 125.605 269.089Z"
          fill="black"/>
    <path d="M134.218 280.009C132.268 280.009 131.293 278.93 131.293 276.772C131.293 275.68 131.579 274.484 132.151 273.184C132.723 271.884 133.347 270.792 134.023 269.908C133.893 269.934 133.724 269.947 133.516 269.947C132.892 269.947 132.372 269.505 131.956 268.621L129.07 272.365C127.458 274.367 126.522 275.368 126.262 275.368C126.132 275.368 126.067 275.316 126.067 275.212C126.067 274.952 126.288 274.575 126.73 274.081C128.992 271.455 130.591 269.232 131.527 267.412C132.125 265.15 132.879 264.019 133.789 264.019C134.387 264.019 134.686 264.279 134.686 264.799C134.686 265.319 134.361 265.982 133.711 266.788L132.775 268.036C132.775 268.582 133.178 268.855 133.984 268.855C134.452 268.855 134.972 268.686 135.544 268.348L136.558 267.724C136.61 267.698 136.74 267.685 136.948 267.685C137.156 267.685 137.377 267.815 137.611 268.075C137.845 268.335 137.923 268.569 137.845 268.777L135.154 272.17C133.49 274.302 132.658 275.992 132.658 277.24C132.658 278.462 133.23 279.073 134.374 279.073C135.57 279.073 137.039 278.436 138.781 277.162C139.821 276.408 140.77 275.563 141.628 274.627C142.434 273.691 142.876 273.223 142.954 273.223C143.136 273.223 143.227 273.327 143.227 273.535C143.227 273.717 143.11 273.938 142.876 274.198L141.628 275.602C140.926 276.33 140.146 277.032 139.288 277.708C137.234 279.242 135.544 280.009 134.218 280.009Z"
          fill="black"/>
    <path d="M147.889 267.49C148.591 267.49 148.942 267.763 148.942 268.309C148.942 268.465 148.903 268.621 148.825 268.777C146.485 272.027 145.081 274.484 144.613 276.148C150.671 270.09 154.35 267.061 155.65 267.061C155.78 267.035 155.897 267.022 156.001 267.022C156.729 267.022 157.093 267.347 157.093 267.997C157.093 268.127 157.067 268.257 157.015 268.387C156.963 268.517 156.443 269.219 155.455 270.493C154.311 271.845 153.336 273.145 152.53 274.393C151.75 275.641 151.36 276.681 151.36 277.513C151.36 278.345 151.542 278.761 151.906 278.761C153.05 278.761 155.039 277.188 157.873 274.042C157.925 273.99 158.016 273.873 158.146 273.691C158.536 273.223 158.77 272.989 158.848 272.989C158.926 272.989 158.965 273.119 158.965 273.379C158.965 273.639 158.783 273.977 158.419 274.393C155.195 278.059 152.907 279.892 151.555 279.892C150.281 279.892 149.644 279.19 149.644 277.786C149.644 276.382 150.164 274.77 151.204 272.95L153.7 268.894C151.932 270.194 150.359 271.624 148.981 273.184C147.603 274.718 146.342 276.213 145.198 277.669C144.08 279.125 143.43 279.853 143.248 279.853C142.858 279.853 142.546 279.697 142.312 279.385C142.104 279.047 142 278.644 142 278.176C142 277.682 142.169 277.032 142.507 276.226C142.845 275.42 143.274 274.445 143.794 273.301L141.454 275.758C140.882 276.33 140.531 276.616 140.401 276.616C140.245 276.616 140.167 276.538 140.167 276.382C140.167 276.2 140.271 276.005 140.479 275.797C141.441 274.835 142.273 273.912 142.975 273.028C143.651 272.144 145.042 270.454 147.148 267.958C147.382 267.646 147.629 267.49 147.889 267.49Z"
          fill="black"/>
    <path d="M167.519 271.546C167.519 272.456 166.648 273.977 164.906 276.109C162.852 278.631 161.097 279.892 159.641 279.892H159.017C158.341 279.892 157.808 279.541 157.418 278.839C157.106 278.345 156.95 277.799 156.95 277.201C156.95 275.641 158.081 273.457 160.343 270.649C162.631 267.815 164.477 266.398 165.881 266.398C167.207 266.398 167.87 267.1 167.87 268.504C167.87 268.868 167.805 269.336 167.675 269.908C167.701 269.986 167.948 270.025 168.416 270.025C168.884 270.025 169.599 269.778 170.561 269.284C170.535 269.726 169.508 270.363 167.48 271.195C167.506 271.299 167.519 271.416 167.519 271.546ZM164.984 269.518C164.1 269.518 162.839 270.558 161.201 272.638C159.589 274.718 158.783 276.252 158.783 277.24C158.783 278.228 159.095 278.722 159.719 278.722C160.837 278.722 162.254 277.708 163.97 275.68C165.686 273.652 166.544 272.196 166.544 271.312C166.128 271.078 165.608 270.48 164.984 269.518Z"
          fill="black"/>
    <path d="M196.155 264.37L195.882 263.317C195.882 263.109 195.986 263.005 196.194 263.005C196.272 263.005 196.376 263.044 196.506 263.122C197.104 263.564 197.403 264.149 197.403 264.877C197.403 265.605 196.935 266.32 195.999 267.022C195.063 267.698 193.88 268.036 192.45 268.036C192.008 268.036 191.566 267.997 191.124 267.919C189.33 271.221 187.146 274.263 184.572 277.045C181.14 280.685 178.02 282.505 175.212 282.505C171.156 282.505 169.128 280.113 169.128 275.329C169.128 271.377 170.181 268.192 172.287 265.774C174.055 263.694 176.083 262.654 178.371 262.654C178.969 262.654 179.58 262.758 180.204 262.966C181.738 263.564 182.505 264.838 182.505 266.788C182.505 268.712 181.712 270.727 180.126 272.833C178.54 274.939 176.915 275.992 175.251 275.992C173.379 275.992 172.443 274.978 172.443 272.95C172.443 272.378 172.56 271.78 172.794 271.156C173.054 270.532 173.34 270.22 173.652 270.22C173.886 270.22 174.003 270.337 174.003 270.571C174.003 270.701 173.886 271.026 173.652 271.546C173.418 272.066 173.301 272.534 173.301 272.95C173.301 273.34 173.509 273.717 173.925 274.081C174.367 274.419 174.822 274.588 175.29 274.588C176.824 274.588 178.241 273.652 179.541 271.78C180.867 269.882 181.53 268.036 181.53 266.242C181.53 264.864 181.036 263.954 180.048 263.512C179.71 263.382 179.359 263.317 178.995 263.317C177.149 263.317 175.303 264.591 173.457 267.139C171.663 269.713 170.766 272.534 170.766 275.602C170.766 277.292 171.13 278.67 171.858 279.736C172.612 280.828 173.652 281.374 174.978 281.374C178.41 281.374 182.882 276.707 188.394 267.373C185.534 266.515 184.104 264.825 184.104 262.303C184.104 258.949 185.807 256.271 189.213 254.269C191.371 253.021 193.464 252.397 195.492 252.397C197.078 252.397 198.508 252.657 199.782 253.177C201.576 253.879 202.473 254.945 202.473 256.375C202.473 256.687 202.395 256.986 202.239 257.272C202.109 257.558 201.966 257.701 201.81 257.701C201.472 257.363 201.069 257.194 200.601 257.194C198.391 257.194 195.362 260.483 191.514 267.061C191.722 267.087 191.943 267.1 192.177 267.1C193.061 267.1 193.945 266.84 194.829 266.32C195.713 265.8 196.155 265.15 196.155 264.37ZM196.428 253.489C195.102 253.489 193.568 253.879 191.826 254.659C190.11 255.413 188.732 256.531 187.692 258.013C186.678 259.495 186.171 261.172 186.171 263.044C186.171 264.916 187.133 266.034 189.057 266.398C190.487 264.058 192.333 261.731 194.595 259.417C196.857 257.077 198.742 255.907 200.25 255.907C200.64 255.907 200.978 255.998 201.264 256.18C201.238 255.452 200.731 254.815 199.743 254.269C198.859 253.749 197.754 253.489 196.428 253.489Z"
          fill="black"/>
    <path d="M199.671 270.103C199.671 268.335 200.217 267.451 201.309 267.451C201.413 267.451 201.53 267.464 201.66 267.49C202.102 267.568 202.323 267.906 202.323 268.504C202.323 269.102 202.219 269.856 202.011 270.766C201.803 271.442 201.66 271.949 201.582 272.287C201.66 272.729 201.868 273.301 202.206 274.003C202.57 274.679 203.051 275.017 203.649 275.017C204.273 275.017 204.962 274.601 205.716 273.769C205.872 273.587 206.015 273.496 206.145 273.496C206.301 273.496 206.379 273.587 206.379 273.769C206.405 273.925 206.314 274.146 206.106 274.432C205.3 275.394 204.455 275.875 203.571 275.875C202.297 275.875 201.27 274.939 200.49 273.067C199.684 274.913 198.54 276.512 197.058 277.864C195.576 279.19 194.107 279.853 192.651 279.853C191.273 279.853 190.584 278.813 190.584 276.733C190.584 275.095 192.105 272.079 195.147 267.685C198.215 263.291 200.555 261.094 202.167 261.094C202.505 261.094 202.804 261.198 203.064 261.406C203.35 261.614 203.493 261.861 203.493 262.147C203.493 262.121 203.298 262.316 202.908 262.732C202.544 263.148 201.517 264.266 199.827 266.086C198.163 267.906 196.525 269.908 194.913 272.092C193.301 274.276 192.495 275.966 192.495 277.162C192.495 277.474 192.573 277.812 192.729 278.176C192.911 278.54 193.197 278.722 193.587 278.722C194.731 278.722 196.07 277.838 197.604 276.07C198.878 274.51 199.658 273.197 199.944 272.131C199.762 271.585 199.671 270.909 199.671 270.103Z"
          fill="black"/>
    <path d="M212.979 280.009C211.029 280.009 210.054 278.93 210.054 276.772C210.054 275.68 210.34 274.484 210.912 273.184C211.484 271.884 212.108 270.792 212.784 269.908C212.654 269.934 212.485 269.947 212.277 269.947C211.653 269.947 211.133 269.505 210.717 268.621L207.831 272.365C206.219 274.367 205.283 275.368 205.023 275.368C204.893 275.368 204.828 275.316 204.828 275.212C204.828 274.952 205.049 274.575 205.491 274.081C207.753 271.455 209.352 269.232 210.288 267.412C210.886 265.15 211.64 264.019 212.55 264.019C213.148 264.019 213.447 264.279 213.447 264.799C213.447 265.319 213.122 265.982 212.472 266.788L211.536 268.036C211.536 268.582 211.939 268.855 212.745 268.855C213.213 268.855 213.733 268.686 214.305 268.348L215.319 267.724C215.371 267.698 215.501 267.685 215.709 267.685C215.917 267.685 216.138 267.815 216.372 268.075C216.606 268.335 216.684 268.569 216.606 268.777L213.915 272.17C212.251 274.302 211.419 275.992 211.419 277.24C211.419 278.462 211.991 279.073 213.135 279.073C214.331 279.073 215.8 278.436 217.542 277.162C218.582 276.408 219.531 275.563 220.389 274.627C221.195 273.691 221.637 273.223 221.715 273.223C221.897 273.223 221.988 273.327 221.988 273.535C221.988 273.717 221.871 273.938 221.637 274.198L220.389 275.602C219.687 276.33 218.907 277.032 218.049 277.708C215.995 279.242 214.305 280.009 212.979 280.009Z"
          fill="black"/>
    <path d="M233.359 268.153L233.905 268.036C234.191 268.036 234.464 268.153 234.724 268.387C234.984 268.621 235.114 268.803 235.114 268.933C235.114 269.063 234.308 270.324 232.696 272.716C231.084 275.082 230.278 276.733 230.278 277.669C230.278 277.747 230.291 277.825 230.317 277.903C230.447 278.501 230.733 278.8 231.175 278.8C232.527 278.8 234.997 276.564 238.585 272.092C238.663 271.988 238.754 271.936 238.858 271.936C238.962 271.936 239.014 272.04 239.014 272.248C239.014 272.43 238.897 272.677 238.663 272.989C235.335 277.435 232.8 279.658 231.058 279.658C230.824 279.658 230.603 279.619 230.395 279.541C229.251 279.099 228.679 278.241 228.679 276.967C228.679 276.525 228.731 276.083 228.835 275.641L226.417 277.981C224.883 279.333 223.765 280.009 223.063 280.009C222.387 280.009 221.737 279.788 221.113 279.346C220.411 278.826 220.06 278.137 220.06 277.279C220.06 275.381 221.386 273.119 224.038 270.493C226.69 267.841 229.121 266.515 231.331 266.515C232.189 266.515 232.761 266.814 233.047 267.412C233.125 267.62 233.19 267.802 233.242 267.958C233.294 268.088 233.333 268.153 233.359 268.153ZM221.698 277.747C221.698 278.683 222.023 279.151 222.673 279.151C224.181 279.151 226.235 277.5 228.835 274.198L232.969 268.504C232.761 268.14 232.423 267.958 231.955 267.958C230.369 267.958 228.263 269.193 225.637 271.663C223.011 274.107 221.698 276.135 221.698 277.747Z"
          fill="black"/>
    <path d="M245.687 279.658C244.153 279.658 243.386 278.761 243.386 276.967C243.386 275.953 243.737 274.835 244.439 273.613C245.167 272.365 246.051 270.909 247.091 269.245C243.763 270.909 240.747 273.366 238.043 276.616C236.535 278.878 235.651 280.009 235.391 280.009C234.637 280.009 234.26 279.788 234.26 279.346C234.26 279.112 234.416 278.696 234.728 278.098C237.25 273.6 239.161 270.311 240.461 268.231C243.555 263.265 245.739 260.574 247.013 260.158C247.065 260.132 247.117 260.119 247.169 260.119C247.507 260.119 247.741 260.392 247.871 260.938C247.793 261.484 246.441 263.46 243.815 266.866C241.085 270.324 239.538 272.586 239.174 273.652C240.136 272.95 241.813 271.767 244.205 270.103C246.779 268.309 248.482 267.412 249.314 267.412C250.146 267.412 250.562 267.737 250.562 268.387C250.562 268.491 250.549 268.569 250.523 268.621C250.523 268.647 249.626 269.869 247.832 272.287C246.038 274.705 245.141 276.486 245.141 277.63C245.141 278.228 245.362 278.527 245.804 278.527C247.208 278.475 249.314 276.785 252.122 273.457C252.356 273.223 252.525 273.106 252.629 273.106C252.759 273.106 252.824 273.184 252.824 273.34C252.824 273.86 251.537 275.264 248.963 277.552C247.351 278.956 246.259 279.658 245.687 279.658Z"
          fill="black"/>
    <path d="M259.57 263.902C259.96 263.902 260.324 264.032 260.662 264.292C261.026 264.526 261.208 264.812 261.208 265.15C261.208 265.488 261.039 265.787 260.701 266.047C260.389 266.281 260.038 266.398 259.648 266.398C259.258 266.398 258.894 266.255 258.556 265.969C258.244 265.683 258.088 265.358 258.088 264.994C258.088 264.266 258.582 263.902 259.57 263.902ZM252.511 280.243C251.185 280.243 250.522 279.385 250.522 277.669C250.522 276.265 251.289 274.328 252.823 271.858C254.357 269.362 255.592 268.101 256.528 268.075C256.788 268.075 257.074 268.179 257.386 268.387C257.724 268.595 257.893 268.803 257.893 269.011C257.763 269.193 257.607 269.401 257.425 269.635C257.243 269.843 257.048 270.077 256.84 270.337C256.632 270.597 256.346 270.974 255.982 271.468C255.618 271.936 255.267 272.391 254.929 272.833C252.979 275.355 252.004 277.097 252.004 278.059C252.004 278.995 252.329 279.463 252.979 279.463C253.525 279.463 254.266 279.164 255.202 278.566C257.386 277.214 259.115 275.732 260.389 274.12C260.857 273.522 261.169 273.223 261.325 273.223C261.507 273.223 261.598 273.327 261.598 273.535C261.598 273.743 261.299 274.159 260.701 274.783C260.103 275.407 259.622 275.901 259.258 276.265C258.92 276.629 258.686 276.876 258.556 277.006C258.426 277.11 258.179 277.331 257.815 277.669C257.477 277.981 257.217 278.202 257.035 278.332C256.853 278.462 256.593 278.657 256.255 278.917C255.917 279.177 255.618 279.372 255.358 279.502C255.098 279.606 254.799 279.736 254.461 279.892C253.915 280.126 253.265 280.243 252.511 280.243Z"
          fill="black"/>
    <path d="M278.547 279.346C276.779 279.346 275.895 278.527 275.895 276.889C275.895 275.953 276.311 274.679 277.143 273.067C277.975 271.429 278.846 270.051 279.756 268.933C278.144 269.713 276.285 271.13 274.179 273.184C272.073 275.212 270.604 277.344 269.772 279.58C269.642 279.788 269.421 279.892 269.109 279.892C268.485 279.892 268.173 279.541 268.173 278.839C268.433 277.409 269.018 275.771 269.928 273.925C270.214 273.327 271.059 271.585 272.463 268.699C270.435 270.025 268.706 271.455 267.276 272.989C265.872 274.497 264.559 276.018 263.337 277.552C262.141 279.086 261.465 279.853 261.309 279.853C260.971 279.853 260.672 279.697 260.412 279.385C260.178 279.073 260.061 278.761 260.061 278.449C260.061 277.981 260.737 276.265 262.089 273.301L259.749 275.758C259.177 276.33 258.826 276.616 258.696 276.616C258.54 276.616 258.462 276.538 258.462 276.382C258.462 276.2 258.566 276.005 258.774 275.797C259.736 274.835 260.594 273.873 261.348 272.911C262.102 271.949 263.35 270.233 265.092 267.763C265.378 267.373 265.781 267.178 266.301 267.178C266.821 267.178 267.081 267.425 267.081 267.919C267.081 268.101 266.392 269.375 265.014 271.741C263.636 274.081 262.869 275.55 262.713 276.148C263.779 274.978 265.378 273.405 267.51 271.429C270.708 268.465 272.814 266.983 273.828 266.983C274.14 266.983 274.426 267.074 274.686 267.256C274.946 267.438 275.076 267.646 275.076 267.88C275.076 268.088 274.569 269.063 273.555 270.805C272.567 272.599 272.021 273.665 271.917 274.003C274.803 271.585 276.246 270.363 276.246 270.337C278.69 268.439 280.445 267.49 281.511 267.49C281.823 267.49 282.109 267.594 282.369 267.802C282.655 267.984 282.798 268.205 282.798 268.465C282.798 268.517 281.953 269.622 280.263 271.78C278.573 273.912 277.624 275.667 277.416 277.045C277.364 277.513 277.455 277.864 277.689 278.098C277.923 278.332 278.339 278.449 278.937 278.449C279.561 278.449 280.458 278.033 281.628 277.201C282.824 276.343 284.033 275.199 285.255 273.769C285.723 273.249 286.035 272.989 286.191 272.989C286.373 272.989 286.464 273.054 286.464 273.184C286.464 273.366 286.347 273.574 286.113 273.808C284.839 275.342 283.461 276.655 281.979 277.747C280.523 278.813 279.379 279.346 278.547 279.346Z"
          fill="black"/>
    <path d="M297.496 268.153L298.042 268.036C298.328 268.036 298.601 268.153 298.861 268.387C299.121 268.621 299.251 268.803 299.251 268.933C299.251 269.063 298.445 270.324 296.833 272.716C295.221 275.082 294.415 276.733 294.415 277.669C294.415 277.747 294.428 277.825 294.454 277.903C294.584 278.501 294.87 278.8 295.312 278.8C296.664 278.8 299.134 276.564 302.722 272.092C302.8 271.988 302.891 271.936 302.995 271.936C303.099 271.936 303.151 272.04 303.151 272.248C303.151 272.43 303.034 272.677 302.8 272.989C299.472 277.435 296.937 279.658 295.195 279.658C294.961 279.658 294.74 279.619 294.532 279.541C293.388 279.099 292.816 278.241 292.816 276.967C292.816 276.525 292.868 276.083 292.972 275.641L290.554 277.981C289.02 279.333 287.902 280.009 287.2 280.009C286.524 280.009 285.874 279.788 285.25 279.346C284.548 278.826 284.197 278.137 284.197 277.279C284.197 275.381 285.523 273.119 288.175 270.493C290.827 267.841 293.258 266.515 295.468 266.515C296.326 266.515 296.898 266.814 297.184 267.412C297.262 267.62 297.327 267.802 297.379 267.958C297.431 268.088 297.47 268.153 297.496 268.153ZM285.835 277.747C285.835 278.683 286.16 279.151 286.81 279.151C288.318 279.151 290.372 277.5 292.972 274.198L297.106 268.504C296.898 268.14 296.56 267.958 296.092 267.958C294.506 267.958 292.4 269.193 289.774 271.663C287.148 274.107 285.835 276.135 285.835 277.747Z"
          fill="black"/>
    <path d="M321.68 268.972C320.12 268.972 318.807 268.621 317.741 267.919C316.675 267.191 316.142 266.281 316.142 265.189C316.142 263.811 317.039 262.433 318.833 261.055C319.145 260.821 319.379 260.704 319.535 260.704C319.691 260.704 319.769 260.756 319.769 260.86C319.769 261.12 319.561 261.328 319.145 261.484C317.689 262.654 316.961 263.837 316.961 265.033C316.961 265.891 317.351 266.619 318.131 267.217C318.911 267.789 319.886 268.075 321.056 268.075C323.604 268.075 326.009 266.853 328.271 264.409C329.441 263.135 330.026 261.666 330.026 260.002C330.026 258.338 329.402 257.103 328.154 256.297C327.114 255.569 325.71 255.205 323.942 255.205C321.394 255.205 318.833 255.842 316.259 257.116C313.087 258.65 310.214 261.042 307.64 264.292C305.092 267.516 303.818 270.623 303.818 273.613C303.818 275.979 304.624 277.812 306.236 279.112C307.848 280.386 309.85 281.023 312.242 281.023C314.972 281.023 317.65 280.36 320.276 279.034C322.278 277.994 324.007 276.668 325.463 275.056C325.879 274.588 326.204 274.354 326.438 274.354C326.594 274.354 326.672 274.497 326.672 274.783C326.672 275.043 326.529 275.316 326.243 275.602C324.865 277.058 322.876 278.462 320.276 279.814C317.078 281.504 313.854 282.349 310.604 282.349C307.38 282.349 304.975 281.283 303.389 279.151C302.323 277.747 301.79 276.07 301.79 274.12C301.79 273.262 301.894 272.339 302.102 271.351C302.804 268.023 304.65 264.786 307.64 261.64C309.798 259.378 312.359 257.623 315.323 256.375C318.287 255.101 321.095 254.464 323.747 254.464C325.151 254.464 326.373 254.633 327.413 254.971C330.247 255.855 331.664 257.636 331.664 260.314C331.664 261.952 331.183 263.369 330.221 264.565C327.829 267.503 324.982 268.972 321.68 268.972Z"
          fill="black"/>
    <path d="M337.342 263.902C337.732 263.902 338.096 264.032 338.434 264.292C338.798 264.526 338.98 264.812 338.98 265.15C338.98 265.488 338.811 265.787 338.473 266.047C338.161 266.281 337.81 266.398 337.42 266.398C337.03 266.398 336.666 266.255 336.328 265.969C336.016 265.683 335.86 265.358 335.86 264.994C335.86 264.266 336.354 263.902 337.342 263.902ZM330.283 280.243C328.957 280.243 328.294 279.385 328.294 277.669C328.294 276.265 329.061 274.328 330.595 271.858C332.129 269.362 333.364 268.101 334.3 268.075C334.56 268.075 334.846 268.179 335.158 268.387C335.496 268.595 335.665 268.803 335.665 269.011C335.535 269.193 335.379 269.401 335.197 269.635C335.015 269.843 334.82 270.077 334.612 270.337C334.404 270.597 334.118 270.974 333.754 271.468C333.39 271.936 333.039 272.391 332.701 272.833C330.751 275.355 329.776 277.097 329.776 278.059C329.776 278.995 330.101 279.463 330.751 279.463C331.297 279.463 332.038 279.164 332.974 278.566C335.158 277.214 336.887 275.732 338.161 274.12C338.629 273.522 338.941 273.223 339.097 273.223C339.279 273.223 339.37 273.327 339.37 273.535C339.37 273.743 339.071 274.159 338.473 274.783C337.875 275.407 337.394 275.901 337.03 276.265C336.692 276.629 336.458 276.876 336.328 277.006C336.198 277.11 335.951 277.331 335.587 277.669C335.249 277.981 334.989 278.202 334.807 278.332C334.625 278.462 334.365 278.657 334.027 278.917C333.689 279.177 333.39 279.372 333.13 279.502C332.87 279.606 332.571 279.736 332.233 279.892C331.687 280.126 331.037 280.243 330.283 280.243Z"
          fill="black"/>
    <path d="M344.853 279.229C344.099 279.671 343.163 279.892 342.045 279.892C340.953 279.892 340.108 279.528 339.51 278.8C338.938 278.072 338.444 276.915 338.028 275.329C337.56 275.797 337.235 276.031 337.053 276.031C336.923 276.031 336.858 275.94 336.858 275.758C336.858 275.576 336.923 275.42 337.053 275.29C337.911 274.224 339.367 272.69 341.421 270.688L346.335 266.086C347.739 264.76 348.571 264.097 348.831 264.097C349.663 264.097 350.079 264.409 350.079 265.033C350.079 265.345 349.949 265.657 349.689 265.969C349.455 266.255 349.273 266.489 349.143 266.671C349.039 266.827 348.922 266.983 348.792 267.139C348.324 267.945 347.843 269.609 347.349 272.131C346.881 274.653 346.517 276.408 346.257 277.396C348.415 277.37 350.638 275.966 352.926 273.184C353.186 272.924 353.381 272.794 353.511 272.794C353.641 272.794 353.706 272.885 353.706 273.067C353.706 273.223 353.589 273.444 353.355 273.73C351.847 275.498 350.443 276.733 349.143 277.435C348.363 277.825 347.349 278.15 346.101 278.41L344.853 279.229ZM339.588 274.9C339.588 275.784 339.874 276.512 340.446 277.084C341.044 277.63 341.707 277.903 342.435 277.903C343.163 277.903 343.722 277.76 344.112 277.474C344.632 277.188 345.139 275.992 345.633 273.886C346.153 271.78 346.465 269.921 346.569 268.309L346.725 266.983C345.295 268.049 343.761 269.427 342.123 271.117C340.511 272.807 339.679 273.925 339.627 274.471C339.601 274.627 339.588 274.77 339.588 274.9Z"
          fill="black"/>
    <path d="M358.868 279.229C358.114 279.671 357.178 279.892 356.06 279.892C354.968 279.892 354.123 279.528 353.525 278.8C352.953 278.072 352.459 276.915 352.043 275.329C351.575 275.797 351.25 276.031 351.068 276.031C350.938 276.031 350.873 275.94 350.873 275.758C350.873 275.576 350.938 275.42 351.068 275.29C351.926 274.224 353.382 272.69 355.436 270.688L360.35 266.086C361.754 264.76 362.586 264.097 362.846 264.097C363.678 264.097 364.094 264.409 364.094 265.033C364.094 265.345 363.964 265.657 363.704 265.969C363.47 266.255 363.288 266.489 363.158 266.671C363.054 266.827 362.937 266.983 362.807 267.139C362.339 267.945 361.858 269.609 361.364 272.131C360.896 274.653 360.532 276.408 360.272 277.396C362.43 277.37 364.653 275.966 366.941 273.184C367.201 272.924 367.396 272.794 367.526 272.794C367.656 272.794 367.721 272.885 367.721 273.067C367.721 273.223 367.604 273.444 367.37 273.73C365.862 275.498 364.458 276.733 363.158 277.435C362.378 277.825 361.364 278.15 360.116 278.41L358.868 279.229ZM353.603 274.9C353.603 275.784 353.889 276.512 354.461 277.084C355.059 277.63 355.722 277.903 356.45 277.903C357.178 277.903 357.737 277.76 358.127 277.474C358.647 277.188 359.154 275.992 359.648 273.886C360.168 271.78 360.48 269.921 360.584 268.309L360.74 266.983C359.31 268.049 357.776 269.427 356.138 271.117C354.526 272.807 353.694 273.925 353.642 274.471C353.616 274.627 353.603 274.77 353.603 274.9Z"
          fill="black"/>
    <path d="M367.697 280.321C367.411 280.321 367.151 280.282 366.917 280.204C365.253 279.736 364.421 278.8 364.421 277.396C364.421 275.576 365.565 273.47 367.853 271.078C370.141 268.686 372.195 267.49 374.015 267.49C374.613 267.49 375.094 267.659 375.458 267.997C375.848 268.309 376.043 268.699 376.043 269.167C376.043 270.623 374.938 272.014 372.728 273.34C370.544 274.666 368.763 275.329 367.385 275.329C367.177 275.329 366.995 275.303 366.839 275.251C366.449 275.953 366.254 276.694 366.254 277.474C366.254 278.826 366.891 279.502 368.165 279.502C369.465 279.502 371.142 278.631 373.196 276.889C374.782 275.615 376.134 274.263 377.252 272.833C377.486 272.521 377.681 272.365 377.837 272.365C378.019 272.365 378.11 272.443 378.11 272.599C378.11 272.755 378.006 272.976 377.798 273.262C376.394 275.108 374.704 276.746 372.728 278.176C370.752 279.606 369.075 280.321 367.697 280.321ZM375.068 269.089C375.068 268.777 374.73 268.621 374.054 268.621C373.404 268.621 372.468 269.128 371.246 270.142C369.608 271.494 368.334 272.911 367.424 274.393C367.58 274.445 367.749 274.471 367.931 274.471C368.919 274.471 370.232 273.951 371.87 272.911C373.534 271.845 374.574 270.688 374.99 269.44C375.042 269.31 375.068 269.193 375.068 269.089Z"
          fill="black"/>
</svg>
