<svg width="997" height="700" viewBox="0 0 997 700" fill="none" xmlns="http://www.w3.org/2000/svg">
    <g clip-path="url(#clip0)">
        <path opacity="0.1" d="M917.767 230.282H840.057V324.483H912.087C912.273 325.455 912.45 326.427 912.662 327.39H840.057V403.342L840.42 403.224C842.471 402.503 844.508 401.736 846.531 400.925L847.833 400.392C849.906 399.542 851.943 398.632 853.944 397.662C854.662 397.333 855.372 396.986 856.074 396.631C867.248 391.129 877.55 384.009 886.646 375.501C886.908 375.272 887.153 375.036 887.389 374.807C888.632 373.607 889.849 372.399 891.032 371.156L892.334 369.77C893.729 368.257 895.073 366.693 896.383 365.113L896.957 364.42C902.224 357.962 906.649 350.862 910.126 343.289C910.236 343.061 910.329 342.824 910.43 342.596C911.487 340.212 912.442 337.795 913.27 335.335C913.625 334.296 913.963 333.256 914.259 332.216C914.361 331.904 914.454 331.599 914.538 331.295C918.849 316.208 919.347 300.529 919.347 284.934C919.347 283.117 919.347 281.292 919.347 279.483C919.347 273.186 919.254 266.804 919.136 260.507C919.136 258.868 919.06 257.236 919.018 255.588C918.916 251.401 918.764 247.22 918.561 243.045C918.511 241.879 918.46 240.721 918.384 239.571C918.384 238.903 918.316 238.236 918.274 237.568C918.105 235.091 917.953 232.691 917.767 230.282Z" fill="#0E6BA8"/>
        <path opacity="0.1" d="M840.057 125.415H882.681C875.693 115.705 868.114 106.435 859.987 97.6575C853.648 90.7435 846.996 83.9986 840.031 77.5073L840.057 125.415Z" fill="#0E6BA8"/>
        <path opacity="0.1" d="M840.057 128.322V227.375H917.522C917.522 227.087 917.471 226.791 917.446 226.529C917.378 225.752 917.31 224.974 917.234 224.188C917.158 223.402 917.057 222.362 916.955 221.441C916.854 220.52 916.753 219.455 916.634 218.474C916.516 217.494 916.414 216.488 916.288 215.499C916.161 214.51 916.043 213.521 915.907 212.541C915.772 211.56 915.645 210.563 915.493 209.582C915.375 208.737 915.265 207.96 915.138 207.14C914.961 205.99 914.775 204.832 914.58 203.691C914.558 203.521 914.527 203.351 914.487 203.184C913.089 194.786 911.186 186.479 908.79 178.309C906.257 169.653 903.044 161.211 899.18 153.062C895.014 144.442 890.178 136.162 884.718 128.297L840.057 128.322Z" fill="#0E6BA8"/>
        <path opacity="0.1" d="M655.51 230.282V324.483H821.495V230.282H655.51ZM655.51 327.39V391.179C674.832 385.001 696.926 387.494 716.958 392.566C732.468 396.504 747.58 401.863 763.065 405.717C769.981 407.484 777.002 408.811 784.086 409.69L785.827 409.876C786.672 409.96 787.517 410.045 788.363 410.113L790.898 410.29H791.16H792.293C792.422 410.298 792.552 410.298 792.682 410.29L794.051 410.341H794.093C794.744 410.341 795.403 410.341 796.063 410.391H796.908C797.559 410.391 798.218 410.391 798.877 410.391H800.323H801.489C801.988 410.391 802.478 410.391 802.968 410.341C803.763 410.341 804.557 410.273 805.36 410.214L806.839 410.121L808.665 409.977C809.958 409.876 811.201 409.741 812.511 409.589C813.018 409.529 813.533 409.47 814.041 409.394L814.793 409.301C816.069 409.132 817.328 408.929 818.605 408.718C819.543 408.574 820.481 408.397 821.428 408.228V327.39H655.51ZM778.964 125.381V128.289H655.51V227.374H821.495V128.322H813.17V125.415H821.495V61.3973C789.208 35.3897 751.468 15.0197 709.435 5.61234C691.732 1.69382 673.64 -0.191959 655.51 -0.00841695V125.415L778.964 125.381ZM399.457 124.823L400.04 125.381H636.94V0.862166C594.763 4.36986 553.635 18.5358 520.476 42.0078C504.544 53.2747 490.234 66.6292 472.358 75.2759C462.977 79.9307 452.729 82.579 442.268 83.052L399.457 124.823ZM397.826 73.7376V101.926L420.714 79.5866C412.203 76.6452 405.492 74.6335 397.792 73.7714L397.826 73.7376ZM397.065 428.361H397.826V490.147C406.464 489.505 415.068 488.62 423.639 487.493C461.964 482.555 499.518 472.826 535.42 458.536C539.274 456.992 543.1 455.397 546.898 453.752C549.428 452.653 551.944 451.526 554.446 450.371C558.199 448.646 561.923 446.874 565.62 445.054C581.978 437.015 597.757 427.847 612.843 417.618C613.781 416.984 614.728 416.342 615.657 415.691C617.528 414.395 619.385 413.088 621.227 411.769C622.149 411.101 623.07 410.434 623.983 409.758L625.859 408.321C627.753 406.909 629.637 405.489 631.548 404.095C633.314 402.827 635.098 401.559 636.906 400.376V327.348H446.604C446.739 326.917 446.866 326.503 447.009 326.046C446.857 326.486 446.722 326.892 446.595 327.348H397.792V428.344L397.065 428.361ZM397.826 128.305V227.374H636.94V128.322L397.826 128.305ZM397.826 230.265V324.483H636.94V230.282L397.826 230.265ZM350.019 76.6367L379.23 105.146V73.6108C369.443 74.2194 359.706 75.228 350.019 76.6367ZM146.616 230.282V324.483H379.23V230.282H146.616ZM202.84 462.931C238.098 476.353 274.962 485.099 312.491 488.947H312.652C319.746 489.696 326.86 490.277 333.994 490.688H334.256C349.208 491.533 364.219 491.728 379.205 491.17V327.39H146.616L147.461 435.85L202.84 462.931ZM82.184 324.483H128.063V230.282H109.916C108.031 233.595 106.205 236.926 104.473 240.306C103.543 242.104 102.638 243.921 101.759 245.758C89.8164 270.549 82.2262 297.799 82.184 324.483ZM82.184 327.39C82.5559 346.526 86.8665 365.307 96.3246 382.66C104.185 397.071 115.106 409.707 128.029 420.695V327.39H82.184ZM111.581 227.374H128.029V202.863C122.101 210.718 116.621 218.902 111.615 227.374H111.581ZM214.639 125.415H373.745L374.32 124.857L373.475 124.012L328.737 80.3726C315.458 83.1443 302.345 86.6575 289.459 90.8957C288.242 91.293 287.025 91.7409 285.816 92.1213C260.935 100.56 237.065 111.726 214.639 125.415ZM146.616 180.667V227.374H350.62H350.662H379.256V131.019L375.993 128.365H209.957C186.679 142.999 165.389 160.578 146.616 180.667Z" fill="#0E6BA8"/>
        <path opacity="0.1" d="M840.057 178.284V227.375H917.522C917.522 227.087 917.471 226.791 917.446 226.529C917.378 225.752 917.31 224.974 917.234 224.188C917.158 223.402 917.057 222.362 916.955 221.441C916.854 220.52 916.753 219.455 916.634 218.474C916.516 217.494 916.414 216.488 916.288 215.499C916.161 214.51 916.043 213.521 915.907 212.541C915.772 211.56 915.645 210.563 915.493 209.582C915.375 208.737 915.265 207.96 915.138 207.14C914.961 205.99 914.775 204.832 914.58 203.691C914.558 203.521 914.527 203.351 914.487 203.184C913.089 194.786 911.186 186.479 908.79 178.309L840.057 178.284Z" fill="#001C55"/>
        <path opacity="0.1" d="M917.767 230.282H840.057V324.483H912.087C912.273 325.455 912.45 326.427 912.662 327.39H840.057V403.342L840.42 403.224C842.471 402.503 844.508 401.736 846.531 400.925L847.833 400.392C849.906 399.542 851.943 398.632 853.944 397.662C854.662 397.333 855.372 396.986 856.074 396.631C867.248 391.129 877.55 384.009 886.646 375.501C886.908 375.272 887.153 375.036 887.389 374.807C888.632 373.607 889.849 372.399 891.032 371.156L892.334 369.77C893.729 368.257 895.073 366.693 896.383 365.113L896.957 364.42C902.224 357.962 906.649 350.862 910.126 343.289C910.236 343.061 910.329 342.824 910.43 342.596C911.487 340.212 912.442 337.795 913.27 335.335C913.625 334.296 913.963 333.256 914.259 332.216C914.361 331.904 914.454 331.599 914.538 331.295C918.849 316.208 919.347 300.529 919.347 284.934C919.347 283.117 919.347 281.292 919.347 279.483C919.347 273.186 919.254 266.804 919.136 260.507C919.136 258.868 919.06 257.236 919.018 255.588C918.916 251.401 918.764 247.22 918.561 243.045C918.511 241.879 918.46 240.721 918.384 239.571C918.384 238.903 918.316 238.236 918.274 237.568C918.105 235.091 917.953 232.691 917.767 230.282Z" fill="#A6E1FA"/>
        <path opacity="0.1" d="M763.065 142.505V227.374H821.495V142.505H813.17V113.768H778.964V142.505H763.065Z" fill="#001C55"/>
        <path opacity="0.1" d="M821.495 230.282H763.065V324.474H821.495V230.282Z" fill="#001C55"/>
        <path opacity="0.1" d="M821.496 327.39H763.073V405.717C769.987 407.481 777.005 408.807 784.086 409.69L785.827 409.876C786.672 409.969 787.517 410.045 788.363 410.113L790.898 410.29C790.983 410.29 791.076 410.29 791.16 410.29C791.532 410.29 791.913 410.29 792.293 410.341H792.682C793.138 410.341 793.595 410.341 794.059 410.391C794.71 410.391 795.37 410.391 796.029 410.442H796.874C797.533 410.442 798.184 410.442 798.843 410.442H800.289H801.455L802.943 410.391C803.729 410.391 804.532 410.324 805.326 410.265L806.797 410.172L808.631 410.028C809.916 409.918 811.167 409.791 812.468 409.639L813.998 409.445L814.751 409.352C816.027 409.174 817.286 408.988 818.563 408.769C819.509 408.625 820.439 408.447 821.386 408.278L821.496 327.39Z" fill="#001C55"/>
        <path opacity="0.1" d="M445.978 132.481H397.792V227.366H445.978V132.481Z" fill="#001C55"/>
        <path opacity="0.1" d="M397.792 230.282V324.483H636.94V283.853H509.556V307.823H445.97V230.282H397.792Z" fill="#001C55"/>
        <path opacity="0.1" d="M397.031 428.395H397.792V490.189C406.43 489.536 415.034 488.651 423.605 487.535C461.942 482.578 499.506 472.835 535.42 458.536C545.698 454.411 555.765 449.92 565.62 445.063C581.978 437.02 597.757 427.85 612.843 417.618C616.612 415.06 620.323 412.443 623.974 409.766C626.51 407.898 629.046 405.996 631.581 404.145C633.348 402.877 635.131 401.61 636.94 400.418V327.39H446.612C446.747 326.959 446.874 326.545 447.009 326.097C446.866 326.528 446.722 326.942 446.595 327.39H397.792V428.353L397.031 428.395Z" fill="#001C55"/>
        <path opacity="0.1" d="M272.132 125.415H303.524V116.717H289.459V90.8958C288.242 91.293 287.025 91.741 285.816 92.1214V116.717H272.132V125.415Z" fill="#001C55"/>
        <path opacity="0.1" d="M196.484 227.374H350.62H350.569H350.645H379.23V132.481H371.133V202.635H334.112V161.117H303.524V128.322H272.132V161.117H241.551V202.626H196.484V227.374Z" fill="#001C55"/>
        <path opacity="0.1" d="M196.484 230.282V324.483H379.23V230.282H196.484ZM202.865 462.931C238.123 476.353 274.987 485.099 312.517 488.947H312.677C319.772 489.696 326.886 490.277 334.019 490.688H334.281C349.233 491.533 364.245 491.728 379.23 491.17V327.39H196.484V360.785H146.616L146.878 435.343" fill="#001C55"/>
        <path opacity="0.1" d="M124.843 327.39H82.2178C82.5897 346.526 86.9088 365.307 96.3584 382.66C104.219 397.079 115.148 409.707 128.063 420.695V360.785H124.843V327.39Z" fill="#001C55"/>
        <path opacity="0.1" d="M82.184 324.483H124.843V245.758H101.759C89.8164 270.549 82.2262 297.799 82.184 324.483Z" fill="#001C55"/>
        <path opacity="0.1" d="M423.605 158.86H397.792V188.612H423.605V158.86Z" fill="#001C55"/>
        <path opacity="0.1" d="M423.605 220.528H397.792V227.374H423.605V220.528Z" fill="#001C55"/>
        <path opacity="0.1" d="M423.605 230.282H397.792V250.272H423.605V230.282Z" fill="#001C55"/>
        <path opacity="0.1" d="M423.605 282.187H397.792V311.939H423.605V282.187Z" fill="#001C55"/>
        <path opacity="0.1" d="M423.605 343.855H397.792V373.607H423.605V343.855Z" fill="#001C55"/>
        <path opacity="0.1" d="M397.792 428.353H397.031H397.792V435.258H423.605V405.506H397.792V428.353Z" fill="#001C55"/>
        <path opacity="0.1" d="M397.792 467.174V490.156C406.43 489.502 415.034 488.617 423.605 487.502V467.216L397.792 467.174Z" fill="#001C55"/>
        <path opacity="0.1" d="M636.94 322.293H526.317V324.474H636.94V322.293Z" fill="#001C55"/>
        <path opacity="0.1" d="M636.94 327.39H526.317V335.766H636.94V327.39Z" fill="#001C55"/>
        <path opacity="0.1" d="M636.94 363.219H526.317V376.692H636.94V363.219Z" fill="#001C55"/>
        <path opacity="0.1" d="M526.317 404.145V417.618H612.851C616.61 415.066 620.32 412.445 623.983 409.758C626.519 407.898 629.054 405.996 631.59 404.154L526.317 404.145Z" fill="#001C55"/>
        <path opacity="0.1" d="M526.317 445.063V458.536H535.42C545.692 454.422 555.756 449.931 565.611 445.063H526.317Z" fill="#001C55"/>
        <path opacity="0.1" d="M312.508 258.783H334.281V239.419H312.508V258.783Z" fill="#001C55"/>
        <path opacity="0.1" d="M784.027 168.547H805.8V149.183H784.027V168.547Z" fill="#001C55"/>
        <path opacity="0.1" d="M784.027 213.53H805.8V194.166H784.027V213.53Z" fill="#001C55"/>
        <path opacity="0.1" d="M784.027 258.504H805.8V239.14H784.027V258.504Z" fill="#001C55"/>
        <path opacity="0.1" d="M784.027 303.487H805.8V284.123H784.027V303.487Z" fill="#001C55"/>
        <path opacity="0.1" d="M784.027 348.479H805.8V329.114H784.027V348.479Z" fill="#001C55"/>
        <path opacity="0.1" d="M784.027 393.453H805.8V374.089H784.027V393.453Z" fill="#001C55"/>
        <path opacity="0.1" d="M229.372 258.783H251.145V239.419H229.372V258.783Z" fill="#001C55"/>
        <path opacity="0.1" d="M312.508 306.538H334.281V287.174H312.508V306.538Z" fill="#001C55"/>
        <path opacity="0.1" d="M229.372 306.538H251.145V287.174H229.372V306.538Z" fill="#001C55"/>
        <path opacity="0.1" d="M312.508 354.302H334.281V334.938H312.508V354.302Z" fill="#001C55"/>
        <path opacity="0.1" d="M229.372 354.302H251.145V334.938H229.372V354.302Z" fill="#001C55"/>
        <path opacity="0.1" d="M312.508 402.066H334.281V382.702H312.508V402.066Z" fill="#001C55"/>
        <path opacity="0.1" d="M229.372 402.066H251.145V382.702H229.372V402.066Z" fill="#001C55"/>
        <path opacity="0.1" d="M312.508 449.838H334.281V430.474H312.508V449.838Z" fill="#001C55"/>
        <path opacity="0.1" d="M229.372 449.838H251.145V430.474H229.372V449.838Z" fill="#001C55"/>
        <path opacity="0.1" d="M334.273 490.722V478.238H312.508V488.947L334.273 490.722Z" fill="#001C55"/>
        <path opacity="0.1" d="M840.057 203.15V214.231H914.58V203.15H840.057ZM907.159 203.852H913.236V213.538H907.125L907.159 203.852ZM899.738 203.852H905.849V213.538H899.713L899.738 203.852ZM892.334 203.852H898.445V213.538H892.334V203.852ZM884.913 203.852H891.024V213.538H884.913V203.852ZM877.5 203.852H883.653V213.538H877.542L877.5 203.852ZM870.079 203.852H876.19V213.538H870.079V203.852ZM862.658 203.852H868.769V213.538H862.658V203.852ZM855.245 203.852H861.356V213.538H855.245V203.852ZM847.833 203.852H853.944V213.538H847.833V203.852ZM840.42 203.852H846.531V213.538H840.42V203.852Z" fill="#001C55"/>
        <path opacity="0.1" d="M840.057 235.404V246.485H914.58V235.404H840.057ZM907.159 236.106H913.236V245.784H907.125L907.159 236.106ZM899.738 236.106H905.849V245.784H899.713L899.738 236.106ZM892.334 236.106H898.445V245.784H892.334V236.106ZM884.913 236.106H891.024V245.784H884.913V236.106ZM877.5 236.106H883.653V245.784H877.542L877.5 236.106ZM870.079 236.106H876.19V245.784H870.079V236.106ZM862.658 236.106H868.769V245.784H862.658V236.106ZM855.245 236.106H861.356V245.784H855.245V236.106ZM847.833 236.106H853.944V245.784H847.833V236.106ZM840.42 236.106H846.531V245.784H840.42V236.106Z" fill="#001C55"/>
        <path opacity="0.1" d="M840.057 267.65V278.722H914.58V267.65H840.057ZM907.159 268.343H913.236V278.029H907.125L907.159 268.343ZM899.738 268.343H905.849V278.029H899.713L899.738 268.343ZM892.334 268.343H898.445V278.029H892.334V268.343ZM884.913 268.343H891.024V278.029H884.913V268.343ZM877.5 268.343H883.653V278.029H877.542L877.5 268.343ZM870.079 268.343H876.19V278.029H870.079V268.343ZM862.658 268.343H868.769V278.029H862.658V268.343ZM855.245 268.343H861.356V278.029H855.245V268.343ZM847.833 268.343H853.944V278.029H847.833V268.343ZM840.42 268.343H846.531V278.029H840.42V268.343Z" fill="#001C55"/>
        <path opacity="0.1" d="M840.057 299.895V310.967H914.58V299.895H840.057ZM907.159 300.588H913.236V310.274H907.125L907.159 300.588ZM899.738 300.588H905.849V310.274H899.713L899.738 300.588ZM892.334 300.588H898.445V310.274H892.334V300.588ZM884.913 300.588H891.024V310.274H884.913V300.588ZM877.5 300.588H883.653V310.274H877.542L877.5 300.588ZM870.079 300.588H876.19V310.274H870.079V300.588ZM862.658 300.588H868.769V310.274H862.658V300.588ZM855.245 300.588H861.356V310.274H855.245V300.588ZM847.833 300.588H853.944V310.274H847.833V300.588ZM840.42 300.588H846.531V310.274H840.42V300.588Z" fill="#001C55"/>
        <path opacity="0.1" d="M840.057 332.14V343.238H910.126C910.227 343.01 910.329 342.773 910.422 342.545H907.159V332.842H913.236V335.251C913.591 334.22 913.93 333.188 914.225 332.14H840.057ZM899.738 332.842H905.849V342.52H899.713L899.738 332.842ZM892.334 332.842H898.445V342.52H892.334V332.842ZM884.913 332.842H891.024V342.52H884.913V332.842ZM877.5 332.842H883.653V342.52H877.542L877.5 332.842ZM870.079 332.842H876.19V342.52H870.079V332.842ZM862.658 332.842H868.769V342.52H862.658V332.842ZM855.245 332.842H861.356V342.52H855.245V332.842ZM847.833 332.842H853.944V342.52H847.833V332.842ZM840.42 332.842H846.531V342.52H840.42V332.842Z" fill="#001C55"/>
        <path opacity="0.1" d="M840.057 364.369V375.441H886.637C886.908 375.213 887.144 374.968 887.389 374.748H884.913V365.087H891.024V371.131L892.334 369.736V365.087H896.383C896.577 364.851 896.763 364.614 896.957 364.394L840.057 364.369ZM877.5 365.062H883.653V374.748H877.542L877.5 365.062ZM870.079 365.062H876.19V374.748H870.079V365.062ZM862.658 365.062H868.769V374.748H862.658V365.062ZM855.245 365.062H861.356V374.748H855.245V365.062ZM847.833 365.062H853.944V374.748H847.833V365.062ZM840.42 365.062H846.531V374.748H840.42V365.062Z" fill="#001C55"/>
        <path opacity="0.1" d="M840.057 396.64V403.342C840.181 403.309 840.302 403.267 840.42 403.216V397.299H846.531V400.9L847.833 400.367V397.333H853.944V397.671C854.662 397.341 855.372 396.995 856.074 396.648L840.057 396.64Z" fill="#001C55"/>
        <path opacity="0.1" d="M350.594 227.391H350.636H350.594ZM397.031 428.395H397.792H397.031ZM446.595 327.39C446.73 326.959 446.857 326.545 447.001 326.089C446.857 326.528 446.722 326.959 446.595 327.39ZM350.594 227.391H350.636H350.594ZM778.964 125.415V128.322H813.17V125.415H778.964ZM397.031 428.395H397.792H397.031ZM446.595 327.39C446.73 326.959 446.857 326.545 447.001 326.089C446.857 326.528 446.722 326.959 446.595 327.39ZM350.594 227.391H350.636H350.594ZM397.031 428.395H397.792H397.031ZM446.595 327.39C446.73 326.959 446.857 326.545 447.001 326.089C446.857 326.528 446.722 326.959 446.595 327.39Z" fill="#001C55"/>
        <path opacity="0.1" d="M840.31 696.822C856.452 696.822 869.538 695.373 869.538 693.585C869.538 691.797 856.452 690.348 840.31 690.348C824.168 690.348 811.082 691.797 811.082 693.585C811.082 695.373 824.168 696.822 840.31 696.822Z" fill="#001C55"/>
        <path d="M641.995 452.408L627.389 451.605L626.4 409.656L626.172 399.666L641.581 396.826L641.682 409.707L641.995 452.408Z" fill="#D48A9B"/>
        <path d="M630.626 445.105L555.57 491.77L553.947 505.97L562.062 506.375V496.233L611.152 468.645L551.919 542.078V553.438H561.656L560.844 540.861L629.409 462.965L637.929 463.776L710.154 545.729L711.777 559.532L721.514 559.937L719.891 545.729L662.686 474.324L700.822 500.695L701.634 512.055L709.342 512.461L708.531 498.667L635.901 442.671L630.626 445.105Z" fill="#7F8DAA"/>
        <path d="M536.333 365.29C543.421 356.471 549.362 346.789 554.015 336.476C559.179 325.049 564.842 311.855 565.273 307.95C566.119 300.647 586.776 286.042 609.496 285.23C624.312 284.698 647.396 273.135 661.68 265.148C675.116 257.508 690.058 252.893 705.463 251.624C722.173 250.365 737.886 253.644 729.974 273.034L623.729 401.694C623.729 401.694 533.121 417.66 527.534 391.991C527.221 390.697 526.788 389.435 526.241 388.221C525.184 385.795 524.905 379.465 536.333 365.29Z" fill="#001C55"/>
        <path opacity="0.2" d="M544.312 367.843C551.446 358.928 557.446 349.161 562.171 338.767C566.989 328.083 572.103 316.106 572.509 312.48C573.286 305.507 593.081 291.553 614.821 290.775C628.995 290.268 651.081 279.229 664.74 271.597C677.607 264.31 691.907 259.914 706.646 258.715C722.629 257.515 737.666 260.651 730.126 279.17L645.849 402.573C645.849 402.573 541.886 417.322 536.384 392.921C536.057 391.625 535.624 390.359 535.09 389.134C534.127 386.717 533.992 380.792 544.312 367.843Z" fill="#001C55"/>
        <path opacity="0.1" d="M641.682 409.707C636.796 409.707 631.649 409.707 626.4 409.656L626.172 399.666L641.58 396.834L641.682 409.707Z" fill="black"/>
        <g opacity="0.1">
            <path opacity="0.1" d="M700.822 498.261L662.686 471.89L667.056 477.342L700.822 500.696L701.634 512.055L709.342 512.461L709.199 510.018L701.634 509.621L700.822 498.261Z" fill="black"/>
            <path opacity="0.1" d="M562.062 493.798V496.233L607.56 470.665L611.152 466.21L562.062 493.798Z" fill="black"/>
            <path opacity="0.1" d="M551.919 551.003V553.438H561.656L561.495 551.003H551.919Z" fill="black"/>
            <path opacity="0.1" d="M562.062 503.941L554.218 503.552L553.947 505.97L562.062 506.375V503.941Z" fill="black"/>
            <path opacity="0.1" d="M711.777 557.097L710.154 543.295L637.929 461.342L629.409 460.53L560.844 538.426L560.988 540.7L629.409 462.965L637.929 463.776L710.154 545.729L711.777 559.532L721.514 559.937L721.235 557.486L711.777 557.097Z" fill="black"/>
        </g>
        <path opacity="0.1" d="M633.061 329.765C633.061 329.765 652.061 343.661 643.744 343.821C635.427 343.982 633.061 329.765 633.061 329.765Z" fill="black"/>
        <path d="M553.339 405.785C553.339 405.785 584.781 403.351 596.547 380.631C596.547 380.631 620.484 333.155 639.966 327.88C659.449 322.606 695.548 310.841 710.559 292.584C725.571 274.327 731.868 260.33 731.868 260.33C731.868 260.33 735.739 275.104 723.542 292.525C711.346 309.945 706.908 336.772 698.388 365.214C689.868 393.656 686.623 404.94 671.206 406.63C659.584 407.856 598.136 407.239 568.756 406.63C559.146 406.368 553.339 405.785 553.339 405.785Z" fill="#001C55"/>
        <path opacity="0.2" d="M553.339 405.785C553.339 405.785 584.781 403.351 596.547 380.631C596.547 380.631 620.484 333.155 639.966 327.88C659.449 322.606 695.548 310.841 710.559 292.584C725.571 274.327 731.868 260.33 731.868 260.33C731.868 260.33 735.739 275.104 723.542 292.525C711.346 309.945 706.908 336.772 698.388 365.214C689.868 393.656 686.623 404.94 671.206 406.63C659.584 407.856 598.136 407.239 568.756 406.63C559.146 406.368 553.339 405.785 553.339 405.785Z" fill="#001C55"/>
        <path d="M561.25 405.785C561.25 405.785 591.306 403.427 602.548 381.426C602.548 381.426 625.437 335.462 644.049 330.357C662.66 325.252 697.18 313.85 711.531 296.176C725.883 278.502 731.893 264.945 731.893 264.945C731.893 264.945 735.57 279.314 723.939 296.176C712.309 313.038 708.041 338.995 699.893 366.499C691.745 394.003 688.651 404.999 673.91 406.571C662.804 407.754 604.069 407.154 575.982 406.571C566.803 406.394 561.25 405.785 561.25 405.785Z" fill="#001C55"/>
        <path opacity="0.1" d="M536.908 393.952C536.908 393.952 553.339 400.24 562.67 396.792C572.001 393.343 595.127 383.201 595.127 383.201C595.127 383.201 556.179 385.669 536.908 393.952Z" fill="black"/>
        <path d="M646.77 689.232C646.77 689.232 599.539 686.696 588.027 679.934C576.515 673.173 560.219 673.173 560.134 673.173L372.071 632.179L293.888 613.584L279.942 611.75L326.007 559.042L327.41 558.433L395.315 529.061C395.315 529.061 425.743 530.752 431.753 550.581C432.164 551.978 432.447 553.409 432.598 554.858C433.229 561.042 431.515 567.237 427.797 572.219C425.397 575.498 422.447 580.155 421.517 584.255C420.993 586.571 421.111 588.709 422.362 590.34C424.898 592.857 427.698 595.093 430.713 597.009C447.271 607.997 489.127 626.102 562.247 598.37C562.247 598.37 593.521 567.519 617.187 580.62C640.854 593.721 646.77 689.232 646.77 689.232Z" fill="#7F8DAA"/>
        <path opacity="0.1" d="M421.551 584.255C421.027 586.571 421.145 588.709 422.396 590.34C424.932 592.857 427.731 595.093 430.747 597.009L288.394 607.667L327.41 558.433L395.315 529.061C395.315 529.061 425.743 530.752 431.753 550.581C432.164 551.978 432.447 553.409 432.598 554.858C433.229 561.042 431.515 567.237 427.797 572.219C425.431 575.498 422.481 580.155 421.551 584.255Z" fill="black"/>
        <path d="M282.477 390.444L399.119 392.98V532.603L288.394 607.667L261.769 583.156L267.263 502.014L261.769 426.366L282.477 390.444Z" fill="#E1DEE5"/>
        <path d="M216.127 367.623L352.31 325.657C354.757 324.909 357.323 324.622 359.875 324.812L685.203 348.555C713.028 350.464 739.81 359.911 762.676 375.881C783.731 390.731 804.582 413.527 814.235 448.046C821.217 473.518 820.733 500.459 812.84 525.664L784.103 618.638C784.103 618.638 805.656 416.629 590.546 406.487L216.127 367.623Z" fill="#9C9CA1"/>
        <path d="M288.394 387.486V611.75C288.394 611.75 251.077 606.501 244.442 599.215C238.999 593.239 207.464 576.394 193.779 559.042C190.779 555.238 188.632 551.434 187.812 547.656C183.231 526.796 164.568 477.502 164.568 477.502L169.64 429.325L190.77 398.051L231.764 379.456H263.46L288.394 387.486Z" fill="#E1DEE5"/>
        <path d="M229.228 390.444C229.228 390.444 168.575 428.479 181.845 489.682C182.927 494.669 183.865 499.681 184.482 504.753C186.908 524.548 201.462 581.432 288.394 607.667V613.584L251.517 603.298L226.481 589.495L207.371 572.354L184.008 543.853L173.164 520.609L169.192 489.995L166.901 455.045L172.488 425.065L185.665 405.557L201.724 393.073L229.228 390.444Z" fill="#D9D6DF"/>
        <path opacity="0.1" d="M288.394 387.486V423.163C261.938 426.037 180.027 442.603 194.574 537.268L193.771 559.008C190.77 555.204 188.623 551.401 187.804 547.622C183.222 526.762 164.56 477.469 164.56 477.469L169.631 429.291L190.762 398.017L231.755 379.422H263.451L288.394 387.486Z" fill="black"/>
        <path opacity="0.1" d="M427.831 572.219C425.431 575.498 422.481 580.155 421.551 584.255C417.866 580.029 417.071 575.168 422.396 571.323C429.065 566.471 431.288 558.053 431.787 550.581C432.198 551.978 432.481 553.409 432.632 554.858C433.263 561.042 431.549 567.237 427.831 572.219Z" fill="white"/>
        <path d="M769.328 594.989L753.269 649.506L716.924 685.006L671.282 694.303L600.283 681.625V429.325C600.283 429.325 612.538 421.295 613.806 421.295C615.074 421.295 649.306 426.789 649.306 426.789L726.813 482.379L730.025 484.687L764.679 536.246L769.328 594.989Z" fill="#E1DEE5"/>
        <path d="M600.283 418.759V681.625L607.129 682.85V418.759H600.283Z" fill="#E1DEE5"/>
        <path opacity="0.1" d="M728.335 499.901C677.621 458.231 621.244 452.103 600.283 451.343V429.367C600.283 429.367 612.538 421.337 613.806 421.337C615.074 421.337 649.306 426.831 649.306 426.831L726.813 482.422L728.335 499.901Z" fill="black"/>
        <path d="M589.574 401.855L271.912 367.2L236.21 365.307C225.084 364.664 213.957 366.563 203.675 370.862C193.393 375.16 184.224 381.744 176.866 390.114C158.271 411.499 144.215 449.221 164.746 513.991C164.746 513.991 186.155 597.947 289.839 615.984L591.112 684.253C597.789 685.766 604.382 687.634 610.89 689.756C638.242 698.741 730.913 722.018 774.568 642.888C789.529 615.756 794.009 584.119 788.244 553.666C777.738 497.965 738.072 403.444 589.574 401.855ZM745.205 639.27C704.465 705.638 620.517 685.885 595.279 678.092C589.1 676.181 582.846 674.516 576.515 673.164L298.215 613.626C202.333 597.88 182.529 524.573 182.529 524.573C166.343 476.395 173.418 445.308 186.502 425.631C200.203 405.033 224.055 393.512 248.77 394.763L281.666 396.454L565.797 434.413C571.545 435.182 577.335 435.689 583.133 435.883C709.486 440.169 748.798 509.646 758.788 557.529C764.654 585.514 760.191 614.877 745.205 639.27Z" fill="#9C9CA1"/>
        <path d="M80.6879 543.101C91.0927 550.065 106.89 546.752 106.89 546.752C106.89 546.752 130.717 535.468 137.758 535.468C144.798 535.468 161.923 528.495 161.923 528.495L161.339 523.796L159.598 509.638C170.443 518.09 182.496 515.174 188.429 514.557C194.802 513.898 228.856 493.655 232.136 492.319C233.023 491.964 234.063 490.806 235.119 489.31C237.313 485.956 239.24 482.434 240.884 478.779C243.014 476.902 244.569 475.398 244.459 475.068C244.349 474.739 245.304 472.271 246.547 469.49C251.382 468.645 255.548 466.853 256.875 465.771C257.966 464.898 258.839 463.785 259.426 462.517C260.012 461.25 260.297 459.864 260.256 458.468C260.256 458.468 293.482 424.955 289.112 411.017C284.743 397.079 299.855 396.741 299.855 396.741C299.855 396.741 323.006 386.784 326.226 380.817C328.213 377.14 345.582 369.068 358.649 363.405L360.255 362.712C365.327 373.827 391.089 365.248 396.16 360.574C401.528 355.595 417.291 353.271 417.291 353.271C417.291 353.271 417.967 288.189 422.996 279.922C425.388 275.992 425.963 263.144 425.904 250.737C425.904 250.297 425.904 249.891 425.904 249.418C432.953 248.04 449.722 244.854 457.507 244.085C462.443 243.594 467.591 240.518 471.538 237.526L472.003 238.109C473.359 238.666 474.825 238.906 476.288 238.81C477.583 238.956 478.893 238.711 480.049 238.109C483.075 236.418 494.148 233.13 498.171 231.474C502.194 229.817 497.503 217.866 494.486 215.541C491.468 213.217 489.414 210.233 491.105 208.906C492.795 207.579 487.081 204.258 483.726 203.59C480.37 202.922 470.304 198.282 470.304 198.282C470.304 198.282 466.61 190.675 460.575 190.675C454.54 190.675 446.477 184.699 446.477 184.699C446.147 182.045 439.766 181.715 439.766 181.715C439.766 181.715 415.609 163.12 411.577 165.453C407.546 167.786 396.482 161.802 396.482 161.802C396.482 161.802 382.899 163.323 379.704 160.821C379.675 160 379.378 159.21 378.859 158.573C378.14 156.325 374.632 153.248 371.252 150.687C371.51 149.1 371.64 147.494 371.64 145.886C371.64 145.193 371.64 144.5 371.564 143.815C371.564 143.697 371.564 143.587 371.564 143.469L372.046 138.795C372.079 137.258 372.479 135.751 373.212 134.4C373.779 133.554 374.616 132.836 375.249 131.999C375.397 131.802 375.533 131.596 375.655 131.382L375.757 131.205C375.85 131.043 375.934 130.876 376.01 130.706L376.086 130.537C376.273 130.078 376.417 129.602 376.517 129.117V129.007C376.56 128.787 376.593 128.567 376.619 128.339C376.615 128.308 376.615 128.277 376.619 128.246C376.757 126.315 376.498 124.376 375.858 122.549C374.852 119.414 373.28 116.388 373.111 113.117C373.027 111.494 373.297 109.837 372.942 108.248C372.097 104.622 368.403 102.332 364.811 100.81C359.849 98.731 357.348 96.4573 353.367 93.3638C349.986 90.7436 344.39 92.0621 340.13 92.3326C330.393 92.9581 320.783 95.891 311.621 98.9169C308.062 100.1 304.436 101.453 301.664 103.861C299.798 105.449 298.515 107.615 298.021 110.015C297.925 110.573 297.888 111.139 297.911 111.705C297.911 111.756 297.911 111.807 297.911 111.849C297.911 112.069 297.911 112.28 297.987 112.491C297.983 112.562 297.983 112.632 297.987 112.703C298.029 112.961 298.091 113.215 298.173 113.463C298.562 114.689 299.28 115.796 299.695 117.013C299.788 117.29 299.865 117.572 299.923 117.858C299.923 117.858 299.923 117.918 299.923 117.943C299.982 118.213 300.024 118.475 300.058 118.788C300.43 121.806 299.314 124.958 298.824 128.035C298.756 128.466 298.706 128.88 298.672 129.354C298.525 131.134 298.683 132.926 299.137 134.653C299.133 134.673 299.133 134.693 299.137 134.712C299.188 134.924 299.264 135.135 299.331 135.338C299.354 135.429 299.383 135.52 299.416 135.608C299.475 135.786 299.551 135.963 299.619 136.132L299.762 136.487C299.83 136.639 299.906 136.792 299.982 136.944C300.058 137.096 300.109 137.197 300.176 137.316C300.246 137.455 300.322 137.59 300.405 137.721C300.481 137.857 300.565 137.983 300.65 138.11C300.734 138.237 300.81 138.355 300.903 138.474C300.996 138.592 301.098 138.736 301.199 138.862L301.461 139.184L301.816 139.555L302.095 139.834L302.509 140.189C302.611 140.265 302.695 140.35 302.797 140.418C302.898 140.485 303.143 140.663 303.321 140.773L303.566 140.942C303.836 141.102 304.124 141.246 304.411 141.381C306.338 142.226 308.772 142.573 309.93 144.272C310.207 144.668 310.399 145.117 310.497 145.59C310.497 145.7 310.497 145.819 310.497 145.928V146.224C310.497 147.205 310.564 148.177 310.666 149.132C310.658 149.657 310.689 150.183 310.759 150.704C310.815 151.097 310.923 151.48 311.08 151.845C312.433 158.524 316.008 164.548 321.223 168.936C321.324 169.451 321.442 170.051 321.569 170.727C318.616 172.943 315.318 174.657 311.807 175.799C303.752 178.157 292.367 189.035 292.367 189.035C292.367 189.035 286.704 229.851 285.343 234.829C283.982 239.808 282.976 259.062 282.976 259.062C282.976 259.062 281.632 267.024 279.595 271.005C278.167 273.811 278.429 285.873 282.401 293.201C281.754 294.642 280.924 295.994 279.933 297.224C271.878 306.522 247.713 306.183 239.658 306.183C232.246 306.183 229.955 310.68 229.642 311.39C214.893 315.616 167.138 329.207 161.475 331.676C154.764 334.608 151.07 363.591 151.07 363.591C151.07 363.591 137.048 411.702 137.715 418.007C138.383 424.312 133.016 441.876 133.016 441.876C133.016 441.876 133.016 461.731 130.742 463.074C130.723 463.093 130.7 463.107 130.675 463.117C128.325 464.114 128.655 473.741 128.655 473.741C128.655 473.741 130.387 474.24 133.084 474.925C132.365 479.785 129.703 486.589 127.649 491.423C126.601 490.096 125.578 489.547 124.969 491.085C123.279 495.311 98.125 525.182 91.7435 525.182C88.7091 525.182 83.6885 527.667 80.3836 531.022C76.7661 534.716 75.2278 539.458 80.6879 543.101ZM196.104 370.193C224.63 372.847 255.168 368.172 255.168 368.172C255.168 368.172 252.818 376.498 250.807 379.82C248.795 383.141 243.081 402.058 243.081 406.022C243.081 409.986 234.021 444.184 231.341 445.84C230.217 446.542 229.211 448.283 228.417 450.066C227.711 451.715 227.118 453.409 226.642 455.138C226.681 456 226.757 456.82 226.87 457.597C224.867 459.432 222.745 461.359 220.86 463.066C220.86 463.066 208.858 469.743 204.801 473.395C200.744 477.046 181.98 481.526 181.98 481.526C177.327 483.526 172.81 485.827 168.456 488.414C162.633 491.922 156.809 496.385 155.288 500.789C155.947 493.367 157.02 484.433 157.739 478.753L158.804 478.711C168.211 478.128 166.808 469.152 166.309 466.929C166.242 466.608 166.191 466.43 166.191 466.43C172.902 459.127 187.998 404.728 185.986 398.727C183.975 392.726 187.677 387.444 188.463 387.444C189.249 387.444 190.348 380.809 188.674 377.157C187.001 373.506 196.104 370.193 196.104 370.193ZM426.766 223.782L424.983 224.222V223.841C424.983 223.841 425.633 223.841 426.766 223.782ZM329.261 173.703C328.99 174.041 328.72 174.362 328.415 174.675L328.069 175.03C328.069 174.413 328.069 173.787 328.069 173.187C328.475 173.348 328.863 173.542 329.261 173.703ZM295.646 238.092L295.764 239.96C295.764 239.96 295.587 241.101 295.249 243.053L295.646 238.092ZM449.858 219.548L444 220.554C444.845 220.241 445.648 219.903 446.443 219.522C447.032 219.247 447.664 219.075 448.311 219.015C449.052 219.094 449.783 219.25 450.492 219.48C450.279 219.486 450.067 219.508 449.858 219.548Z" fill="url(#paint0_linear)"/>
        <path d="M251.829 459.153C251.829 459.153 245.068 473.107 245.414 474.096C245.761 475.085 230.919 486.927 230.919 486.927L214.783 475.406L216.474 467.495C216.474 467.495 234.587 451.174 235.914 449.289C237.241 447.404 251.829 459.153 251.829 459.153Z" fill="#80461B"/>
        <path d="M159.784 506.367C170.984 517.237 184.152 513.974 190.415 513.289C196.678 512.605 230.09 492.539 233.302 491.221C234.147 490.866 235.204 489.716 236.235 488.228C238.39 484.896 240.281 481.4 241.89 477.773C241.67 477.832 230.716 480.968 227.952 477.773C227.952 477.773 223.337 472.118 222.348 472.118C221.359 472.118 222.272 462.195 222.272 462.195C222.272 462.195 210.489 468.822 206.542 472.448C202.595 476.074 184.144 480.511 184.144 480.511C179.581 482.497 175.153 484.781 170.891 487.349C162.168 492.674 153.377 500.188 159.784 506.367Z" fill="white"/>
        <path opacity="0.1" d="M159.784 506.367C170.984 517.237 184.152 513.974 190.415 513.289C196.678 512.605 230.09 492.539 233.302 491.221C234.147 490.866 235.204 489.716 236.235 488.228C232.339 485.904 206.88 502.09 199.755 505.057C192.63 508.024 174.601 506.367 164.365 502.09C159.294 499.952 164.433 493.384 170.874 487.349C162.168 492.674 153.377 500.188 159.784 506.367Z" fill="black"/>
        <path d="M161.103 472.118C161.103 472.118 156.412 507.356 157.604 511.971C158.795 516.586 128.164 496.165 128.164 496.165C128.164 496.165 138.882 474.079 135.771 469.008C132.661 463.937 161.103 472.118 161.103 472.118Z" fill="#80461B"/>
        <path d="M131.79 472.778C131.79 472.778 150.892 478.373 161.424 477.714C170.654 477.139 169.276 468.23 168.794 466.024C168.727 465.712 168.676 465.534 168.676 465.534C175.26 458.282 190.086 404.272 188.116 398.347C186.147 392.422 189.722 387.19 190.567 387.19C191.413 387.19 192.418 380.597 190.77 376.98C189.122 373.362 198.022 370.066 198.022 370.066C226.016 372.694 255.988 368.054 255.988 368.054C255.988 368.054 253.681 376.32 251.703 379.617C249.725 382.913 244.096 401.677 244.096 405.633C244.096 409.588 235.204 443.507 232.567 445.156C231.468 445.849 230.479 447.573 229.701 449.382C229.007 451.031 228.425 452.725 227.96 454.453C228.949 476.522 253.976 467.977 257.602 464.993C258.118 464.564 258.589 464.082 259.005 463.556C260.277 461.889 260.942 459.837 260.89 457.741C260.89 457.741 293.499 424.481 289.214 410.645C284.929 396.809 299.754 396.487 299.754 396.487C299.754 396.487 322.482 386.607 325.643 380.673C327.596 377.03 344.635 369.026 357.466 363.397C365.504 359.872 371.885 357.294 371.885 357.294L366.544 338.141L362.318 323.037L354.389 320.062L329.033 310.528L283.542 304.146L279.375 304.687L235.179 310.41C235.179 310.41 170.654 328.869 164.061 331.76C157.468 334.651 153.851 363.431 153.851 363.431C153.851 363.431 140.023 411.186 140.699 417.474C141.375 423.763 136.084 441.141 136.084 441.141C136.084 441.141 136.084 460.843 133.844 462.178C133.822 462.185 133.799 462.185 133.777 462.178C131.461 463.26 131.79 472.778 131.79 472.778Z" fill="#00072D"/>
        <path opacity="0.1" d="M197.988 370.023C225.982 372.652 255.954 368.012 255.954 368.012C257.932 361.782 285.613 344.658 285.613 344.658C262.902 339.063 197.988 370.023 197.988 370.023Z" fill="black"/>
        <path d="M227.96 454.335C228.949 476.404 253.976 467.858 257.602 464.875C258.118 464.446 258.589 463.964 259.005 463.438C250.257 466.658 234.747 469.152 229.701 449.297C229.008 450.935 228.427 452.618 227.96 454.335Z" fill="#444053"/>
        <path d="M131.79 472.778C131.79 472.778 150.892 478.373 161.424 477.714C170.654 477.139 169.276 468.23 168.794 466.024C159.125 465.72 142.474 464.816 133.827 462.195C133.805 462.202 133.782 462.202 133.76 462.195C131.461 463.26 131.79 472.778 131.79 472.778Z" fill="#444053"/>
        <path opacity="0.1" d="M227.96 454.335C228.949 476.404 253.976 467.858 257.602 464.875C258.118 464.446 258.589 463.964 259.005 463.438C250.257 466.658 234.747 469.152 229.701 449.297C229.008 450.935 228.427 452.618 227.96 454.335Z" fill="black"/>
        <path opacity="0.1" d="M131.79 472.778C131.79 472.778 150.892 478.373 161.424 477.714C170.654 477.139 169.276 468.23 168.794 466.024C159.125 465.72 142.474 464.816 133.827 462.195C133.805 462.202 133.782 462.202 133.76 462.195C131.461 463.26 131.79 472.778 131.79 472.778Z" fill="black"/>
        <path d="M84.686 541.613C94.8963 548.527 110.381 545.231 110.381 545.231C110.381 545.231 133.76 534.04 140.682 534.04C147.605 534.04 164.365 527.117 164.365 527.117L163.799 522.46L161.077 500.112C161.077 500.112 135.425 499.453 134.394 497.146C134.394 497.146 129.787 485.803 128.139 489.995C126.491 494.187 101.793 523.804 95.5302 523.804C92.5466 523.804 87.6189 526.272 84.3817 529.602C80.8571 533.296 79.3441 537.995 84.686 541.613Z" fill="white"/>
        <path opacity="0.1" d="M173.283 346.966C173.283 346.966 194.692 360.489 188.767 363.431C182.842 366.372 173.283 346.966 173.283 346.966Z" fill="black"/>
        <path opacity="0.1" d="M164.365 372.982C164.365 372.982 182.808 390.495 175.894 390.96C168.98 391.425 164.365 372.982 164.365 372.982Z" fill="black"/>
        <path opacity="0.1" d="M144.629 428.606C144.629 428.606 153.994 446.212 150.47 449.263C146.945 452.315 144.629 428.606 144.629 428.606Z" fill="black"/>
        <path opacity="0.1" d="M247.722 446.432C244.425 449.72 278.995 435.562 271.101 434.903C263.206 434.244 247.722 446.432 247.722 446.432Z" fill="black"/>
        <path d="M316.878 199.414L317.985 199.254C322.076 198.628 336.927 196.296 350.248 193.405C353.493 192.695 356.638 191.959 359.545 191.199C369.747 188.528 376.593 185.646 372.224 183.279C366.442 180.143 363.399 174.446 361.793 169.544C361.641 169.062 361.498 168.597 361.362 168.133C360.653 165.651 360.208 163.101 360.035 160.525C360.035 160.525 322.845 147.348 330.064 160.525C333.622 166.991 331.23 172.266 327.875 175.959C325.567 178.401 322.853 180.423 319.853 181.935L316.878 199.414Z" fill="#80461B"/>
        <path opacity="0.1" d="M356.731 189.204C356.731 189.204 343.418 198.755 329.819 190.852C316.219 182.949 298.435 260.676 298.435 260.676L279.992 306.124C279.992 306.124 268.049 316.005 282.917 320.29C297.784 324.576 330.765 316.005 339.141 328.523C347.518 341.041 363.374 343.01 364.997 343.01C366.62 343.01 372.891 295.905 372.891 295.905L374.523 227.729L356.731 189.204Z" fill="black"/>
        <path d="M283.542 317.653C298.41 321.93 331.399 313.368 339.775 325.886C343.304 330.986 348.233 334.957 353.967 337.322C357.668 338.984 361.617 340.029 365.656 340.415C365.867 340.415 366.18 339.57 366.544 338.057C368.86 328.523 373.551 293.311 373.551 293.311L375.173 225.135L359.528 191.199L357.39 186.567C355.294 187.965 353.019 189.077 350.628 189.872C345.481 191.613 338.034 192.593 330.495 188.181C326.505 185.865 322.152 190.92 318.002 199.22C307.995 219.201 299.111 258.006 299.111 258.006L280.652 303.513C280.213 303.889 279.795 304.29 279.401 304.713C276.781 307.451 271.87 314.289 283.542 317.653Z" fill="#F3F5F9"/>
        <path opacity="0.1" d="M354.406 319.944C353.678 325.696 353.531 331.506 353.967 337.288C354.5 345.514 355.533 353.699 357.06 361.799C357.155 362.308 357.291 362.808 357.466 363.295C365.504 359.771 371.885 357.193 371.885 357.193L366.544 338.04C368.86 328.506 373.551 293.294 373.551 293.294L375.173 225.118L359.528 191.199C369.73 188.528 376.576 185.646 372.207 183.279C365.867 179.839 362.816 173.314 361.345 168.133C358.666 171.868 355.528 175.253 352.006 178.208L351.803 178.377L350.62 189.872L350.256 193.405L349.495 200.733C349.495 200.733 353.121 287.352 355.75 292.296C358.379 297.241 357.069 306.784 354.77 317.983C354.626 318.617 354.541 319.268 354.406 319.944Z" fill="black"/>
        <path d="M356.071 316.664C353.772 327.864 355.742 346.306 358.379 360.464C361.016 374.621 389.01 365.408 394.284 360.464C399.558 355.519 415.026 353.22 415.026 353.22C415.026 353.22 415.685 288.67 420.63 280.438C422.971 276.533 423.537 263.787 423.478 251.472C423.436 240.416 422.886 229.707 422.684 226.115C422.633 225.27 422.608 224.805 422.608 224.805C422.608 224.805 444.009 188.579 443.679 185.925C443.349 183.271 437.095 182.966 437.095 182.966C437.095 182.966 413.428 164.523 409.43 166.822C405.433 169.121 394.605 163.205 394.605 163.205C394.605 163.205 380.836 164.769 377.988 162.106C377.815 161.958 377.679 161.772 377.59 161.562C377.502 161.352 377.465 161.124 377.481 160.897C377.802 156.671 363.45 147.678 363.002 147.374C375.106 158.26 355.539 175.038 353.316 176.881L353.113 177.05L350.806 199.406C350.806 199.406 354.432 286.025 357.06 290.969C359.689 295.914 358.379 305.465 356.071 316.664Z" fill="#0E6BA8"/>
        <path d="M357.348 224.222C358.258 224.222 358.996 223.484 358.996 222.574C358.996 221.663 358.258 220.925 357.348 220.925C356.437 220.925 355.699 221.663 355.699 222.574C355.699 223.484 356.437 224.222 357.348 224.222Z" fill="#444053"/>
        <path opacity="0.1" d="M353.975 178.208L363.983 187.885L378.647 163.374C378.474 163.226 378.338 163.04 378.25 162.83C378.162 162.62 378.124 162.392 378.14 162.165C378.461 157.939 364.101 148.946 363.661 148.642C375.765 159.587 356.232 176.365 353.975 178.208Z" fill="black"/>
        <path opacity="0.1" d="M360.644 276.913C361.554 276.913 362.292 276.175 362.292 275.265C362.292 274.355 361.554 273.617 360.644 273.617C359.734 273.617 358.996 274.355 358.996 275.265C358.996 276.175 359.734 276.913 360.644 276.913Z" fill="black"/>
        <path d="M360.644 276.254C361.554 276.254 362.292 275.516 362.292 274.606C362.292 273.696 361.554 272.958 360.644 272.958C359.734 272.958 358.996 273.696 358.996 274.606C358.996 275.516 359.734 276.254 360.644 276.254Z" fill="#444053"/>
        <path d="M353.316 176.889L363.323 186.567L377.988 162.055C377.815 161.908 377.679 161.721 377.591 161.511C377.502 161.301 377.465 161.074 377.481 160.847C377.802 156.621 363.45 147.627 363.002 147.323C375.106 158.269 355.539 175.038 353.316 176.889Z" fill="#0E6BA8"/>
        <path d="M344.376 269.116L364.419 269.575C365.213 269.593 365.871 268.964 365.889 268.171L366.93 222.625C366.948 221.832 366.32 221.174 365.527 221.156L345.483 220.698C344.69 220.679 344.032 221.308 344.014 222.101L342.972 267.647C342.954 268.44 343.582 269.098 344.376 269.116Z" fill="#D1D9EC"/>
        <path d="M344.493 270.187L364.537 270.646C365.33 270.664 365.988 270.035 366.006 269.242L367.048 223.696C367.066 222.903 366.437 222.245 365.644 222.227L345.6 221.768C344.807 221.75 344.149 222.379 344.131 223.172L343.089 268.718C343.071 269.511 343.7 270.169 344.493 270.187Z" fill="#DFE6F5"/>
        <path d="M355.666 239.782C357.654 239.782 359.266 238.17 359.266 236.182C359.266 234.193 357.654 232.581 355.666 232.581C353.677 232.581 352.065 234.193 352.065 236.182C352.065 238.17 353.677 239.782 355.666 239.782Z" fill="white"/>
        <path opacity="0.1" d="M231.578 313.697C239.81 317.324 293.829 307.781 301.732 305.465C309.635 303.149 321.172 285.374 315.568 272.501C309.964 259.628 317.537 247.144 317.537 247.144C317.537 247.144 329.371 221.788 332.033 216.843C334.695 211.898 340.164 197.521 340.925 195.112C340.956 194.842 340.93 194.567 340.85 194.307C340.77 194.047 340.637 193.806 340.46 193.599C338.313 190.362 330.03 184.598 330.03 184.598C327.705 185.443 327.418 178.774 327.494 173.88C327.545 171.142 327.705 168.961 327.705 168.961C327.705 168.961 326.615 170.068 324.832 171.581C324.181 172.13 323.437 172.739 322.609 173.364C319.52 175.839 316.025 177.758 312.28 179.036C304.377 181.377 293.178 192.171 293.178 192.171L296.474 242.749C296.474 242.749 288.867 290.319 280.99 299.54C273.112 308.761 249.37 308.432 241.467 308.432C233.564 308.432 231.578 313.697 231.578 313.697Z" fill="black"/>
        <path d="M230.919 311.728C239.151 315.346 293.169 305.812 301.072 303.487C308.975 301.163 320.513 283.396 314.909 270.523C309.305 257.651 316.878 245.167 316.878 245.167C316.878 245.167 328.711 219.81 331.374 214.865C334.036 209.921 339.505 195.543 340.266 193.134C340.296 192.864 340.27 192.59 340.19 192.33C340.11 192.069 339.978 191.828 339.801 191.621C337.637 188.393 329.396 182.645 329.396 182.645C327.072 183.49 326.784 176.83 326.86 171.936C326.911 169.189 327.072 167.008 327.072 167.008C327.072 167.008 325.981 168.116 324.198 169.637C323.547 170.178 322.803 170.787 321.975 171.412C318.871 173.891 315.359 175.811 311.595 177.083C303.693 179.425 292.493 190.218 292.493 190.218L295.79 240.797C295.79 240.797 288.183 288.366 280.305 297.587C272.428 306.809 248.694 306.479 240.782 306.479C232.871 306.479 230.919 311.728 230.919 311.728Z" fill="#0E6BA8"/>
        <path opacity="0.1" d="M320.504 168.276C320.504 168.276 320.817 170.009 321.349 172.68C323.124 181.724 327.35 201.468 330.402 200.708C332.591 200.158 336.318 196.287 339.158 192.94C337.02 189.677 328.754 183.913 328.754 183.913C326.429 184.758 326.142 178.098 326.218 173.204L323.555 170.905L320.504 168.276Z" fill="black"/>
        <path d="M321.163 166.983C321.163 166.983 321.476 168.716 322.009 171.387C323.784 180.431 328.01 200.175 331.061 199.414C333.25 198.865 336.978 194.994 339.818 191.647C337.637 188.393 329.396 182.645 329.396 182.645C327.072 183.49 326.784 176.83 326.86 171.936L324.198 169.637L321.163 166.983Z" fill="#0E6BA8"/>
        <path d="M300.083 263.964C300.083 263.964 316.557 260.676 321.163 253.433C325.77 246.189 357.145 239.909 353.282 247.516C349.419 255.123 321.163 279.88 321.163 279.88L308.899 297.435L292.519 293.277L285.613 279.846L300.083 263.964Z" fill="#80461B"/>
        <path opacity="0.1" d="M339.048 282.762C339.048 282.762 323.099 288.679 320.699 296.59C318.298 304.501 339.048 282.762 339.048 282.762Z" fill="black"/>
        <path opacity="0.1" d="M348.828 291.967C348.828 291.967 350.281 300.191 330.292 299.574L348.828 291.967Z" fill="black"/>
        <path opacity="0.1" d="M435.117 186.567L442.369 185.908C442.369 185.908 450.272 191.824 456.197 191.824C462.122 191.824 465.748 199.431 465.748 199.431C465.748 199.431 475.629 204.046 478.925 204.706C482.221 205.365 487.817 208.653 486.169 209.971C484.52 211.29 486.498 214.257 489.465 216.556C492.432 218.855 497.072 230.722 493.083 232.37C489.093 234.018 478.266 237.306 475.333 238.954C472.4 240.602 468.748 238.954 468.748 238.954C468.748 238.954 451.303 216.226 442.403 220.511C433.503 224.797 421.314 224.771 421.314 224.771L411.763 204.689L435.117 186.567Z" fill="black"/>
        <path d="M283.542 294.942C285.098 297.258 287.109 298.881 289.687 299.21C296.134 299.964 302.667 299.359 308.865 297.435C308.865 297.435 275.69 286.895 307.631 261.268H299.095L296.221 260.186L297.522 253.365L299.399 191.841L292.485 190.193C292.485 190.193 286.915 230.705 285.588 235.641C284.261 240.577 283.263 259.688 283.263 259.688C283.263 259.688 281.945 267.59 279.967 271.521C278.471 274.513 278.885 287.91 283.542 294.942Z" fill="#0E6BA8"/>
        <path opacity="0.1" d="M284.886 294.942C286.433 297.258 288.453 298.881 291.031 299.21C297.478 299.964 304.011 299.359 310.209 297.435C310.209 297.435 277.034 286.895 308.975 261.251H300.447L297.598 260.169C292.84 268.495 285.486 283.278 284.886 294.942Z" fill="black"/>
        <path d="M283.542 294.942C285.098 297.258 287.109 298.881 289.687 299.21C296.134 299.964 302.667 299.359 308.865 297.435C308.865 297.435 275.69 286.895 307.631 261.268H299.095L296.221 260.186C291.555 268.495 284.168 283.278 283.542 294.942Z" fill="#0E6BA8"/>
        <path opacity="0.1" d="M327.866 175.985C333.494 178.538 339.774 179.29 345.846 178.137C351.918 176.984 357.485 173.983 361.785 169.544C361.633 169.062 361.489 168.597 361.354 168.133C360.645 165.651 360.2 163.101 360.027 160.525C360.027 160.525 322.837 147.348 330.055 160.525C333.614 167.017 331.222 172.291 327.866 175.985Z" fill="black"/>
        <path d="M368.142 156.955V156.957C366.034 163.08 361.969 168.34 356.575 171.922C351.18 175.505 344.755 177.212 338.294 176.778C331.832 176.345 325.693 173.796 320.825 169.526C315.957 165.256 312.631 159.501 311.359 153.152C311.193 152.277 311.06 151.429 310.96 150.499C310.86 149.564 310.794 148.619 310.794 147.67V147.374C310.814 139.747 313.791 132.424 319.098 126.945C324.406 121.467 331.631 118.26 339.255 117.998C346.878 117.736 354.307 120.441 359.977 125.543C365.648 130.645 369.12 137.747 369.662 145.355L369.663 145.366L369.664 145.376C369.737 146.019 369.737 146.684 369.737 147.374V147.375C369.742 150.028 369.384 152.67 368.674 155.227L368.673 155.23C368.515 155.812 368.341 156.384 368.142 156.955Z" fill="#80461B" stroke="black"/>
        <path opacity="0.1" d="M310.294 147.67C310.458 148.621 310.514 149.588 310.463 150.552C310.453 151.074 310.481 151.597 310.547 152.115C310.604 152.506 310.712 152.886 310.869 153.248C312.077 156.088 316.033 157.931 318.645 156.096C319.65 155.273 320.449 154.225 320.977 153.037C323.75 147.889 327.596 141.973 333.656 141.871C336.242 141.821 338.668 142.911 341.17 143.562C343.672 144.213 346.63 144.272 348.49 142.573C349.926 141.263 350.603 139.031 352.521 138.575C354.44 138.119 356.215 139.877 357.094 141.601C357.973 143.325 358.675 145.354 360.475 146.25C361.269 146.638 362.165 146.757 363.011 147.179C366.594 149.14 364.946 156.012 368.665 157.128C368.781 157.164 368.9 157.192 369.02 157.212C369.079 156.604 369.147 155.978 369.206 155.37C369.544 152.022 369.879 148.675 370.212 145.328C369.66 137.591 366.129 130.368 360.362 125.18C354.595 119.991 347.041 117.241 339.288 117.507C331.536 117.773 324.188 121.034 318.79 126.606C313.392 132.177 310.365 139.625 310.345 147.382L310.294 147.67Z" fill="black"/>
        <path d="M363.535 102.636C367.059 104.132 370.728 106.431 371.514 110.023C371.86 111.604 371.598 113.243 371.683 114.849C371.852 118.095 373.373 121.104 374.379 124.215C375.385 127.325 375.723 130.976 373.745 133.597C373.128 134.442 372.308 135.11 371.75 135.972C371.023 137.33 370.629 138.843 370.601 140.384L368.969 156.595C364.794 155.809 366.654 148.566 362.951 146.554C362.182 146.131 361.261 146.013 360.458 145.616C358.675 144.77 357.982 142.7 357.077 140.975C356.173 139.251 354.457 137.485 352.504 137.949C350.552 138.414 349.91 140.646 348.481 141.947C346.613 143.638 343.646 143.57 341.153 142.936C338.66 142.302 336.225 141.246 333.647 141.246C327.579 141.347 323.724 147.264 320.969 152.411C320.439 153.603 319.637 154.653 318.628 155.479C315.686 157.542 311.021 154.939 310.539 151.49C310.252 149.554 310.86 147.399 309.744 145.759C308.629 144.12 306.211 143.773 304.327 142.894C299.509 140.68 298.021 134.67 298.816 129.632C299.399 125.998 300.844 122.262 299.661 118.763C299.247 117.554 298.545 116.455 298.165 115.247C297.108 111.866 298.833 108.113 301.546 105.704C304.259 103.295 307.817 101.968 311.317 100.802C320.301 97.7843 329.734 94.8852 339.294 94.2597C343.477 93.9892 348.963 92.6791 352.285 95.2909C356.232 98.3168 358.666 100.574 363.535 102.636Z" fill="black"/>
        <path opacity="0.1" d="M355.699 198.197C356.61 198.197 357.348 197.459 357.348 196.549C357.348 195.639 356.61 194.901 355.699 194.901C354.789 194.901 354.051 195.639 354.051 196.549C354.051 197.459 354.789 198.197 355.699 198.197Z" fill="black"/>
        <path d="M355.699 197.538C356.61 197.538 357.348 196.8 357.348 195.89C357.348 194.98 356.61 194.242 355.699 194.242C354.789 194.242 354.051 194.98 354.051 195.89C354.051 196.8 354.789 197.538 355.699 197.538Z" fill="#444053"/>
        <path opacity="0.1" d="M366.239 301.619C367.15 301.619 367.888 300.881 367.888 299.971C367.888 299.061 367.15 298.323 366.239 298.323C365.329 298.323 364.591 299.061 364.591 299.971C364.591 300.881 365.329 301.619 366.239 301.619Z" fill="black"/>
        <path d="M366.239 300.96C367.15 300.96 367.888 300.222 367.888 299.312C367.888 298.401 367.15 297.664 366.239 297.664C365.329 297.664 364.591 298.401 364.591 299.312C364.591 300.222 365.329 300.96 366.239 300.96Z" fill="#444053"/>
        <path opacity="0.1" d="M360.644 328.954C361.554 328.954 362.292 328.216 362.292 327.306C362.292 326.395 361.554 325.657 360.644 325.657C359.734 325.657 358.996 326.395 358.996 327.306C358.996 328.216 359.734 328.954 360.644 328.954Z" fill="black"/>
        <path d="M360.644 328.295C361.554 328.295 362.292 327.557 362.292 326.646C362.292 325.736 361.554 324.998 360.644 324.998C359.734 324.998 358.996 325.736 358.996 326.646C358.996 327.557 359.734 328.295 360.644 328.295Z" fill="#444053"/>
        <path opacity="0.1" d="M304.039 222.574C304.039 222.574 300.413 247.17 304.039 251.455C307.665 255.74 304.039 222.574 304.039 222.574Z" fill="black"/>
        <path opacity="0.1" d="M411.738 268.25C411.738 268.25 418.652 283.151 411.738 297.435C404.824 311.72 400.539 317.526 402.846 326.646C405.154 335.766 411.738 268.25 411.738 268.25Z" fill="black"/>
        <path opacity="0.1" d="M84.686 541.613C94.8963 548.527 110.381 545.23 110.381 545.23C110.381 545.23 133.76 534.04 140.682 534.04C147.605 534.04 164.365 527.117 164.365 527.117L163.799 522.46C156.978 523.77 141.46 526.906 139.668 528.436C137.36 530.414 109.037 539.965 109.037 539.965C109.037 539.965 89.7489 537.556 84.3817 529.628C80.8571 533.296 79.3441 537.995 84.686 541.613Z" fill="black"/>
        <g opacity="0.1">
            <path opacity="0.1" d="M371.683 112.212C371.683 111.857 371.683 111.502 371.683 111.139C371.683 111.553 371.683 111.984 371.683 112.373C371.7 112.322 371.683 112.271 371.683 112.212Z" fill="black"/>
            <path opacity="0.1" d="M304.335 140.232C306.22 141.077 308.561 141.415 309.753 143.088C310.945 144.762 310.26 146.884 310.547 148.819C311.046 152.268 315.695 154.879 318.636 152.809C319.645 151.982 320.447 150.932 320.977 149.74C323.741 144.593 327.596 138.676 333.656 138.575C336.242 138.533 338.668 139.623 341.17 140.265C343.672 140.908 346.63 140.975 348.498 139.277C349.927 137.975 350.603 135.735 352.521 135.279C354.44 134.822 356.207 136.58 357.094 138.304C357.982 140.029 358.675 142.057 360.475 142.953C361.269 143.342 362.165 143.46 362.968 143.883C366.67 145.903 364.811 153.18 368.986 153.924C369.55 148.515 370.094 143.111 370.618 137.713C370.652 136.189 371.046 134.695 371.767 133.351C372.325 132.506 373.145 131.796 373.762 130.968C374.509 129.945 374.975 128.744 375.114 127.486C375.464 129.623 374.98 131.814 373.762 133.605C373.145 134.45 372.325 135.118 371.767 135.98C371.035 137.335 370.635 138.844 370.601 140.384C370.037 145.788 369.494 151.191 368.969 156.595C364.794 155.809 366.654 148.566 362.951 146.554C362.182 146.131 361.261 146.013 360.458 145.616C358.675 144.77 357.982 142.7 357.077 140.975C356.173 139.251 354.457 137.485 352.504 137.949C350.552 138.414 349.91 140.646 348.481 141.947C346.613 143.638 343.646 143.57 341.153 142.936C338.66 142.302 336.225 141.246 333.639 141.246C327.579 141.347 323.724 147.264 320.961 152.411C320.43 153.603 319.628 154.653 318.619 155.48C315.678 157.542 311.012 154.939 310.53 151.49C310.243 149.554 310.852 147.399 309.736 145.759C308.62 144.12 306.203 143.773 304.318 142.894C299.914 140.866 298.292 135.667 298.664 130.943C299.002 134.805 300.743 138.575 304.335 140.232Z" fill="black"/>
            <path opacity="0.1" d="M298.173 112.576C298.554 113.784 299.255 114.892 299.669 116.092C300.106 117.493 300.232 118.973 300.041 120.428C299.975 119.853 299.851 119.287 299.669 118.737C299.255 117.529 298.554 116.43 298.173 115.221C297.839 114.106 297.773 112.927 297.979 111.781C298.028 112.05 298.093 112.315 298.173 112.576Z" fill="black"/>
        </g>
        <path d="M483.98 383.851L416.091 375.357C415.612 375.297 415.16 375.106 414.784 374.804C414.408 374.502 414.124 374.101 413.963 373.646C413.803 373.191 413.772 372.701 413.875 372.23C413.977 371.759 414.209 371.325 414.544 370.979L443.02 341.396C443.296 341.108 443.635 340.888 444.011 340.753C444.386 340.618 444.787 340.572 445.184 340.618L497.089 346.433C497.484 346.477 497.863 346.612 498.197 346.826C498.532 347.04 498.813 347.328 499.019 347.667C499.225 348.007 499.35 348.389 499.384 348.785C499.419 349.181 499.362 349.579 499.219 349.949L486.726 382.229C486.514 382.765 486.128 383.216 485.631 383.51C485.133 383.804 484.553 383.924 483.98 383.851Z" fill="#746D83"/>
        <path opacity="0.1" d="M483.98 383.851L416.091 375.357C415.612 375.297 415.16 375.106 414.784 374.804C414.408 374.502 414.124 374.101 413.963 373.646C413.803 373.191 413.772 372.701 413.875 372.23C413.977 371.759 414.209 371.325 414.544 370.979L443.02 341.396C443.296 341.108 443.635 340.888 444.011 340.753C444.386 340.618 444.787 340.572 445.184 340.618L497.089 346.433C497.484 346.477 497.863 346.612 498.197 346.826C498.532 347.04 498.813 347.328 499.019 347.667C499.225 348.007 499.35 348.389 499.384 348.785C499.419 349.181 499.362 349.579 499.219 349.949L486.726 382.229C486.514 382.765 486.128 383.216 485.631 383.51C485.133 383.804 484.553 383.924 483.98 383.851Z" fill="black"/>
        <path d="M483.21 383.091L415.33 374.562C414.852 374.501 414.399 374.308 414.024 374.005C413.649 373.702 413.365 373.301 413.205 372.846C413.044 372.391 413.013 371.9 413.116 371.429C413.218 370.957 413.449 370.523 413.783 370.176L442.259 340.593C442.536 340.306 442.875 340.085 443.25 339.949C443.625 339.813 444.026 339.764 444.423 339.807L496.32 345.622C496.715 345.666 497.096 345.801 497.431 346.015C497.767 346.229 498.049 346.518 498.255 346.858C498.462 347.199 498.588 347.582 498.623 347.979C498.658 348.375 498.602 348.775 498.458 349.146L485.957 381.426C485.75 381.969 485.368 382.429 484.87 382.73C484.372 383.032 483.788 383.159 483.21 383.091Z" fill="#746D83"/>
        <path d="M442.758 352.181L463.145 353.82L492.22 351.927H491.722L464.784 349.324C458.614 347.059 462.891 333.721 462.891 333.721L442.259 334.769L440.611 334.854C433.317 351.927 442.758 352.181 442.758 352.181Z" fill="#D1D9EC"/>
        <path opacity="0.1" d="M442.758 352.181L463.145 353.82L492.22 351.927H491.722L462.325 352.975L442.631 350.837C437.036 349.366 440.239 339.663 442.259 334.777L440.611 334.862C433.317 351.927 442.758 352.181 442.758 352.181Z" fill="black"/>
        <path d="M407.047 230.95L413.285 320.417L414.13 332.157C414.214 333.453 414.792 334.667 415.745 335.549C416.698 336.432 417.953 336.915 419.252 336.899H421.145L515.05 336.333C515.416 336.328 515.778 336.248 516.111 336.097C516.445 335.946 516.744 335.727 516.988 335.455C517.233 335.182 517.419 334.862 517.533 334.514C517.648 334.166 517.688 333.798 517.653 333.434L516.808 321.685L510.198 243.011C510.095 241.985 509.701 241.01 509.061 240.201C508.422 239.393 507.564 238.784 506.589 238.447L417.088 225.025C414.045 223.968 410.943 224.34 409.008 225.954C408.295 226.561 407.742 227.334 407.4 228.206C407.058 229.077 406.937 230.02 407.047 230.95Z" fill="#A6E1FA"/>
        <path d="M413.285 320.417L414.13 332.157C414.214 333.453 414.792 334.667 415.745 335.549C416.698 336.432 417.953 336.915 419.252 336.899H421.145L515.05 336.333C515.416 336.329 515.778 336.248 516.111 336.097C516.445 335.946 516.744 335.727 516.988 335.455C517.233 335.182 517.419 334.862 517.533 334.514C517.648 334.166 517.688 333.798 517.653 333.434L516.808 321.685L413.285 320.417Z" fill="#DFE6F5"/>
        <path d="M476.237 332.673C476.933 332.673 477.497 331.545 477.497 330.154C477.497 328.763 476.933 327.635 476.237 327.635C475.542 327.635 474.978 328.763 474.978 330.154C474.978 331.545 475.542 332.673 476.237 332.673Z" fill="white"/>
        <path d="M472.586 363.634C472.586 363.634 446.908 353.939 439.985 360.988C439.985 360.988 438.853 363.135 443.51 363.634L462.325 365.146C462.325 365.146 470.067 365.899 472.586 363.634Z" fill="#D1D9EC"/>
        <path d="M471.901 361.115C466.83 359.052 451.675 353.719 441.955 359.619C441.955 359.619 452.706 358.427 458.614 361.842C464.522 365.256 472.586 363.633 472.586 363.633L472.704 363.422C472.817 363.221 472.886 362.998 472.907 362.768C472.927 362.538 472.898 362.306 472.822 362.088C472.746 361.87 472.625 361.67 472.466 361.502C472.307 361.335 472.115 361.202 471.901 361.115Z" fill="#DFE6F5"/>
        <path d="M407.047 230.95L414.096 332.174C414.18 333.47 414.759 334.684 415.712 335.566C416.665 336.449 417.92 336.932 419.218 336.916H421.112C419.814 335.678 418.709 334.254 417.832 332.69C417.832 332.69 410.91 230.975 410.402 228.456C410.18 227.513 409.697 226.652 409.008 225.971C408.297 226.576 407.746 227.347 407.404 228.215C407.062 229.084 406.94 230.023 407.047 230.95Z" fill="#DFE6F5"/>
        <path opacity="0.1" d="M407.047 230.95L414.096 332.174C414.18 333.47 414.759 334.684 415.712 335.566C416.665 336.449 417.92 336.932 419.218 336.916H421.112C419.814 335.678 418.709 334.254 417.832 332.69C417.832 332.69 410.91 230.975 410.402 228.456C410.18 227.513 409.697 226.652 409.008 225.971C408.297 226.576 407.746 227.347 407.404 228.215C407.062 229.084 406.94 230.023 407.047 230.95Z" fill="black"/>
        <path opacity="0.1" d="M394.935 259.011C402.542 257.321 420.292 252.114 420.292 252.114L423.47 251.472C423.427 240.416 422.878 229.707 422.675 226.115H422.599C422.599 226.115 407.444 231.06 403.827 233.722C400.209 236.385 389.001 235.692 389.001 235.692C389.001 235.692 371.556 236.63 357.077 252.799C342.598 268.968 387.362 260.676 394.935 259.011Z" fill="black"/>
        <path d="M468.968 229.623C469.645 229.932 470.233 230.408 470.676 231.007C471.119 231.605 471.403 232.306 471.502 233.043C471.601 233.781 471.511 234.532 471.241 235.226C470.971 235.919 470.529 236.533 469.957 237.01C465.942 240.332 460.085 244.304 454.49 244.862C445.192 245.8 422.709 250.305 420.478 250.779C420.357 250.799 420.239 250.827 420.123 250.863C418.272 251.404 402.077 256.146 394.935 257.71C387.328 259.4 342.531 267.607 357.06 251.472C370.398 236.613 386.246 234.567 388.689 234.373C388.883 234.356 389.078 234.356 389.272 234.373C390.962 234.449 400.53 234.779 403.835 232.387C405.557 231.307 407.38 230.398 409.278 229.674C416.44 226.71 423.91 224.555 431.55 223.25L447.043 220.545C447.925 220.393 448.832 220.511 449.646 220.883L468.968 229.623Z" fill="#80461B"/>
        <path d="M436.435 186.567L443.679 185.908C443.679 185.908 451.59 191.824 457.515 191.824C463.44 191.824 467.067 199.431 467.067 199.431C467.067 199.431 476.947 204.046 480.244 204.706C483.54 205.365 489.135 208.653 487.487 209.971C485.839 211.29 487.817 214.257 490.784 216.556C493.75 218.855 498.391 230.722 494.401 232.37C490.412 234.018 479.584 237.306 476.651 238.954C473.718 240.602 470.067 238.954 470.067 238.954C470.067 238.954 452.588 216.209 443.688 220.494C434.787 224.78 422.608 224.771 422.608 224.771L413.057 204.689L436.435 186.567Z" fill="#0E6BA8"/>
        <path d="M870.13 600.728C869.319 601.838 868.672 603.059 868.211 604.354C868.084 604.667 867.975 605.03 867.856 605.377C867.641 605.278 867.418 605.199 867.188 605.14C866.203 604.891 865.184 604.806 864.171 604.887C864.171 604.489 864.171 604.084 864.23 603.644C864.348 599.19 863.824 592.986 859.581 595.615C855.499 598.15 858.406 602.376 861.035 605.081L861.711 605.749C859.319 607.439 858.863 611.437 858.457 615.587C858.051 619.737 854.535 624.276 852.203 626.854C851.966 627.125 851.746 627.353 851.543 627.573C850.602 626.823 849.513 626.28 848.348 625.978C847.183 625.677 845.968 625.624 844.781 625.823L844.469 624.682C842.575 617.844 838.645 606.002 833.633 603.407C833.844 603.145 834.064 602.875 834.292 602.562C836.422 599.781 838.814 595.64 835.273 594.583C831.731 593.527 831.418 598.176 831.613 601.649C831.613 602.089 831.647 602.503 831.714 602.892C831.005 602.924 830.31 603.101 829.672 603.412C829.034 603.723 828.466 604.162 828.004 604.701L827.463 604.05C824.589 600.669 819.315 595.285 817.726 599.35C816.238 603.137 820.878 608.056 824.141 610.905L824.344 611.082C822.146 619.966 831.714 627.209 836.862 630.379L837.521 630.784C830.421 639.152 826.043 654.84 826.043 654.84L845.922 658.389C845.922 658.389 859.1 647.013 857.418 636.329H857.553C870.721 633.692 873.722 619.644 871.668 611.31L871.905 611.209C874.302 610.225 876.402 608.634 877.999 606.594C881.642 601.48 873.908 595.699 870.13 600.728Z" fill="#0E6BA8"/>
        <path opacity="0.1" d="M870.13 600.728C869.319 601.838 868.672 603.059 868.211 604.354C868.084 604.667 867.975 605.03 867.856 605.377C867.641 605.278 867.418 605.199 867.188 605.14C866.203 604.891 865.184 604.806 864.171 604.887C864.171 604.489 864.171 604.084 864.23 603.644C864.348 599.19 863.824 592.986 859.581 595.615C855.499 598.15 858.406 602.376 861.035 605.081L861.711 605.749C859.319 607.439 858.863 611.437 858.457 615.587C858.051 619.737 854.535 624.276 852.203 626.854C851.966 627.125 851.746 627.353 851.543 627.573C850.602 626.823 849.513 626.28 848.348 625.978C847.183 625.677 845.968 625.624 844.781 625.823L844.469 624.682C842.575 617.844 838.645 606.002 833.633 603.407C833.844 603.145 834.064 602.875 834.292 602.562C836.422 599.781 838.814 595.64 835.273 594.583C831.731 593.527 831.418 598.176 831.613 601.649C831.613 602.089 831.647 602.503 831.714 602.892C831.005 602.924 830.31 603.101 829.672 603.412C829.034 603.723 828.466 604.162 828.004 604.701L827.463 604.05C824.589 600.669 819.315 595.285 817.726 599.35C816.238 603.137 820.878 608.056 824.141 610.905L824.344 611.082C822.146 619.966 831.714 627.209 836.862 630.379L837.521 630.784C830.421 639.152 826.043 654.84 826.043 654.84L845.922 658.389C845.922 658.389 859.1 647.013 857.418 636.329H857.553C870.721 633.692 873.722 619.644 871.668 611.31L871.905 611.209C874.302 610.225 876.402 608.634 877.999 606.594C881.642 601.48 873.908 595.699 870.13 600.728Z" fill="#0E6BA8"/>
        <path d="M830.548 606.459L828.223 613.263C828.223 613.263 826.939 612.35 825.307 610.913C822.045 608.065 817.405 603.145 818.892 599.359C820.481 595.293 825.755 600.66 828.629 604.058C829.787 605.411 830.548 606.459 830.548 606.459Z" fill="#0E6BA8"/>
        <path d="M835.475 602.571C834.764 603.508 834.003 604.405 833.193 605.259C832.99 604.072 832.852 602.876 832.779 601.675C832.585 598.201 832.948 593.569 836.439 594.609C839.93 595.648 837.589 599.79 835.475 602.571Z" fill="#0E6BA8"/>
        <path d="M865.439 603.644C865.363 605.884 865.143 607.676 865.143 607.676C864.12 606.876 863.152 606.009 862.244 605.081C859.615 602.359 856.708 598.142 860.79 595.614C865.058 592.986 865.557 599.19 865.439 603.644Z" fill="#0E6BA8"/>
        <path d="M879.165 606.577C877.568 608.617 875.468 610.208 873.071 611.192C872.407 611.485 871.723 611.734 871.026 611.936L868.287 608.09C868.575 606.819 868.953 605.571 869.42 604.354C869.881 603.059 870.527 601.838 871.339 600.728C875.125 595.699 882.859 601.48 879.165 606.577Z" fill="#0E6BA8"/>
        <path opacity="0.1" d="M828.629 604.058C829.787 605.411 830.548 606.459 830.548 606.459L828.223 613.263C828.223 613.263 826.939 612.35 825.307 610.913C825.667 608.735 826.564 606.681 827.919 604.937C828.156 604.616 828.401 604.329 828.629 604.058Z" fill="black"/>
        <path opacity="0.1" d="M835.476 602.571C834.764 603.508 834.003 604.405 833.193 605.259C832.99 604.072 832.852 602.876 832.779 601.675C833.749 601.688 834.691 602.001 835.476 602.571Z" fill="black"/>
        <path d="M846.886 629.584L841.105 632.12C840.05 631.592 839.024 631.011 838.028 630.379C831.951 626.643 819.729 617.235 827.885 606.146C836.042 595.057 842.905 614.945 845.635 624.673C846.463 627.589 846.886 629.584 846.886 629.584Z" fill="#0E6BA8"/>
        <path opacity="0.1" d="M862.244 605.081C863.089 604.216 864.231 603.703 865.439 603.644C865.363 605.884 865.143 607.676 865.143 607.676C864.12 606.876 863.152 606.009 862.244 605.081Z" fill="black"/>
        <path opacity="0.1" d="M873.071 611.175C872.407 611.468 871.723 611.717 871.026 611.919L868.287 608.073C868.575 606.802 868.953 605.554 869.42 604.337C871.186 605.385 872.488 607.955 873.071 611.175Z" fill="black"/>
        <path d="M858.719 636.312C858.398 636.38 858.077 636.439 857.747 636.49C838.366 639.431 851.357 628.976 851.357 628.976C851.357 628.976 852.203 628.173 853.411 626.854C855.744 624.318 859.269 619.763 859.666 615.587C860.274 609.307 860.984 603.416 868.397 605.14C875.674 606.848 877.061 632.644 858.719 636.312Z" fill="#0E6BA8"/>
        <path d="M858.356 684.566H821.326V694.303H858.356V684.566Z" fill="#D4DFEC"/>
        <path d="M863.824 652.921H815.444V686.899H863.824V652.921Z" fill="#D4DFEC"/>
        <path opacity="0.1" d="M858.356 684.566H821.326V694.303H858.356V684.566Z" fill="black"/>
        <path opacity="0.1" d="M863.824 652.921H815.444V686.899H863.824V652.921Z" fill="black"/>
        <path d="M860.79 684.566H823.761V694.303H860.79V684.566Z" fill="#0E6BA8"/>
        <path opacity="0.1" d="M845.618 624.699C846.463 627.606 846.869 629.601 846.869 629.601L841.088 632.137C840.034 631.609 839.007 631.027 838.011 630.396C840.293 627.513 842.846 625.35 845.618 624.699Z" fill="black"/>
        <path opacity="0.1" d="M858.719 636.312C858.398 636.38 858.077 636.439 857.747 636.49C838.366 639.431 851.357 628.976 851.357 628.976C851.357 628.976 852.203 628.173 853.411 626.854C857.029 629.77 858.525 633.016 858.719 636.312Z" fill="black"/>
        <path d="M827.209 654.848C827.209 654.848 838.062 615.968 853.276 627.97C868.49 639.972 847.089 658.398 847.089 658.398L827.209 654.848Z" fill="#0E6BA8"/>
        <path opacity="0.1" d="M832.686 613.457C833.358 613.457 833.903 612.912 833.903 612.24C833.903 611.568 833.358 611.023 832.686 611.023C832.014 611.023 831.469 611.568 831.469 612.24C831.469 612.912 832.014 613.457 832.686 613.457Z" fill="black"/>
        <path opacity="0.1" d="M832.585 619.137C833.257 619.137 833.802 618.592 833.802 617.92C833.802 617.248 833.257 616.703 832.585 616.703C831.913 616.703 831.368 617.248 831.368 617.92C831.368 618.592 831.913 619.137 832.585 619.137Z" fill="black"/>
        <path opacity="0.1" d="M867.882 614.573C868.554 614.573 869.099 614.028 869.099 613.356C869.099 612.684 868.554 612.139 867.882 612.139C867.209 612.139 866.664 612.684 866.664 613.356C866.664 614.028 867.209 614.573 867.882 614.573Z" fill="black"/>
        <path opacity="0.1" d="M839.482 643.691C840.154 643.691 840.699 643.146 840.699 642.474C840.699 641.802 840.154 641.257 839.482 641.257C838.81 641.257 838.265 641.802 838.265 642.474C838.265 643.146 838.81 643.691 839.482 643.691Z" fill="black"/>
        <path opacity="0.1" d="M865.346 624.006C866.018 624.006 866.563 623.461 866.563 622.789C866.563 622.116 866.018 621.571 865.346 621.571C864.674 621.571 864.129 622.116 864.129 622.789C864.129 623.461 864.674 624.006 865.346 624.006Z" fill="black"/>
        <path opacity="0.1" d="M852.769 636.591C853.441 636.591 853.986 636.046 853.986 635.374C853.986 634.702 853.441 634.157 852.769 634.157C852.097 634.157 851.552 634.702 851.552 635.374C851.552 636.046 852.097 636.591 852.769 636.591Z" fill="black"/>
        <path opacity="0.1" d="M836.845 615.891C837.517 615.891 838.062 615.347 838.062 614.674C838.062 614.002 837.517 613.457 836.845 613.457C836.173 613.457 835.628 614.002 835.628 614.674C835.628 615.347 836.173 615.891 836.845 615.891Z" fill="black"/>
        <path opacity="0.1" d="M864.534 618.224C865.207 618.224 865.752 617.679 865.752 617.007C865.752 616.335 865.207 615.79 864.534 615.79C863.862 615.79 863.317 616.335 863.317 617.007C863.317 617.679 863.862 618.224 864.534 618.224Z" fill="black"/>
        <path opacity="0.1" d="M860.376 627.657C861.048 627.657 861.593 627.112 861.593 626.44C861.593 625.768 861.048 625.223 860.376 625.223C859.704 625.223 859.159 625.768 859.159 626.44C859.159 627.112 859.704 627.657 860.376 627.657Z" fill="black"/>
        <path opacity="0.1" d="M847.596 642.778C848.268 642.778 848.813 642.233 848.813 641.561C848.813 640.889 848.268 640.344 847.596 640.344C846.924 640.344 846.379 640.889 846.379 641.561C846.379 642.233 846.924 642.778 847.596 642.778Z" fill="black"/>
        <path opacity="0.1" d="M844.959 636.794C845.631 636.794 846.176 636.249 846.176 635.577C846.176 634.905 845.631 634.36 844.959 634.36C844.287 634.36 843.742 634.905 843.742 635.577C843.742 636.249 844.287 636.794 844.959 636.794Z" fill="black"/>
        <path opacity="0.1" d="M838.67 623.296C839.343 623.296 839.888 622.751 839.888 622.079C839.888 621.406 839.343 620.861 838.67 620.861C837.998 620.861 837.453 621.406 837.453 622.079C837.453 622.751 837.998 623.296 838.67 623.296Z" fill="black"/>
        <path opacity="0.1" d="M860.79 684.566H823.761V688.125H860.79V684.566Z" fill="black"/>
        <path d="M866.259 652.921H817.878V686.899H866.259V652.921Z" fill="#0E6BA8"/>
        <path opacity="0.1" d="M849.219 648.255C849.891 648.255 850.436 647.71 850.436 647.038C850.436 646.366 849.891 645.821 849.219 645.821C848.547 645.821 848.002 646.366 848.002 647.038C848.002 647.71 848.547 648.255 849.219 648.255Z" fill="black"/>
        <path opacity="0.1" d="M841.916 649.777C842.588 649.777 843.133 649.232 843.133 648.559C843.133 647.887 842.588 647.342 841.916 647.342C841.244 647.342 840.699 647.887 840.699 648.559C840.699 649.232 841.244 649.777 841.916 649.777Z" fill="black"/>
    </g>
    <defs>
        <linearGradient id="paint0_linear" x1="288.394" y1="547.538" x2="288.394" y2="91.7156" gradientUnits="userSpaceOnUse">
            <stop stop-color="#808080" stop-opacity="0.25"/>
            <stop offset="0.54" stop-color="#808080" stop-opacity="0.12"/>
            <stop offset="1" stop-color="#808080" stop-opacity="0.1"/>
        </linearGradient>
        <clipPath id="clip0">
            <rect width="997" height="700" fill="white"/>
        </clipPath>
    </defs>
</svg>

